<svg xmlns="http://www.w3.org/2000/svg" xmlns:xlink="http://www.w3.org/1999/xlink" width="500" zoomAndPan="magnify" viewBox="0 0 375 149.999998" height="200" preserveAspectRatio="xMidYMid meet" version="1.0"><defs><g><g id="id1"/><g id="id2"/></g></defs><g fill="rgb(100%, 100%, 100%)" fill-opacity="1"><g transform="translate(16.752599, 108.600591)"><g><path d="M 2.703125 -27.21875 C 1.867188 -26.726562 1.242188 -26.9375 0.828125 -27.84375 C 0.617188 -28.1875 0.515625 -28.53125 0.515625 -28.875 C 0.515625 -30.550781 0.796875 -32.046875 1.359375 -33.359375 L 1.671875 -33.671875 C 1.878906 -33.878906 2.191406 -33.953125 2.609375 -33.890625 C 2.816406 -33.816406 2.921875 -33.570312 2.921875 -33.15625 C 2.921875 -32.664062 2.847656 -32.078125 2.703125 -31.390625 C 2.703125 -31.179688 2.6875 -30.914062 2.65625 -30.59375 C 2.625 -30.28125 2.609375 -30.054688 2.609375 -29.921875 C 2.609375 -29.710938 2.675781 -29.609375 2.8125 -29.609375 L 3.234375 -29.609375 C 3.722656 -30.097656 4.453125 -31.035156 5.421875 -32.421875 C 6.597656 -34.367188 7.816406 -36.039062 9.078125 -37.4375 C 9.347656 -37.78125 9.765625 -38.226562 10.328125 -38.78125 C 10.460938 -38.988281 10.738281 -39.234375 11.15625 -39.515625 C 12.269531 -40.273438 12.929688 -40.03125 13.140625 -38.78125 C 13.203125 -38.507812 13.25 -38.09375 13.28125 -37.53125 C 13.320312 -36.976562 13.34375 -36.632812 13.34375 -36.5 L 12.71875 -30.859375 C 12.644531 -30.585938 12.609375 -30.132812 12.609375 -29.5 C 12.609375 -29.15625 12.675781 -28.945312 12.8125 -28.875 C 12.957031 -28.8125 13.171875 -28.914062 13.453125 -29.1875 C 13.585938 -29.394531 13.828125 -29.722656 14.171875 -30.171875 C 14.523438 -30.628906 14.769531 -30.960938 14.90625 -31.171875 C 15.738281 -32.148438 16.539062 -32.847656 17.3125 -33.265625 C 18.28125 -33.742188 19.148438 -33.601562 19.921875 -32.84375 L 20.75 -31.90625 C 21.300781 -31.28125 21.960938 -30.796875 22.734375 -30.453125 C 23.566406 -30.097656 24.4375 -30.128906 25.34375 -30.546875 C 25.96875 -30.828125 26.800781 -31.421875 27.84375 -32.328125 C 28.113281 -32.535156 28.367188 -32.707031 28.609375 -32.84375 C 28.859375 -32.976562 29.035156 -33.046875 29.140625 -33.046875 C 29.242188 -33.046875 29.332031 -33.015625 29.40625 -32.953125 C 29.46875 -32.597656 29.1875 -32.179688 28.5625 -31.703125 C 27.875 -31.003906 27.351562 -30.515625 27 -30.234375 C 24.632812 -28.285156 22.238281 -28.53125 19.8125 -30.96875 C 19.53125 -31.25 19.179688 -31.664062 18.765625 -32.21875 C 18.554688 -32.5 18.242188 -32.566406 17.828125 -32.421875 C 16.992188 -32.078125 16.332031 -31.554688 15.84375 -30.859375 C 15.632812 -30.648438 15.375 -30.316406 15.0625 -29.859375 C 14.75 -29.410156 14.523438 -29.082031 14.390625 -28.875 C 13.972656 -28.320312 13.625 -27.90625 13.34375 -27.625 C 12.4375 -26.863281 11.847656 -27.039062 11.578125 -28.15625 C 11.503906 -28.425781 11.46875 -28.910156 11.46875 -29.609375 L 11.78125 -33.046875 C 11.914062 -33.878906 12.054688 -35.203125 12.203125 -37.015625 C 12.335938 -37.566406 12.300781 -38.050781 12.09375 -38.46875 C 11.957031 -38.75 11.785156 -38.785156 11.578125 -38.578125 C 11.015625 -38.160156 10.523438 -37.675781 10.109375 -37.125 C 9.003906 -35.9375 7.753906 -34.195312 6.359375 -31.90625 C 5.390625 -30.375 4.625 -29.226562 4.0625 -28.46875 C 3.644531 -27.769531 3.191406 -27.351562 2.703125 -27.21875 Z M 2.703125 -27.21875 "/></g></g></g><g fill="rgb(100%, 100%, 100%)" fill-opacity="1"><g transform="translate(44.067476, 108.600591)"><g><path d="M 3.34375 -24.921875 C 1.601562 -25.054688 0.523438 -26.03125 0.109375 -27.84375 C 0.0351562 -28.257812 0 -28.847656 0 -29.609375 C 0 -31.765625 0.453125 -33.640625 1.359375 -35.234375 C 1.910156 -36.078125 2.359375 -36.632812 2.703125 -36.90625 C 3.265625 -37.320312 3.894531 -37.53125 4.59375 -37.53125 C 5.351562 -37.53125 5.875 -37.253906 6.15625 -36.703125 C 6.570312 -36.078125 6.5 -35.414062 5.9375 -34.71875 C 4.6875 -33.394531 3.503906 -32.597656 2.390625 -32.328125 C 1.628906 -32.179688 1.179688 -31.625 1.046875 -30.65625 C 0.898438 -29.46875 1.003906 -28.492188 1.359375 -27.734375 C 1.773438 -26.691406 2.4375 -26.101562 3.34375 -25.96875 C 5.90625 -25.6875 9.378906 -27.734375 13.765625 -32.109375 L 14.703125 -33.046875 C 14.910156 -33.046875 15.050781 -33.015625 15.125 -32.953125 C 15.1875 -32.804688 15.21875 -32.703125 15.21875 -32.640625 C 15.21875 -32.429688 15.148438 -32.253906 15.015625 -32.109375 C 13.484375 -30.304688 11.519531 -28.640625 9.125 -27.109375 C 6.726562 -25.578125 4.800781 -24.847656 3.34375 -24.921875 Z M 1.875 -33.671875 C 3.332031 -34.367188 4.304688 -35.066406 4.796875 -35.765625 C 4.929688 -35.835938 4.929688 -35.941406 4.796875 -36.078125 C 4.796875 -36.210938 4.691406 -36.28125 4.484375 -36.28125 C 4.066406 -36.425781 3.6875 -36.320312 3.34375 -35.96875 C 2.570312 -35.34375 2.082031 -34.578125 1.875 -33.671875 Z M 1.875 -33.671875 "/></g></g></g><g fill="rgb(100%, 100%, 100%)" fill-opacity="1"><g transform="translate(57.203644, 108.600591)"><g><path d="M 10.421875 -21.6875 C 7.085938 -21.6875 4.550781 -23.21875 2.8125 -26.28125 C 2.738281 -26.550781 2.613281 -26.929688 2.4375 -27.421875 C 2.269531 -27.910156 2.117188 -28.257812 1.984375 -28.46875 C 0.660156 -31.101562 0.585938 -36.382812 1.765625 -44.3125 C 2.878906 -52.164062 5.070312 -59.8125 8.34375 -67.25 C 9.664062 -70.238281 11.085938 -72.773438 12.609375 -74.859375 C 13.304688 -75.835938 14.316406 -76.953125 15.640625 -78.203125 C 16.472656 -78.890625 17.410156 -79.515625 18.453125 -80.078125 C 19.773438 -80.628906 21.0625 -80.625 22.3125 -80.0625 C 23.5625 -79.507812 24.429688 -78.578125 24.921875 -77.265625 C 25.335938 -76.148438 25.546875 -74.722656 25.546875 -72.984375 C 25.472656 -70.410156 24.914062 -67.703125 23.875 -64.859375 C 22.757812 -61.867188 20.847656 -58.007812 18.140625 -53.28125 C 14.734375 -47.375 10.457031 -41.082031 5.3125 -34.40625 C 5.101562 -34.269531 4.859375 -33.992188 4.578125 -33.578125 C 4.304688 -33.160156 4.101562 -32.878906 3.96875 -32.734375 C 3.40625 -32.109375 3.226562 -31.414062 3.4375 -30.65625 C 4.132812 -28.425781 4.625 -27.070312 4.90625 -26.59375 C 6.425781 -23.945312 8.71875 -22.726562 11.78125 -22.9375 C 14.695312 -23.28125 17.894531 -26.128906 21.375 -31.484375 C 21.507812 -31.835938 21.785156 -32.289062 22.203125 -32.84375 C 22.273438 -32.914062 22.378906 -32.953125 22.515625 -32.953125 C 22.722656 -32.878906 22.828125 -32.703125 22.828125 -32.421875 C 22.617188 -32.003906 22.515625 -31.796875 22.515625 -31.796875 C 18.835938 -25.265625 14.804688 -21.894531 10.421875 -21.6875 Z M 3.34375 -33.78125 C 3.613281 -33.914062 4.097656 -34.4375 4.796875 -35.34375 C 5.347656 -36.175781 6.40625 -37.671875 7.96875 -39.828125 C 9.539062 -41.984375 10.742188 -43.648438 11.578125 -44.828125 C 15.535156 -50.742188 18.660156 -56.0625 20.953125 -60.78125 C 22.765625 -64.332031 23.910156 -67.8125 24.390625 -71.21875 C 24.671875 -73.582031 24.566406 -75.421875 24.078125 -76.734375 C 23.660156 -77.921875 22.929688 -78.703125 21.890625 -79.078125 C 20.847656 -79.460938 19.769531 -79.304688 18.65625 -78.609375 C 18.175781 -78.265625 17.519531 -77.675781 16.6875 -76.84375 C 14.8125 -74.894531 13.140625 -72.5 11.671875 -69.65625 C 9.378906 -65.132812 7.46875 -60.09375 5.9375 -54.53125 C 4.207031 -48.414062 3.238281 -42.054688 3.03125 -35.453125 C 3.03125 -34.617188 3.132812 -34.0625 3.34375 -33.78125 Z M 3.34375 -33.78125 "/></g></g></g><g fill="rgb(100%, 100%, 100%)" fill-opacity="1"><g transform="translate(77.53342, 108.600591)"><g><path d="M 3.234375 -37.75 C 3.023438 -37.75 2.867188 -37.78125 2.765625 -37.84375 C 2.660156 -37.914062 2.640625 -38.019531 2.703125 -38.15625 C 2.847656 -39.40625 3.195312 -40.453125 3.75 -41.296875 C 3.75 -41.359375 3.925781 -41.390625 4.28125 -41.390625 C 4.34375 -41.390625 4.476562 -41.285156 4.6875 -41.078125 C 4.757812 -40.941406 4.796875 -40.734375 4.796875 -40.453125 C 4.453125 -39.203125 4.207031 -38.472656 4.0625 -38.265625 C 3.851562 -37.921875 3.578125 -37.75 3.234375 -37.75 Z M 2.921875 -26.796875 C 1.316406 -27.285156 0.515625 -28.363281 0.515625 -30.03125 C 0.515625 -31.144531 0.757812 -32.148438 1.25 -33.046875 C 1.457031 -33.460938 1.804688 -33.640625 2.296875 -33.578125 C 2.785156 -33.429688 3.03125 -33.117188 3.03125 -32.640625 L 3.03125 -31.484375 C 3.03125 -31.210938 2.992188 -30.972656 2.921875 -30.765625 L 2.921875 -30.453125 C 2.847656 -29.679688 3.035156 -29.066406 3.484375 -28.609375 C 3.941406 -28.160156 4.550781 -27.9375 5.3125 -27.9375 C 5.875 -27.9375 6.570312 -28.113281 7.40625 -28.46875 C 8.65625 -28.945312 10.078125 -29.816406 11.671875 -31.078125 L 14.1875 -32.953125 C 14.53125 -33.160156 14.769531 -33.226562 14.90625 -33.15625 C 15.050781 -33.15625 15.125 -33.050781 15.125 -32.84375 C 15.125 -32.632812 15.050781 -32.53125 14.90625 -32.53125 C 11.78125 -29.957031 9.207031 -28.1875 7.1875 -27.21875 C 5.726562 -26.519531 4.304688 -26.378906 2.921875 -26.796875 Z M 2.921875 -26.796875 "/></g></g></g><g fill="rgb(100%, 100%, 100%)" fill-opacity="1"><g transform="translate(90.565334, 108.600591)"><g><path d="M 7.8125 -14.1875 C 6.5625 -14.320312 6.113281 -15.015625 6.46875 -16.265625 C 6.601562 -16.816406 6.8125 -17.234375 7.09375 -17.515625 C 7.78125 -18.484375 8.367188 -19.179688 8.859375 -19.609375 C 10.941406 -21.753906 13.269531 -23.695312 15.84375 -25.4375 L 17.9375 -26.90625 C 16.0625 -27.53125 14.046875 -27.84375 11.890625 -27.84375 L 4.171875 -27.21875 C 3.335938 -27.21875 2.710938 -27.285156 2.296875 -27.421875 C 0.898438 -27.835938 0.304688 -28.632812 0.515625 -29.8125 C 0.722656 -32.039062 1.800781 -33.816406 3.75 -35.140625 C 4.101562 -35.410156 4.59375 -35.476562 5.21875 -35.34375 C 5.5625 -35.207031 5.816406 -34.945312 5.984375 -34.5625 C 6.160156 -34.175781 6.113281 -33.8125 5.84375 -33.46875 C 5.769531 -33.394531 5.695312 -33.304688 5.625 -33.203125 C 5.5625 -33.097656 5.476562 -33.007812 5.375 -32.9375 C 5.269531 -32.875 5.179688 -32.804688 5.109375 -32.734375 C 4.765625 -32.316406 4.3125 -31.625 3.75 -30.65625 C 3.332031 -29.675781 3.613281 -29.15625 4.59375 -29.09375 C 5.21875 -28.945312 6.15625 -28.804688 7.40625 -28.671875 C 7.957031 -28.671875 8.738281 -28.6875 9.75 -28.71875 C 10.757812 -28.757812 11.503906 -28.78125 11.984375 -28.78125 C 14.554688 -28.78125 16.675781 -28.429688 18.34375 -27.734375 C 18.695312 -27.597656 19.148438 -27.664062 19.703125 -27.9375 L 28.046875 -32.84375 C 28.179688 -32.914062 28.5625 -33.054688 29.1875 -33.265625 C 29.46875 -33.265625 29.644531 -33.160156 29.71875 -32.953125 C 29.925781 -32.742188 29.890625 -32.566406 29.609375 -32.421875 L 24.1875 -29.1875 L 20.4375 -27 C 20.019531 -26.726562 19.914062 -26.382812 20.125 -25.96875 C 20.613281 -24.644531 20.507812 -23.285156 19.8125 -21.890625 C 17.65625 -17.859375 14.351562 -15.289062 9.90625 -14.1875 C 9.28125 -14.039062 8.582031 -14.039062 7.8125 -14.1875 Z M 8.125 -15.328125 C 9.238281 -15.328125 10.109375 -15.46875 10.734375 -15.75 C 13.515625 -16.644531 15.84375 -18.3125 17.71875 -20.75 C 18.28125 -21.300781 18.734375 -22.066406 19.078125 -23.046875 L 19.390625 -24.078125 C 19.390625 -24.503906 19.359375 -24.820312 19.296875 -25.03125 C 19.296875 -25.789062 18.945312 -25.960938 18.25 -25.546875 C 14.769531 -23.460938 11.609375 -20.925781 8.765625 -17.9375 C 8.484375 -17.65625 8.304688 -17.410156 8.234375 -17.203125 C 8.097656 -17.066406 7.957031 -16.859375 7.8125 -16.578125 C 7.601562 -16.234375 7.550781 -15.9375 7.65625 -15.6875 C 7.757812 -15.445312 7.914062 -15.328125 8.125 -15.328125 Z M 8.125 -15.328125 "/></g></g></g><g fill="rgb(100%, 100%, 100%)" fill-opacity="1"><g transform="translate(118.297243, 108.600591)"><g><path d="M 7.8125 -14.1875 C 6.5625 -14.320312 6.113281 -15.015625 6.46875 -16.265625 C 6.601562 -16.816406 6.8125 -17.234375 7.09375 -17.515625 C 7.78125 -18.484375 8.367188 -19.179688 8.859375 -19.609375 C 10.941406 -21.753906 13.269531 -23.695312 15.84375 -25.4375 L 17.9375 -26.90625 C 16.0625 -27.53125 14.046875 -27.84375 11.890625 -27.84375 L 4.171875 -27.21875 C 3.335938 -27.21875 2.710938 -27.285156 2.296875 -27.421875 C 0.898438 -27.835938 0.304688 -28.632812 0.515625 -29.8125 C 0.722656 -32.039062 1.800781 -33.816406 3.75 -35.140625 C 4.101562 -35.410156 4.59375 -35.476562 5.21875 -35.34375 C 5.5625 -35.207031 5.816406 -34.945312 5.984375 -34.5625 C 6.160156 -34.175781 6.113281 -33.8125 5.84375 -33.46875 C 5.769531 -33.394531 5.695312 -33.304688 5.625 -33.203125 C 5.5625 -33.097656 5.476562 -33.007812 5.375 -32.9375 C 5.269531 -32.875 5.179688 -32.804688 5.109375 -32.734375 C 4.765625 -32.316406 4.3125 -31.625 3.75 -30.65625 C 3.332031 -29.675781 3.613281 -29.15625 4.59375 -29.09375 C 5.21875 -28.945312 6.15625 -28.804688 7.40625 -28.671875 C 7.957031 -28.671875 8.738281 -28.6875 9.75 -28.71875 C 10.757812 -28.757812 11.503906 -28.78125 11.984375 -28.78125 C 14.554688 -28.78125 16.675781 -28.429688 18.34375 -27.734375 C 18.695312 -27.597656 19.148438 -27.664062 19.703125 -27.9375 L 28.046875 -32.84375 C 28.179688 -32.914062 28.5625 -33.054688 29.1875 -33.265625 C 29.46875 -33.265625 29.644531 -33.160156 29.71875 -32.953125 C 29.925781 -32.742188 29.890625 -32.566406 29.609375 -32.421875 L 24.1875 -29.1875 L 20.4375 -27 C 20.019531 -26.726562 19.914062 -26.382812 20.125 -25.96875 C 20.613281 -24.644531 20.507812 -23.285156 19.8125 -21.890625 C 17.65625 -17.859375 14.351562 -15.289062 9.90625 -14.1875 C 9.28125 -14.039062 8.582031 -14.039062 7.8125 -14.1875 Z M 8.125 -15.328125 C 9.238281 -15.328125 10.109375 -15.46875 10.734375 -15.75 C 13.515625 -16.644531 15.84375 -18.3125 17.71875 -20.75 C 18.28125 -21.300781 18.734375 -22.066406 19.078125 -23.046875 L 19.390625 -24.078125 C 19.390625 -24.503906 19.359375 -24.820312 19.296875 -25.03125 C 19.296875 -25.789062 18.945312 -25.960938 18.25 -25.546875 C 14.769531 -23.460938 11.609375 -20.925781 8.765625 -17.9375 C 8.484375 -17.65625 8.304688 -17.410156 8.234375 -17.203125 C 8.097656 -17.066406 7.957031 -16.859375 7.8125 -16.578125 C 7.601562 -16.234375 7.550781 -15.9375 7.65625 -15.6875 C 7.757812 -15.445312 7.914062 -15.328125 8.125 -15.328125 Z M 8.125 -15.328125 "/></g></g></g><g fill="rgb(100%, 100%, 100%)" fill-opacity="1"><g transform="translate(146.029151, 108.600591)"><g><path d="M 12.40625 -28.671875 C 10.875 -28.253906 10.003906 -28.847656 9.796875 -30.453125 C 9.734375 -31.285156 9.804688 -32.222656 10.015625 -33.265625 C 10.148438 -34.023438 10.179688 -34.507812 10.109375 -34.71875 C 9.972656 -34.71875 9.832031 -34.679688 9.6875 -34.609375 C 9.550781 -34.546875 9.445312 -34.476562 9.375 -34.40625 C 9.3125 -34.332031 9.226562 -34.242188 9.125 -34.140625 C 9.019531 -34.035156 8.929688 -33.953125 8.859375 -33.890625 C 7.265625 -32.492188 5.804688 -31.484375 4.484375 -30.859375 C 3.992188 -30.585938 3.507812 -30.34375 3.03125 -30.125 C 2.332031 -29.914062 1.789062 -29.984375 1.40625 -30.328125 C 1.019531 -30.679688 0.898438 -31.207031 1.046875 -31.90625 C 1.046875 -32.039062 1.113281 -32.316406 1.25 -32.734375 C 1.664062 -33.710938 2.289062 -34.515625 3.125 -35.140625 C 4.582031 -36.179688 6.039062 -36.179688 7.5 -35.140625 L 7.609375 -35.03125 L 7.71875 -35.03125 C 8.207031 -34.6875 8.625 -34.6875 8.96875 -35.03125 L 10.953125 -37.015625 C 11.296875 -37.296875 11.570312 -37.332031 11.78125 -37.125 C 11.988281 -36.914062 12.023438 -36.738281 11.890625 -36.59375 C 11.816406 -36.039062 11.640625 -35.207031 11.359375 -34.09375 C 11.015625 -32.769531 10.878906 -31.554688 10.953125 -30.453125 C 11.015625 -29.890625 11.359375 -29.644531 11.984375 -29.71875 C 13.023438 -29.851562 15.804688 -31 20.328125 -33.15625 C 20.609375 -33.15625 20.785156 -33.085938 20.859375 -32.953125 C 20.992188 -32.597656 20.816406 -32.285156 20.328125 -32.015625 C 16.710938 -30.203125 14.070312 -29.085938 12.40625 -28.671875 Z M 3.546875 -31.484375 C 4.304688 -31.765625 5.101562 -32.148438 5.9375 -32.640625 C 6.425781 -32.984375 6.707031 -33.257812 6.78125 -33.46875 C 6.84375 -33.601562 6.753906 -33.722656 6.515625 -33.828125 C 6.273438 -33.929688 5.976562 -33.984375 5.625 -33.984375 C 5.070312 -33.847656 4.65625 -33.710938 4.375 -33.578125 C 3.539062 -32.953125 2.984375 -32.289062 2.703125 -31.59375 C 3.054688 -31.3125 3.335938 -31.273438 3.546875 -31.484375 Z M 3.546875 -31.484375 "/></g></g></g><g fill="rgb(100%, 100%, 100%)" fill-opacity="1"><g transform="translate(164.795101, 108.600591)"><g/></g></g><g fill="rgb(100%, 100%, 100%)" fill-opacity="1"><g transform="translate(193.986583, 108.600591)"><g><path d="M 3.34375 -27 C 2.988281 -27.070312 2.5 -27.109375 1.875 -27.109375 C 0.0703125 -27.390625 -0.722656 -28.429688 -0.515625 -30.234375 C -0.515625 -30.722656 -0.34375 -31.316406 0 -32.015625 C 1.113281 -34.023438 2.851562 -35.414062 5.21875 -36.1875 C 5.5625 -36.25 6.082031 -36.28125 6.78125 -36.28125 C 6.84375 -36.28125 7.082031 -36.175781 7.5 -35.96875 C 7.78125 -35.757812 7.882812 -35.515625 7.8125 -35.234375 C 7.675781 -34.960938 7.539062 -34.828125 7.40625 -34.828125 L 6.46875 -34.515625 C 4.863281 -34.160156 3.4375 -33.222656 2.1875 -31.703125 C 2.050781 -31.554688 1.84375 -31.273438 1.5625 -30.859375 C 0.65625 -29.191406 1.109375 -28.253906 2.921875 -28.046875 C 3.617188 -27.972656 4.660156 -28.007812 6.046875 -28.15625 C 8.546875 -28.632812 11.570312 -29.640625 15.125 -31.171875 C 15.882812 -31.453125 17.03125 -31.941406 18.5625 -32.640625 L 19.609375 -32.953125 C 19.816406 -32.953125 19.953125 -32.8125 20.015625 -32.53125 C 20.015625 -32.320312 19.984375 -32.21875 19.921875 -32.21875 C 19.640625 -31.9375 19.394531 -31.765625 19.1875 -31.703125 C 18.070312 -31.285156 16.453125 -30.691406 14.328125 -29.921875 C 12.210938 -29.160156 10.597656 -28.570312 9.484375 -28.15625 C 9.273438 -28.082031 8.0625 -27.769531 5.84375 -27.21875 C 5.5625 -27.144531 5.140625 -27.109375 4.578125 -27.109375 C 4.023438 -27.109375 3.613281 -27.070312 3.34375 -27 Z M 3.34375 -27 "/></g></g></g><g fill="rgb(100%, 100%, 100%)" fill-opacity="1"><g transform="translate(211.918484, 108.600591)"><g><path d="M 6.25 -20.75 C 4.789062 -20.882812 3.851562 -21.613281 3.4375 -22.9375 C 3.300781 -23.425781 3.234375 -24.257812 3.234375 -25.4375 C 3.304688 -26.0625 3.410156 -26.773438 3.546875 -27.578125 C 3.679688 -28.378906 3.765625 -28.914062 3.796875 -29.1875 C 3.835938 -29.46875 3.835938 -29.78125 3.796875 -30.125 C 3.765625 -30.476562 3.679688 -30.738281 3.546875 -30.90625 C 3.410156 -31.082031 3.203125 -31.273438 2.921875 -31.484375 C 2.222656 -31.898438 1.597656 -32.421875 1.046875 -33.046875 C -0.273438 -34.710938 -0.101562 -36.175781 1.5625 -37.4375 C 2.113281 -37.78125 2.648438 -37.828125 3.171875 -37.578125 C 3.703125 -37.335938 4 -36.90625 4.0625 -36.28125 C 4.132812 -36.007812 4.101562 -35.523438 3.96875 -34.828125 C 3.96875 -34.753906 3.789062 -34.300781 3.4375 -33.46875 C 3.226562 -33.1875 3.265625 -32.910156 3.546875 -32.640625 C 3.753906 -32.429688 3.925781 -32.289062 4.0625 -32.21875 C 5.25 -31.3125 5.804688 -29.988281 5.734375 -28.25 C 5.734375 -27.90625 5.710938 -27.382812 5.671875 -26.6875 C 5.640625 -26 5.625 -25.476562 5.625 -25.125 C 5.625 -24.707031 5.695312 -24.148438 5.84375 -23.453125 C 6.050781 -22.691406 6.570312 -22.3125 7.40625 -22.3125 C 7.957031 -22.382812 8.617188 -22.59375 9.390625 -22.9375 C 10.703125 -23.488281 12.019531 -24.320312 13.34375 -25.4375 C 13.96875 -25.925781 15.320312 -27.019531 17.40625 -28.71875 C 19.5 -30.425781 20.859375 -31.523438 21.484375 -32.015625 C 22.035156 -32.429688 22.484375 -32.742188 22.828125 -32.953125 C 22.898438 -33.015625 22.96875 -33.03125 23.03125 -33 C 23.101562 -32.96875 23.140625 -32.914062 23.140625 -32.84375 C 23.285156 -32.707031 23.320312 -32.601562 23.25 -32.53125 C 23.039062 -32.1875 22.898438 -31.976562 22.828125 -31.90625 C 21.929688 -31.144531 20.25 -29.769531 17.78125 -27.78125 C 15.3125 -25.800781 13.832031 -24.640625 13.34375 -24.296875 C 12.164062 -23.253906 10.640625 -22.28125 8.765625 -21.375 C 8.066406 -20.957031 7.226562 -20.75 6.25 -20.75 Z M 2.078125 -33.984375 L 2.296875 -34.09375 L 2.5 -34.203125 C 2.851562 -34.753906 3.03125 -35.3125 3.03125 -35.875 C 3.03125 -36.007812 2.921875 -36.179688 2.703125 -36.390625 C 2.566406 -36.523438 2.359375 -36.523438 2.078125 -36.390625 C 1.316406 -35.828125 1.210938 -35.128906 1.765625 -34.296875 Z M 2.078125 -33.984375 "/></g></g></g><g fill="rgb(100%, 100%, 100%)" fill-opacity="1"><g transform="translate(233.082309, 108.600591)"><g><path d="M 15.4375 -33.265625 C 15.644531 -33.265625 15.675781 -33.140625 15.53125 -32.890625 C 15.394531 -32.648438 15.082031 -32.53125 14.59375 -32.53125 L 8.765625 -32.21875 L 7.8125 -32.21875 C 7.8125 -32.144531 7.796875 -32.003906 7.765625 -31.796875 C 7.734375 -31.585938 7.71875 -31.414062 7.71875 -31.28125 C 7.4375 -30.164062 7.15625 -29.332031 6.875 -28.78125 C 6.457031 -27.945312 5.9375 -27.21875 5.3125 -26.59375 C 3.851562 -25.476562 2.566406 -25.648438 1.453125 -27.109375 C 0.828125 -27.804688 0.515625 -28.882812 0.515625 -30.34375 C 0.660156 -31.800781 1.253906 -33.222656 2.296875 -34.609375 C 3.054688 -35.378906 3.679688 -35.625 4.171875 -35.34375 C 4.304688 -35.269531 4.34375 -35.128906 4.28125 -34.921875 C 4.695312 -35.066406 5.039062 -35.140625 5.3125 -35.140625 C 6.5 -35.140625 7.265625 -34.515625 7.609375 -33.265625 L 8.765625 -33.265625 C 9.804688 -33.328125 11.679688 -33.359375 14.390625 -33.359375 C 14.460938 -33.359375 14.617188 -33.34375 14.859375 -33.3125 C 15.097656 -33.28125 15.289062 -33.265625 15.4375 -33.265625 Z M 6.5625 -33.265625 C 6.144531 -34.441406 5.554688 -34.820312 4.796875 -34.40625 C 4.585938 -34.269531 4.484375 -34.097656 4.484375 -33.890625 C 4.484375 -33.472656 5.175781 -33.265625 6.5625 -33.265625 Z M 5.109375 -27.84375 C 6.078125 -28.738281 6.632812 -30.023438 6.78125 -31.703125 L 6.78125 -32.21875 C 4.757812 -32.351562 3.75 -32.910156 3.75 -33.890625 L 3.75 -34.203125 C 2.570312 -32.597656 2.222656 -30.71875 2.703125 -28.5625 C 2.847656 -27.875 3.160156 -27.457031 3.640625 -27.3125 C 4.128906 -27.175781 4.617188 -27.351562 5.109375 -27.84375 Z M 5.109375 -27.84375 "/></g></g></g><g fill="rgb(100%, 100%, 100%)" fill-opacity="1"><g transform="translate(246.635493, 108.600591)"><g><path d="M 3.34375 -27 C 2.988281 -27.070312 2.5 -27.109375 1.875 -27.109375 C 0.0703125 -27.390625 -0.722656 -28.429688 -0.515625 -30.234375 C -0.515625 -30.722656 -0.34375 -31.316406 0 -32.015625 C 1.113281 -34.023438 2.851562 -35.414062 5.21875 -36.1875 C 5.5625 -36.25 6.082031 -36.28125 6.78125 -36.28125 C 6.84375 -36.28125 7.082031 -36.175781 7.5 -35.96875 C 7.78125 -35.757812 7.882812 -35.515625 7.8125 -35.234375 C 7.675781 -34.960938 7.539062 -34.828125 7.40625 -34.828125 L 6.46875 -34.515625 C 4.863281 -34.160156 3.4375 -33.222656 2.1875 -31.703125 C 2.050781 -31.554688 1.84375 -31.273438 1.5625 -30.859375 C 0.65625 -29.191406 1.109375 -28.253906 2.921875 -28.046875 C 3.617188 -27.972656 4.660156 -28.007812 6.046875 -28.15625 C 8.546875 -28.632812 11.570312 -29.640625 15.125 -31.171875 C 15.882812 -31.453125 17.03125 -31.941406 18.5625 -32.640625 L 19.609375 -32.953125 C 19.816406 -32.953125 19.953125 -32.8125 20.015625 -32.53125 C 20.015625 -32.320312 19.984375 -32.21875 19.921875 -32.21875 C 19.640625 -31.9375 19.394531 -31.765625 19.1875 -31.703125 C 18.070312 -31.285156 16.453125 -30.691406 14.328125 -29.921875 C 12.210938 -29.160156 10.597656 -28.570312 9.484375 -28.15625 C 9.273438 -28.082031 8.0625 -27.769531 5.84375 -27.21875 C 5.5625 -27.144531 5.140625 -27.109375 4.578125 -27.109375 C 4.023438 -27.109375 3.613281 -27.070312 3.34375 -27 Z M 3.34375 -27 "/></g></g></g><g fill="rgb(100%, 100%, 100%)" fill-opacity="1"><g transform="translate(264.567394, 108.600591)"><g><path d="M 1.671875 -17.3125 C 1.316406 -17.3125 1.140625 -17.484375 1.140625 -17.828125 C 1.078125 -18.109375 1.046875 -18.523438 1.046875 -19.078125 C 1.109375 -25.191406 1.488281 -31.625 2.1875 -38.375 C 2.882812 -44.695312 3.925781 -51.160156 5.3125 -57.765625 C 6.707031 -64.578125 8.65625 -70.414062 11.15625 -75.28125 C 12.269531 -77.363281 13.347656 -79.066406 14.390625 -80.390625 C 15.085938 -81.359375 15.957031 -82.257812 17 -83.09375 L 18.5625 -84.03125 C 19.882812 -84.59375 21.117188 -84.613281 22.265625 -84.09375 C 23.410156 -83.570312 24.15625 -82.613281 24.5 -81.21875 C 24.851562 -79.757812 24.957031 -78.234375 24.8125 -76.640625 C 24.113281 -69.265625 21.925781 -62 18.25 -54.84375 C 16.925781 -52.34375 15.914062 -50.484375 15.21875 -49.265625 C 14.53125 -48.046875 13.90625 -46.894531 13.34375 -45.8125 C 12.789062 -44.738281 12.203125 -43.769531 11.578125 -42.90625 C 10.953125 -42.039062 10.429688 -41.3125 10.015625 -40.71875 C 9.597656 -40.125 8.757812 -39.007812 7.5 -37.375 C 6.25 -35.738281 5.140625 -34.296875 4.171875 -33.046875 C 3.546875 -32.359375 3.476562 -31.457031 3.96875 -30.34375 C 7.164062 -36.457031 10.1875 -40.175781 13.03125 -41.5 C 14.425781 -42.050781 15.46875 -42.046875 16.15625 -41.484375 C 16.851562 -40.929688 17.132812 -39.894531 17 -38.375 C 16.925781 -37.601562 16.472656 -36.59375 15.640625 -35.34375 C 13.410156 -32.21875 10.695312 -30.03125 7.5 -28.78125 L 5.84375 -28.15625 C 5.90625 -27.800781 6.179688 -27.554688 6.671875 -27.421875 C 8.753906 -26.660156 11.082031 -26.28125 13.65625 -26.28125 C 18.59375 -26.28125 22.9375 -27.738281 26.6875 -30.65625 C 26.757812 -30.726562 27.125 -31.003906 27.78125 -31.484375 C 28.445312 -31.972656 28.953125 -32.359375 29.296875 -32.640625 C 29.429688 -32.847656 29.675781 -32.984375 30.03125 -33.046875 L 30.125 -32.953125 C 30.269531 -32.804688 30.34375 -32.703125 30.34375 -32.640625 C 30.195312 -32.359375 30.09375 -32.179688 30.03125 -32.109375 C 23.351562 -25.859375 15.738281 -23.8125 7.1875 -25.96875 C 6.914062 -26.03125 6.625 -26.113281 6.3125 -26.21875 C 6 -26.320312 5.648438 -26.441406 5.265625 -26.578125 C 4.878906 -26.722656 4.582031 -26.832031 4.375 -26.90625 C 4.101562 -27.039062 3.894531 -26.96875 3.75 -26.6875 C 3.40625 -25.851562 3.195312 -25.054688 3.125 -24.296875 L 2.8125 -19.078125 C 2.675781 -18.242188 2.535156 -17.757812 2.390625 -17.625 C 2.328125 -17.414062 2.085938 -17.3125 1.671875 -17.3125 Z M 4.171875 -35.140625 C 4.378906 -35.203125 4.566406 -35.320312 4.734375 -35.5 C 4.910156 -35.675781 5.066406 -35.867188 5.203125 -36.078125 C 5.347656 -36.285156 5.457031 -36.425781 5.53125 -36.5 C 9.414062 -41.5 13.65625 -48.515625 18.25 -57.546875 C 21.03125 -63.046875 22.800781 -68.921875 23.5625 -75.171875 C 23.84375 -77.253906 23.84375 -78.992188 23.5625 -80.390625 C 23.21875 -81.921875 22.503906 -82.804688 21.421875 -83.046875 C 20.347656 -83.285156 19.394531 -82.988281 18.5625 -82.15625 L 17.828125 -81.4375 C 16.992188 -80.664062 16.125 -79.585938 15.21875 -78.203125 C 13.6875 -75.765625 12.191406 -72.632812 10.734375 -68.8125 C 9.347656 -64.988281 8.097656 -60.4375 6.984375 -55.15625 C 5.734375 -49.382812 4.796875 -43.546875 4.171875 -37.640625 C 4.035156 -36.597656 4.035156 -35.765625 4.171875 -35.140625 Z M 5.109375 -29.5 L 5.734375 -29.5 C 9.554688 -30.550781 12.6875 -32.988281 15.125 -36.8125 C 15.46875 -37.363281 15.707031 -38.019531 15.84375 -38.78125 C 15.988281 -39.613281 15.816406 -40.238281 15.328125 -40.65625 C 14.910156 -40.9375 14.316406 -40.867188 13.546875 -40.453125 C 12.160156 -39.960938 10.804688 -38.921875 9.484375 -37.328125 C 8.097656 -35.660156 6.601562 -33.191406 5 -29.921875 L 5 -29.8125 C 5.070312 -29.675781 5.109375 -29.570312 5.109375 -29.5 Z M 5.109375 -29.5 "/></g></g></g><g fill="rgb(100%, 100%, 100%)" fill-opacity="1"><g transform="translate(292.820573, 108.600591)"><g><path d="M 3.34375 -24.921875 C 1.601562 -25.054688 0.523438 -26.03125 0.109375 -27.84375 C 0.0351562 -28.257812 0 -28.847656 0 -29.609375 C 0 -31.765625 0.453125 -33.640625 1.359375 -35.234375 C 1.910156 -36.078125 2.359375 -36.632812 2.703125 -36.90625 C 3.265625 -37.320312 3.894531 -37.53125 4.59375 -37.53125 C 5.351562 -37.53125 5.875 -37.253906 6.15625 -36.703125 C 6.570312 -36.078125 6.5 -35.414062 5.9375 -34.71875 C 4.6875 -33.394531 3.503906 -32.597656 2.390625 -32.328125 C 1.628906 -32.179688 1.179688 -31.625 1.046875 -30.65625 C 0.898438 -29.46875 1.003906 -28.492188 1.359375 -27.734375 C 1.773438 -26.691406 2.4375 -26.101562 3.34375 -25.96875 C 5.90625 -25.6875 9.378906 -27.734375 13.765625 -32.109375 L 14.703125 -33.046875 C 14.910156 -33.046875 15.050781 -33.015625 15.125 -32.953125 C 15.1875 -32.804688 15.21875 -32.703125 15.21875 -32.640625 C 15.21875 -32.429688 15.148438 -32.253906 15.015625 -32.109375 C 13.484375 -30.304688 11.519531 -28.640625 9.125 -27.109375 C 6.726562 -25.578125 4.800781 -24.847656 3.34375 -24.921875 Z M 1.875 -33.671875 C 3.332031 -34.367188 4.304688 -35.066406 4.796875 -35.765625 C 4.929688 -35.835938 4.929688 -35.941406 4.796875 -36.078125 C 4.796875 -36.210938 4.691406 -36.28125 4.484375 -36.28125 C 4.066406 -36.425781 3.6875 -36.320312 3.34375 -35.96875 C 2.570312 -35.34375 2.082031 -34.578125 1.875 -33.671875 Z M 1.875 -33.671875 "/></g></g></g><g fill="rgb(100%, 100%, 100%)" fill-opacity="1"><g transform="translate(305.956741, 108.600591)"><g><path d="M 46.390625 -58.390625 C 46.460938 -58.390625 46.5 -58.351562 46.5 -58.28125 C 46.5 -58.21875 46.460938 -58.1875 46.390625 -58.1875 L 45.984375 -57.765625 C 44.453125 -56.929688 43.0625 -56.335938 41.8125 -55.984375 C 39.03125 -55.359375 35.765625 -55.046875 32.015625 -55.046875 C 31.109375 -55.046875 27.507812 -55.082031 21.21875 -55.15625 C 14.925781 -55.226562 11.015625 -55.265625 9.484375 -55.265625 L 7.609375 -55.265625 C 6.492188 -50.953125 5.90625 -48.625 5.84375 -48.28125 C 4.175781 -41.320312 3.128906 -33.707031 2.703125 -25.4375 C 2.566406 -23.351562 2.707031 -21.410156 3.125 -19.609375 C 3.40625 -18.347656 3.6875 -17.476562 3.96875 -17 C 4.59375 -15.46875 5.703125 -15.050781 7.296875 -15.75 C 7.578125 -15.882812 7.992188 -16.160156 8.546875 -16.578125 C 10.285156 -17.753906 11.847656 -19.285156 13.234375 -21.171875 C 14.910156 -23.390625 17.347656 -26.796875 20.546875 -31.390625 C 21.378906 -32.429688 21.929688 -32.984375 22.203125 -33.046875 C 22.273438 -32.773438 22.289062 -32.601562 22.25 -32.53125 C 22.21875 -32.457031 22.046875 -32.195312 21.734375 -31.75 C 21.421875 -31.300781 21.234375 -31.039062 21.171875 -30.96875 C 18.597656 -27.28125 15.953125 -23.703125 13.234375 -20.234375 C 11.847656 -18.492188 10.460938 -17.066406 9.078125 -15.953125 C 8.515625 -15.460938 7.921875 -15.082031 7.296875 -14.8125 C 5.835938 -13.90625 4.484375 -14.21875 3.234375 -15.75 C 2.816406 -16.226562 2.429688 -16.957031 2.078125 -17.9375 C 1.390625 -20.019531 1.046875 -22.28125 1.046875 -24.71875 C 0.898438 -30.207031 1.242188 -35.519531 2.078125 -40.65625 C 2.710938 -45.039062 3.6875 -49.910156 5 -55.265625 C -0.488281 -55.265625 -6.253906 -54.953125 -12.296875 -54.328125 C -15.429688 -54.046875 -17.765625 -53.660156 -19.296875 -53.171875 C -20.960938 -52.546875 -21.96875 -51.882812 -22.3125 -51.1875 C -22.3125 -51.125 -22.414062 -51.09375 -22.625 -51.09375 C -22.832031 -51.300781 -22.9375 -51.472656 -22.9375 -51.609375 C -23.007812 -52.023438 -22.835938 -52.441406 -22.421875 -52.859375 C -21.929688 -53.273438 -21.269531 -53.625 -20.4375 -53.90625 C -19.039062 -54.457031 -17.195312 -54.875 -14.90625 -55.15625 C -8.445312 -55.914062 -2.296875 -56.296875 3.546875 -56.296875 L 5.21875 -56.296875 C 5.21875 -56.503906 5.269531 -56.816406 5.375 -57.234375 C 5.476562 -57.660156 5.5625 -58.007812 5.625 -58.28125 C 6.875 -62.9375 8.820312 -68.289062 11.46875 -74.34375 C 11.601562 -74.550781 11.773438 -74.894531 11.984375 -75.375 C 12.191406 -75.863281 12.367188 -76.25 12.515625 -76.53125 L 13.03125 -77.46875 C 13.445312 -78.164062 13.898438 -78.410156 14.390625 -78.203125 C 14.878906 -77.992188 15.019531 -77.503906 14.8125 -76.734375 C 14.738281 -76.253906 14.5625 -75.597656 14.28125 -74.765625 C 14.007812 -73.992188 13.609375 -72.910156 13.078125 -71.515625 C 12.554688 -70.128906 12.191406 -69.195312 11.984375 -68.71875 C 10.460938 -64.75 9.25 -61.203125 8.34375 -58.078125 L 7.8125 -56.203125 C 15.320312 -56.054688 20.816406 -55.984375 24.296875 -55.984375 C 25.203125 -55.984375 26.609375 -55.945312 28.515625 -55.875 C 30.429688 -55.8125 31.875 -55.78125 32.84375 -55.78125 C 34.863281 -55.78125 37.332031 -56.023438 40.25 -56.515625 C 41.707031 -56.859375 43.335938 -57.445312 45.140625 -58.28125 L 46.078125 -58.59375 C 46.148438 -58.59375 46.253906 -58.523438 46.390625 -58.390625 Z M 46.390625 -58.390625 "/></g></g></g><g fill="rgb(100%, 100%, 100%)" fill-opacity="1"><g transform="translate(325.869484, 108.600591)"><g><path d="M 46.390625 -58.390625 C 46.460938 -58.390625 46.5 -58.351562 46.5 -58.28125 C 46.5 -58.21875 46.460938 -58.1875 46.390625 -58.1875 L 45.984375 -57.765625 C 44.453125 -56.929688 43.0625 -56.335938 41.8125 -55.984375 C 39.03125 -55.359375 35.765625 -55.046875 32.015625 -55.046875 C 31.109375 -55.046875 27.507812 -55.082031 21.21875 -55.15625 C 14.925781 -55.226562 11.015625 -55.265625 9.484375 -55.265625 L 7.609375 -55.265625 C 6.492188 -50.953125 5.90625 -48.625 5.84375 -48.28125 C 4.175781 -41.320312 3.128906 -33.707031 2.703125 -25.4375 C 2.566406 -23.351562 2.707031 -21.410156 3.125 -19.609375 C 3.40625 -18.347656 3.6875 -17.476562 3.96875 -17 C 4.59375 -15.46875 5.703125 -15.050781 7.296875 -15.75 C 7.578125 -15.882812 7.992188 -16.160156 8.546875 -16.578125 C 10.285156 -17.753906 11.847656 -19.285156 13.234375 -21.171875 C 14.910156 -23.390625 17.347656 -26.796875 20.546875 -31.390625 C 21.378906 -32.429688 21.929688 -32.984375 22.203125 -33.046875 C 22.273438 -32.773438 22.289062 -32.601562 22.25 -32.53125 C 22.21875 -32.457031 22.046875 -32.195312 21.734375 -31.75 C 21.421875 -31.300781 21.234375 -31.039062 21.171875 -30.96875 C 18.597656 -27.28125 15.953125 -23.703125 13.234375 -20.234375 C 11.847656 -18.492188 10.460938 -17.066406 9.078125 -15.953125 C 8.515625 -15.460938 7.921875 -15.082031 7.296875 -14.8125 C 5.835938 -13.90625 4.484375 -14.21875 3.234375 -15.75 C 2.816406 -16.226562 2.429688 -16.957031 2.078125 -17.9375 C 1.390625 -20.019531 1.046875 -22.28125 1.046875 -24.71875 C 0.898438 -30.207031 1.242188 -35.519531 2.078125 -40.65625 C 2.710938 -45.039062 3.6875 -49.910156 5 -55.265625 C -0.488281 -55.265625 -6.253906 -54.953125 -12.296875 -54.328125 C -15.429688 -54.046875 -17.765625 -53.660156 -19.296875 -53.171875 C -20.960938 -52.546875 -21.96875 -51.882812 -22.3125 -51.1875 C -22.3125 -51.125 -22.414062 -51.09375 -22.625 -51.09375 C -22.832031 -51.300781 -22.9375 -51.472656 -22.9375 -51.609375 C -23.007812 -52.023438 -22.835938 -52.441406 -22.421875 -52.859375 C -21.929688 -53.273438 -21.269531 -53.625 -20.4375 -53.90625 C -19.039062 -54.457031 -17.195312 -54.875 -14.90625 -55.15625 C -8.445312 -55.914062 -2.296875 -56.296875 3.546875 -56.296875 L 5.21875 -56.296875 C 5.21875 -56.503906 5.269531 -56.816406 5.375 -57.234375 C 5.476562 -57.660156 5.5625 -58.007812 5.625 -58.28125 C 6.875 -62.9375 8.820312 -68.289062 11.46875 -74.34375 C 11.601562 -74.550781 11.773438 -74.894531 11.984375 -75.375 C 12.191406 -75.863281 12.367188 -76.25 12.515625 -76.53125 L 13.03125 -77.46875 C 13.445312 -78.164062 13.898438 -78.410156 14.390625 -78.203125 C 14.878906 -77.992188 15.019531 -77.503906 14.8125 -76.734375 C 14.738281 -76.253906 14.5625 -75.597656 14.28125 -74.765625 C 14.007812 -73.992188 13.609375 -72.910156 13.078125 -71.515625 C 12.554688 -70.128906 12.191406 -69.195312 11.984375 -68.71875 C 10.460938 -64.75 9.25 -61.203125 8.34375 -58.078125 L 7.8125 -56.203125 C 15.320312 -56.054688 20.816406 -55.984375 24.296875 -55.984375 C 25.203125 -55.984375 26.609375 -55.945312 28.515625 -55.875 C 30.429688 -55.8125 31.875 -55.78125 32.84375 -55.78125 C 34.863281 -55.78125 37.332031 -56.023438 40.25 -56.515625 C 41.707031 -56.859375 43.335938 -57.445312 45.140625 -58.28125 L 46.078125 -58.59375 C 46.148438 -58.59375 46.253906 -58.523438 46.390625 -58.390625 Z M 46.390625 -58.390625 "/></g></g></g><g fill="rgb(100%, 100%, 100%)" fill-opacity="1"><g transform="translate(94.937486, 116.275766)"><g><path d="M 3.953125 -4.90625 C 3.734375 -5.019531 3.503906 -5.113281 3.265625 -5.1875 C 3.023438 -5.257812 2.796875 -5.296875 2.578125 -5.296875 C 2.253906 -5.296875 1.992188 -5.222656 1.796875 -5.078125 C 1.609375 -4.929688 1.515625 -4.734375 1.515625 -4.484375 C 1.515625 -4.234375 1.625 -4.03125 1.84375 -3.875 C 2.070312 -3.71875 2.394531 -3.5625 2.8125 -3.40625 C 3.113281 -3.289062 3.367188 -3.171875 3.578125 -3.046875 C 3.796875 -2.921875 3.972656 -2.742188 4.109375 -2.515625 C 4.253906 -2.285156 4.328125 -1.992188 4.328125 -1.640625 C 4.328125 -1.316406 4.25 -1.023438 4.09375 -0.765625 C 3.9375 -0.503906 3.707031 -0.300781 3.40625 -0.15625 C 3.113281 -0.0078125 2.769531 0.0625 2.375 0.0625 C 2 0.0625 1.640625 0.00390625 1.296875 -0.109375 C 0.960938 -0.234375 0.664062 -0.382812 0.40625 -0.5625 L 0.765625 -1.203125 C 0.960938 -1.046875 1.203125 -0.910156 1.484375 -0.796875 C 1.773438 -0.691406 2.046875 -0.640625 2.296875 -0.640625 C 2.617188 -0.640625 2.898438 -0.722656 3.140625 -0.890625 C 3.378906 -1.054688 3.5 -1.300781 3.5 -1.625 C 3.5 -1.90625 3.394531 -2.125 3.1875 -2.28125 C 2.988281 -2.445312 2.707031 -2.601562 2.34375 -2.75 C 2.007812 -2.875 1.726562 -2.992188 1.5 -3.109375 C 1.28125 -3.234375 1.085938 -3.398438 0.921875 -3.609375 C 0.765625 -3.828125 0.6875 -4.09375 0.6875 -4.40625 C 0.6875 -4.875 0.847656 -5.253906 1.171875 -5.546875 C 1.503906 -5.835938 1.9375 -5.992188 2.46875 -6.015625 C 3.113281 -6.015625 3.707031 -5.851562 4.25 -5.53125 Z M 3.953125 -4.90625 "/></g></g></g><g fill="rgb(100%, 100%, 100%)" fill-opacity="1"><g transform="translate(102.074257, 116.275766)"><g><path d="M 0.484375 -2.984375 C 0.484375 -3.523438 0.617188 -4.03125 0.890625 -4.5 C 1.171875 -4.96875 1.546875 -5.34375 2.015625 -5.625 C 2.484375 -5.90625 2.988281 -6.046875 3.53125 -6.046875 C 4.082031 -6.046875 4.59375 -5.90625 5.0625 -5.625 C 5.53125 -5.34375 5.898438 -4.96875 6.171875 -4.5 C 6.453125 -4.03125 6.59375 -3.523438 6.59375 -2.984375 C 6.59375 -2.429688 6.453125 -1.921875 6.171875 -1.453125 C 5.898438 -0.984375 5.53125 -0.613281 5.0625 -0.34375 C 4.59375 -0.0703125 4.082031 0.0625 3.53125 0.0625 C 2.988281 0.0625 2.484375 -0.0703125 2.015625 -0.34375 C 1.546875 -0.613281 1.171875 -0.976562 0.890625 -1.4375 C 0.617188 -1.90625 0.484375 -2.421875 0.484375 -2.984375 Z M 1.3125 -2.96875 C 1.3125 -2.5625 1.410156 -2.1875 1.609375 -1.84375 C 1.804688 -1.5 2.078125 -1.222656 2.421875 -1.015625 C 2.765625 -0.804688 3.140625 -0.703125 3.546875 -0.703125 C 3.960938 -0.703125 4.335938 -0.800781 4.671875 -1 C 5.015625 -1.207031 5.28125 -1.484375 5.46875 -1.828125 C 5.664062 -2.179688 5.765625 -2.566406 5.765625 -2.984375 C 5.765625 -3.398438 5.664062 -3.78125 5.46875 -4.125 C 5.269531 -4.476562 5 -4.757812 4.65625 -4.96875 C 4.320312 -5.175781 3.945312 -5.28125 3.53125 -5.28125 C 3.125 -5.28125 2.75 -5.175781 2.40625 -4.96875 C 2.070312 -4.757812 1.804688 -4.476562 1.609375 -4.125 C 1.410156 -3.769531 1.3125 -3.382812 1.3125 -2.96875 Z M 1.3125 -2.96875 "/></g></g></g><g fill="rgb(100%, 100%, 100%)" fill-opacity="1"><g transform="translate(111.482571, 116.275766)"><g><path d="M 4.40625 -5.96875 L 4.40625 -5.203125 L 1.65625 -5.203125 L 1.65625 -3.3125 L 4.0625 -3.3125 L 4.0625 -2.53125 L 1.65625 -2.53125 L 1.65625 0 L 0.859375 0 L 0.859375 -5.96875 Z M 4.40625 -5.96875 "/></g></g></g><g fill="rgb(100%, 100%, 100%)" fill-opacity="1"><g transform="translate(118.677164, 116.275766)"><g><path d="M 4.390625 -5.96875 L 4.390625 -5.203125 L 2.78125 -5.203125 L 2.78125 0 L 1.984375 0 L 1.984375 -5.203125 L 0.421875 -5.203125 L 0.421875 -5.96875 Z M 4.390625 -5.96875 "/></g></g></g><g fill="rgb(100%, 100%, 100%)" fill-opacity="1"><g transform="translate(125.813935, 116.275766)"><g><path d="M 5.640625 0.265625 L 4.25 -3.3125 L 2.71875 0.28125 L 0.34375 -5.953125 L 1.265625 -5.953125 L 2.8125 -1.609375 L 3.859375 -4.3125 L 3.21875 -5.953125 L 4.015625 -5.953125 L 5.671875 -1.6875 L 7.140625 -5.953125 L 8 -5.953125 Z M 5.640625 0.265625 "/></g></g></g><g fill="rgb(100%, 100%, 100%)" fill-opacity="1"><g transform="translate(136.469533, 116.275766)"><g><path d="M 4 -1.578125 L 1.6875 -1.578125 L 1.0625 0 L 0.265625 0 L 2.875 -6.21875 L 2.921875 -6.21875 L 5.53125 0 L 4.609375 0 Z M 3.71875 -2.265625 L 2.875 -4.453125 L 1.984375 -2.265625 Z M 3.71875 -2.265625 "/></g></g></g><g fill="rgb(100%, 100%, 100%)" fill-opacity="1"><g transform="translate(144.589265, 116.275766)"><g><path d="M 4.15625 0 L 2.75 -2.203125 C 2.695312 -2.203125 2.628906 -2.203125 2.546875 -2.203125 L 1.65625 -2.203125 L 1.65625 0 L 0.859375 0 L 0.859375 -5.96875 L 2.453125 -5.96875 C 2.859375 -5.96875 3.222656 -5.894531 3.546875 -5.75 C 3.867188 -5.613281 4.117188 -5.40625 4.296875 -5.125 C 4.484375 -4.851562 4.578125 -4.519531 4.578125 -4.125 C 4.578125 -3.757812 4.492188 -3.421875 4.328125 -3.109375 C 4.160156 -2.796875 3.910156 -2.5625 3.578125 -2.40625 L 5.078125 0 Z M 2.53125 -2.96875 C 2.957031 -2.96875 3.265625 -3.082031 3.453125 -3.3125 C 3.648438 -3.539062 3.75 -3.800781 3.75 -4.09375 C 3.75 -4.269531 3.707031 -4.441406 3.625 -4.609375 C 3.539062 -4.785156 3.410156 -4.925781 3.234375 -5.03125 C 3.066406 -5.144531 2.851562 -5.203125 2.59375 -5.203125 L 1.65625 -5.203125 L 1.65625 -2.96875 Z M 2.53125 -2.96875 "/></g></g></g><g fill="rgb(100%, 100%, 100%)" fill-opacity="1"><g transform="translate(152.37033, 116.275766)"><g><path d="M 4.75 -5.96875 L 4.75 -5.203125 L 1.65625 -5.203125 L 1.65625 -3.390625 L 4.40625 -3.390625 L 4.40625 -2.625 L 1.65625 -2.625 L 1.65625 -0.78125 L 4.859375 -0.78125 L 4.859375 0 L 0.859375 0 L 0.859375 -5.96875 Z M 4.75 -5.96875 "/></g></g></g><g fill="rgb(100%, 100%, 100%)" fill-opacity="1"><g transform="translate(160.093396, 116.275766)"><g/></g></g><g fill="rgb(100%, 100%, 100%)" fill-opacity="1"><g transform="translate(165.032957, 116.275766)"><g/></g></g><g fill="rgb(100%, 100%, 100%)" fill-opacity="1"><g transform="translate(169.966808, 116.275766)"><g><path d="M 4.625 0 L 4.140625 -0.65625 C 3.960938 -0.4375 3.726562 -0.257812 3.4375 -0.125 C 3.144531 0.0078125 2.816406 0.078125 2.453125 0.078125 C 2.078125 0.078125 1.738281 0.00390625 1.4375 -0.140625 C 1.132812 -0.296875 0.894531 -0.507812 0.71875 -0.78125 C 0.550781 -1.050781 0.46875 -1.351562 0.46875 -1.6875 C 0.46875 -1.96875 0.535156 -2.226562 0.671875 -2.46875 C 0.816406 -2.707031 1.007812 -2.910156 1.25 -3.078125 C 1.488281 -3.253906 1.75 -3.378906 2.03125 -3.453125 L 1.765625 -3.796875 C 1.484375 -4.203125 1.34375 -4.570312 1.34375 -4.90625 C 1.34375 -5.132812 1.398438 -5.351562 1.515625 -5.5625 C 1.640625 -5.78125 1.8125 -5.953125 2.03125 -6.078125 C 2.257812 -6.203125 2.519531 -6.265625 2.8125 -6.265625 C 3.113281 -6.265625 3.394531 -6.203125 3.65625 -6.078125 C 3.925781 -5.960938 4.148438 -5.8125 4.328125 -5.625 L 3.921875 -5.078125 C 3.546875 -5.421875 3.21875 -5.59375 2.9375 -5.59375 C 2.707031 -5.59375 2.519531 -5.519531 2.375 -5.375 C 2.238281 -5.226562 2.171875 -5.050781 2.171875 -4.84375 C 2.171875 -4.644531 2.265625 -4.410156 2.453125 -4.140625 L 4.03125 -2.03125 L 4.609375 -3.515625 L 5.34375 -3.515625 L 4.515625 -1.390625 L 5.5625 0 Z M 2.546875 -0.640625 C 2.816406 -0.640625 3.046875 -0.691406 3.234375 -0.796875 C 3.429688 -0.898438 3.585938 -1.039062 3.703125 -1.21875 L 2.46875 -2.875 C 2.269531 -2.863281 2.078125 -2.804688 1.890625 -2.703125 C 1.710938 -2.597656 1.570312 -2.457031 1.46875 -2.28125 C 1.363281 -2.113281 1.3125 -1.925781 1.3125 -1.71875 C 1.3125 -1.40625 1.429688 -1.144531 1.671875 -0.9375 C 1.910156 -0.738281 2.203125 -0.640625 2.546875 -0.640625 Z M 2.546875 -0.640625 "/></g></g></g><g fill="rgb(100%, 100%, 100%)" fill-opacity="1"><g transform="translate(178.291448, 116.275766)"><g/></g></g><g fill="rgb(100%, 100%, 100%)" fill-opacity="1"><g transform="translate(183.231009, 116.275766)"><g/></g></g><g fill="rgb(100%, 100%, 100%)" fill-opacity="1"><g transform="translate(188.16486, 116.275766)"><g><path d="M 5.640625 0.265625 L 4.25 -3.3125 L 2.71875 0.28125 L 0.34375 -5.953125 L 1.265625 -5.953125 L 2.8125 -1.609375 L 3.859375 -4.3125 L 3.21875 -5.953125 L 4.015625 -5.953125 L 5.671875 -1.6875 L 7.140625 -5.953125 L 8 -5.953125 Z M 5.640625 0.265625 "/></g></g></g><g fill="rgb(100%, 100%, 100%)" fill-opacity="1"><g transform="translate(198.820458, 116.275766)"><g><path d="M 4.75 -5.96875 L 4.75 -5.203125 L 1.65625 -5.203125 L 1.65625 -3.390625 L 4.40625 -3.390625 L 4.40625 -2.625 L 1.65625 -2.625 L 1.65625 -0.78125 L 4.859375 -0.78125 L 4.859375 0 L 0.859375 0 L 0.859375 -5.96875 Z M 4.75 -5.96875 "/></g></g></g><g fill="rgb(100%, 100%, 100%)" fill-opacity="1"><g transform="translate(206.543701, 116.275766)"><g><path d="M 3.515625 -3.09375 C 3.859375 -2.96875 4.128906 -2.78125 4.328125 -2.53125 C 4.523438 -2.289062 4.625 -2.003906 4.625 -1.671875 C 4.625 -1.296875 4.53125 -0.984375 4.34375 -0.734375 C 4.164062 -0.484375 3.925781 -0.296875 3.625 -0.171875 C 3.320312 -0.0546875 2.992188 0 2.640625 0 L 0.859375 0 L 0.859375 -5.96875 L 2.40625 -5.96875 C 3.019531 -5.96875 3.492188 -5.84375 3.828125 -5.59375 C 4.160156 -5.34375 4.328125 -4.96875 4.328125 -4.46875 C 4.328125 -4.15625 4.253906 -3.878906 4.109375 -3.640625 C 3.972656 -3.410156 3.773438 -3.226562 3.515625 -3.09375 Z M 1.65625 -3.359375 L 2.578125 -3.359375 C 2.878906 -3.359375 3.109375 -3.445312 3.265625 -3.625 C 3.421875 -3.800781 3.5 -4.03125 3.5 -4.3125 C 3.5 -4.613281 3.40625 -4.835938 3.21875 -4.984375 C 3.03125 -5.128906 2.769531 -5.203125 2.4375 -5.203125 L 1.65625 -5.203125 Z M 2.609375 -0.75 C 2.953125 -0.75 3.234375 -0.828125 3.453125 -0.984375 C 3.679688 -1.140625 3.796875 -1.367188 3.796875 -1.671875 C 3.796875 -1.984375 3.671875 -2.210938 3.421875 -2.359375 C 3.179688 -2.515625 2.890625 -2.59375 2.546875 -2.59375 L 1.65625 -2.59375 L 1.65625 -0.75 Z M 2.609375 -0.75 "/></g></g></g><g fill="rgb(100%, 100%, 100%)" fill-opacity="1"><g transform="translate(213.986097, 116.275766)"><g/></g></g><g fill="rgb(100%, 100%, 100%)" fill-opacity="1"><g transform="translate(218.925657, 116.275766)"><g><path d="M 0.859375 -5.96875 L 2.5 -5.96875 C 3.238281 -5.96875 3.851562 -5.820312 4.34375 -5.53125 C 4.832031 -5.238281 5.1875 -4.859375 5.40625 -4.390625 C 5.632812 -3.921875 5.75 -3.429688 5.75 -2.921875 C 5.75 -2.335938 5.613281 -1.820312 5.34375 -1.375 C 5.070312 -0.9375 4.707031 -0.597656 4.25 -0.359375 C 3.800781 -0.117188 3.3125 0 2.78125 0 L 0.859375 0 Z M 2.625 -0.78125 C 3.070312 -0.78125 3.46875 -0.863281 3.8125 -1.03125 C 4.15625 -1.207031 4.425781 -1.460938 4.625 -1.796875 C 4.820312 -2.128906 4.921875 -2.519531 4.921875 -2.96875 C 4.921875 -3.4375 4.816406 -3.835938 4.609375 -4.171875 C 4.410156 -4.515625 4.140625 -4.769531 3.796875 -4.9375 C 3.460938 -5.113281 3.097656 -5.203125 2.703125 -5.203125 L 1.65625 -5.203125 L 1.65625 -0.78125 Z M 2.625 -0.78125 "/></g></g></g><g fill="rgb(100%, 100%, 100%)" fill-opacity="1"><g transform="translate(227.483174, 116.275766)"><g><path d="M 4.75 -5.96875 L 4.75 -5.203125 L 1.65625 -5.203125 L 1.65625 -3.390625 L 4.40625 -3.390625 L 4.40625 -2.625 L 1.65625 -2.625 L 1.65625 -0.78125 L 4.859375 -0.78125 L 4.859375 0 L 0.859375 0 L 0.859375 -5.96875 Z M 4.75 -5.96875 "/></g></g></g><g fill="rgb(100%, 100%, 100%)" fill-opacity="1"><g transform="translate(235.206418, 116.275766)"><g><path d="M 3.953125 -4.90625 C 3.734375 -5.019531 3.503906 -5.113281 3.265625 -5.1875 C 3.023438 -5.257812 2.796875 -5.296875 2.578125 -5.296875 C 2.253906 -5.296875 1.992188 -5.222656 1.796875 -5.078125 C 1.609375 -4.929688 1.515625 -4.734375 1.515625 -4.484375 C 1.515625 -4.234375 1.625 -4.03125 1.84375 -3.875 C 2.070312 -3.71875 2.394531 -3.5625 2.8125 -3.40625 C 3.113281 -3.289062 3.367188 -3.171875 3.578125 -3.046875 C 3.796875 -2.921875 3.972656 -2.742188 4.109375 -2.515625 C 4.253906 -2.285156 4.328125 -1.992188 4.328125 -1.640625 C 4.328125 -1.316406 4.25 -1.023438 4.09375 -0.765625 C 3.9375 -0.503906 3.707031 -0.300781 3.40625 -0.15625 C 3.113281 -0.0078125 2.769531 0.0625 2.375 0.0625 C 2 0.0625 1.640625 0.00390625 1.296875 -0.109375 C 0.960938 -0.234375 0.664062 -0.382812 0.40625 -0.5625 L 0.765625 -1.203125 C 0.960938 -1.046875 1.203125 -0.910156 1.484375 -0.796875 C 1.773438 -0.691406 2.046875 -0.640625 2.296875 -0.640625 C 2.617188 -0.640625 2.898438 -0.722656 3.140625 -0.890625 C 3.378906 -1.054688 3.5 -1.300781 3.5 -1.625 C 3.5 -1.90625 3.394531 -2.125 3.1875 -2.28125 C 2.988281 -2.445312 2.707031 -2.601562 2.34375 -2.75 C 2.007812 -2.875 1.726562 -2.992188 1.5 -3.109375 C 1.28125 -3.234375 1.085938 -3.398438 0.921875 -3.609375 C 0.765625 -3.828125 0.6875 -4.09375 0.6875 -4.40625 C 0.6875 -4.875 0.847656 -5.253906 1.171875 -5.546875 C 1.503906 -5.835938 1.9375 -5.992188 2.46875 -6.015625 C 3.113281 -6.015625 3.707031 -5.851562 4.25 -5.53125 Z M 3.953125 -4.90625 "/></g></g></g><g fill="rgb(100%, 100%, 100%)" fill-opacity="1"><g transform="translate(242.343192, 116.275766)"><g><path d="M 1.65625 -5.96875 L 1.65625 0 L 0.859375 0 L 0.859375 -5.96875 Z M 1.65625 -5.96875 "/></g></g></g><g fill="rgb(100%, 100%, 100%)" fill-opacity="1"><g transform="translate(247.191891, 116.275766)"><g><path d="M 5.546875 -0.515625 C 5.367188 -0.367188 5.082031 -0.234375 4.6875 -0.109375 C 4.300781 0.00390625 3.941406 0.0625 3.609375 0.0625 C 2.984375 0.0625 2.429688 -0.0625 1.953125 -0.3125 C 1.484375 -0.570312 1.117188 -0.925781 0.859375 -1.375 C 0.609375 -1.820312 0.484375 -2.320312 0.484375 -2.875 C 0.484375 -3.53125 0.617188 -4.09375 0.890625 -4.5625 C 1.171875 -5.039062 1.546875 -5.40625 2.015625 -5.65625 C 2.484375 -5.914062 2.992188 -6.046875 3.546875 -6.046875 C 3.890625 -6.046875 4.207031 -6.003906 4.5 -5.921875 C 4.800781 -5.835938 5.070312 -5.734375 5.3125 -5.609375 L 5.046875 -4.875 C 4.867188 -4.96875 4.644531 -5.050781 4.375 -5.125 C 4.101562 -5.195312 3.863281 -5.234375 3.65625 -5.234375 C 3.1875 -5.234375 2.773438 -5.140625 2.421875 -4.953125 C 2.066406 -4.765625 1.789062 -4.5 1.59375 -4.15625 C 1.40625 -3.8125 1.3125 -3.40625 1.3125 -2.9375 C 1.3125 -2.507812 1.40625 -2.128906 1.59375 -1.796875 C 1.789062 -1.460938 2.066406 -1.203125 2.421875 -1.015625 C 2.773438 -0.828125 3.175781 -0.734375 3.625 -0.734375 C 3.832031 -0.734375 4.035156 -0.753906 4.234375 -0.796875 C 4.429688 -0.835938 4.597656 -0.894531 4.734375 -0.96875 L 4.734375 -2.15625 L 3.546875 -2.15625 L 3.546875 -2.921875 L 5.546875 -2.921875 Z M 5.546875 -0.515625 "/></g></g></g><g fill="rgb(100%, 100%, 100%)" fill-opacity="1"><g transform="translate(255.732888, 116.275766)"><g><path d="M 6.0625 -5.96875 L 6.0625 0.203125 L 6.046875 0.203125 L 1.65625 -4.25 L 1.671875 0 L 0.859375 0 L 0.859375 -6.15625 L 0.90625 -6.15625 L 5.28125 -1.65625 L 5.265625 -5.96875 Z M 6.0625 -5.96875 "/></g></g></g><g fill="rgb(100%, 100%, 100%)" fill-opacity="1"><g transform="translate(264.979569, 116.275766)"><g/></g></g></svg>