<svg xmlns="http://www.w3.org/2000/svg" xmlns:xlink="http://www.w3.org/1999/xlink" width="500" zoomAndPan="magnify" viewBox="0 0 375 374.999991" height="500" preserveAspectRatio="xMidYMid meet" version="1.0"><defs><g><g id="id1"/><g id="id2"/><g id="id3"/></g></defs><g fill="rgb(100%, 100%, 100%)" fill-opacity="1"><g transform="translate(90.656868, 247.685223)"><g><path d="M 3.84375 -3.609375 C 3.207031 -3.765625 2.726562 -4.40625 2.40625 -5.53125 C 2.40625 -6.332031 2.566406 -7.375 2.890625 -8.65625 C 3.523438 -12.976562 4.96875 -18.75 7.21875 -25.96875 C 8.019531 -28.53125 8.578125 -31.332031 8.890625 -34.375 C 9.535156 -49.769531 10.175781 -61.472656 10.8125 -69.484375 C 11.132812 -73.816406 11.695312 -79.867188 12.5 -87.640625 C 13.300781 -95.410156 13.785156 -100.335938 13.953125 -102.421875 L 16.34375 -126.46875 C 18.113281 -147.945312 20.359375 -164.9375 23.078125 -177.4375 L 24.28125 -182.96875 C 24.445312 -183.289062 24.648438 -183.769531 24.890625 -184.40625 C 25.128906 -185.050781 25.25 -185.457031 25.25 -185.625 C 25.40625 -186.101562 25.804688 -186.34375 26.453125 -186.34375 C 26.929688 -186.34375 27.488281 -186.019531 28.125 -185.375 C 28.289062 -184.894531 28.375 -183.773438 28.375 -182.015625 C 27.894531 -178.804688 27.332031 -173.992188 26.6875 -167.578125 C 25.40625 -157.160156 24.523438 -148.90625 24.046875 -142.8125 C 23.566406 -138.8125 22.960938 -132.722656 22.234375 -124.546875 C 21.515625 -116.367188 20.992188 -110.195312 20.671875 -106.03125 C 18.273438 -82.789062 16.675781 -66.363281 15.875 -56.75 L 15.875 -52.890625 C 16.675781 -53.378906 17.394531 -54.664062 18.03125 -56.75 C 22.519531 -69.25 31.578125 -92.171875 45.203125 -125.515625 C 50.972656 -139.296875 55.539062 -149.550781 58.90625 -156.28125 C 63.070312 -164.613281 67.238281 -171.585938 71.40625 -177.203125 C 72.207031 -178.328125 73.410156 -179.847656 75.015625 -181.765625 C 78.378906 -184.816406 80.546875 -184.175781 81.515625 -179.84375 C 81.828125 -178.238281 81.984375 -176.957031 81.984375 -176 C 81.984375 -170.550781 81.828125 -166.546875 81.515625 -163.984375 C 80.867188 -157.085938 78.941406 -143.78125 75.734375 -124.0625 C 72.847656 -106.59375 70.523438 -92.328125 68.765625 -81.265625 C 68.441406 -79.023438 68.039062 -75.738281 67.5625 -71.40625 C 67.082031 -67.082031 66.679688 -63.796875 66.359375 -61.546875 C 67.003906 -62.023438 67.726562 -63.148438 68.53125 -64.921875 C 71.25 -73.578125 74.050781 -81.03125 76.9375 -87.28125 C 78.539062 -90.96875 80.460938 -94.332031 82.703125 -97.375 C 83.671875 -98.820312 84.554688 -99.785156 85.359375 -100.265625 C 86.160156 -101.066406 87.082031 -101.382812 88.125 -101.21875 C 89.164062 -101.0625 89.925781 -100.421875 90.40625 -99.296875 C 91.039062 -97.378906 91.441406 -95.9375 91.609375 -94.96875 C 92.085938 -91.769531 92.648438 -86.398438 93.296875 -78.859375 C 94.253906 -71.804688 95.210938 -66.597656 96.171875 -63.234375 C 96.816406 -60.828125 97.78125 -58.664062 99.0625 -56.75 C 100.664062 -53.863281 102.910156 -51.859375 105.796875 -50.734375 C 108.035156 -49.773438 110.28125 -49.613281 112.53125 -50.25 C 116.851562 -51.207031 121.5 -53.53125 126.46875 -57.21875 C 132.5625 -62.1875 137.769531 -67.15625 142.09375 -72.125 C 142.570312 -72.613281 143.050781 -73.132812 143.53125 -73.6875 C 144.019531 -74.25 144.625 -74.847656 145.34375 -75.484375 C 146.0625 -76.128906 146.582031 -76.613281 146.90625 -76.9375 C 147.226562 -76.9375 147.46875 -76.851562 147.625 -76.6875 C 147.789062 -76.53125 147.875 -76.210938 147.875 -75.734375 L 146.1875 -73.578125 C 145.863281 -73.253906 145.019531 -72.25 143.65625 -70.5625 C 142.300781 -68.882812 141.378906 -67.800781 140.890625 -67.3125 C 140.410156 -66.832031 139.53125 -65.867188 138.25 -64.421875 C 136.96875 -62.984375 135.882812 -61.90625 135 -61.1875 C 134.125 -60.46875 133.003906 -59.546875 131.640625 -58.421875 C 130.273438 -57.304688 128.867188 -56.226562 127.421875 -55.1875 C 125.984375 -54.144531 124.460938 -53.140625 122.859375 -52.171875 C 119.972656 -50.410156 117.410156 -49.128906 115.171875 -48.328125 C 107.796875 -45.765625 101.863281 -47.609375 97.375 -53.859375 C 95.769531 -56.097656 94.410156 -58.984375 93.296875 -62.515625 C 92.328125 -66.203125 91.363281 -71.734375 90.40625 -79.109375 C 89.757812 -85.835938 89.195312 -90.960938 88.71875 -94.484375 C 88.71875 -94.972656 88.554688 -95.695312 88.234375 -96.65625 C 87.921875 -97.78125 87.28125 -98.019531 86.3125 -97.375 C 84.707031 -95.132812 83.503906 -93.375 82.703125 -92.09375 C 79.816406 -87.4375 76.9375 -81.101562 74.0625 -73.09375 C 73.257812 -70.851562 72.132812 -67.488281 70.6875 -63 C 69.25 -58.507812 68.128906 -55.140625 67.328125 -52.890625 C 67.328125 -52.734375 67.242188 -52.375 67.078125 -51.8125 C 66.921875 -51.25 66.757812 -50.847656 66.59375 -50.609375 C 66.4375 -50.367188 66.195312 -50.128906 65.875 -49.890625 C 65.5625 -49.648438 65.160156 -49.609375 64.671875 -49.765625 C 64.191406 -49.765625 63.867188 -49.925781 63.703125 -50.25 C 63.546875 -50.570312 63.425781 -50.851562 63.34375 -51.09375 C 63.269531 -51.332031 63.269531 -51.734375 63.34375 -52.296875 C 63.425781 -52.859375 63.46875 -53.21875 63.46875 -53.375 C 63.3125 -56.738281 63.796875 -63.632812 64.921875 -74.0625 C 66.359375 -85.4375 69.003906 -102.34375 72.859375 -124.78125 C 74.941406 -136.96875 76.863281 -149.789062 78.625 -163.25 C 79.425781 -168.863281 79.503906 -173.992188 78.859375 -178.640625 C 78.859375 -179.441406 78.617188 -180.003906 78.140625 -180.328125 C 77.660156 -180.484375 77.019531 -180.160156 76.21875 -179.359375 C 75.414062 -178.566406 74.375 -177.367188 73.09375 -175.765625 C 68.601562 -169.992188 63.875 -161.976562 58.90625 -151.71875 C 56.175781 -145.78125 49.601562 -130.472656 39.1875 -105.796875 C 31.007812 -85.921875 23.878906 -67.40625 17.796875 -50.25 C 15.710938 -44.644531 14.585938 -39.351562 14.421875 -34.375 C 13.941406 -25.082031 11.941406 -16.347656 8.421875 -8.171875 C 7.773438 -6.253906 6.972656 -4.894531 6.015625 -4.09375 C 5.367188 -3.445312 4.644531 -3.285156 3.84375 -3.609375 Z M 3.84375 -3.609375 "/></g></g></g><g fill="rgb(100%, 100%, 100%)" fill-opacity="1"><g transform="translate(190.690766, 287.280406)"><g><path d="M 27.765625 0 C 19.960938 -0.757812 14.226562 -4.050781 10.5625 -9.875 C 7.800781 -14.15625 5.960938 -18.972656 5.046875 -24.328125 C 2.597656 -35.960938 1.757812 -48.128906 2.53125 -60.828125 C 3.90625 -78.878906 8.414062 -97.085938 16.0625 -115.453125 C 19.738281 -124.328125 24.5625 -132.515625 30.53125 -140.015625 C 34.96875 -145.984375 40.9375 -151.335938 48.4375 -156.078125 C 51.03125 -157.765625 53.707031 -158.914062 56.46875 -159.53125 C 58.144531 -159.832031 59.675781 -159.675781 61.0625 -159.0625 C 61.820312 -158.757812 62.429688 -158.148438 62.890625 -157.234375 C 63.503906 -155.847656 63.195312 -155.15625 61.96875 -155.15625 C 58.445312 -155.46875 54.085938 -153.785156 48.890625 -150.109375 C 42.765625 -146.128906 37.023438 -140.238281 31.671875 -132.4375 C 24.484375 -121.570312 18.515625 -108.945312 13.765625 -94.5625 C 8.867188 -78.800781 6.347656 -64.1875 6.203125 -50.71875 C 5.890625 -39.863281 6.726562 -30.457031 8.71875 -22.5 C 9.332031 -19.738281 10.554688 -16.445312 12.390625 -12.625 C 16.679688 -4.664062 23.335938 -1.453125 32.359375 -2.984375 C 37.710938 -3.742188 42.535156 -5.582031 46.828125 -8.5 C 53.097656 -13.082031 58.144531 -18.128906 61.96875 -23.640625 C 65.945312 -29.304688 73.21875 -41.394531 83.78125 -59.90625 C 86.382812 -63.882812 88.601562 -67.710938 90.4375 -71.390625 L 91.359375 -72.296875 L 92.046875 -72.765625 C 92.347656 -72.453125 92.5 -72.144531 92.5 -71.84375 C 91.882812 -70.3125 91.347656 -69.238281 90.890625 -68.625 C 81.710938 -52.5625 74.0625 -39.328125 67.9375 -28.921875 C 62.425781 -19.585938 55.234375 -11.9375 46.359375 -5.96875 C 41.160156 -2.445312 34.960938 -0.457031 27.765625 0 Z M 27.765625 0 "/></g></g></g><g fill="rgb(100%, 100%, 100%)" fill-opacity="1"><g transform="translate(126.998836, 314.242422)"><g><path d="M 1.25 -8.671875 L 3.625 -8.671875 C 4.707031 -8.671875 5.601562 -8.457031 6.3125 -8.03125 C 7.019531 -7.601562 7.535156 -7.050781 7.859375 -6.375 C 8.179688 -5.695312 8.34375 -4.984375 8.34375 -4.234375 C 8.34375 -3.390625 8.144531 -2.644531 7.75 -2 C 7.351562 -1.363281 6.828125 -0.867188 6.171875 -0.515625 C 5.523438 -0.171875 4.816406 0 4.046875 0 L 1.25 0 Z M 3.8125 -1.125 C 4.457031 -1.125 5.03125 -1.25 5.53125 -1.5 C 6.03125 -1.757812 6.421875 -2.128906 6.703125 -2.609375 C 6.992188 -3.085938 7.140625 -3.65625 7.140625 -4.3125 C 7.140625 -5 6.988281 -5.582031 6.6875 -6.0625 C 6.394531 -6.550781 6.003906 -6.921875 5.515625 -7.171875 C 5.023438 -7.429688 4.492188 -7.5625 3.921875 -7.5625 L 2.40625 -7.5625 L 2.40625 -1.125 Z M 3.8125 -1.125 "/></g></g></g><g fill="rgb(100%, 100%, 100%)" fill-opacity="1"><g transform="translate(138.722855, 314.242422)"><g><path d="M 6.890625 -8.671875 L 6.890625 -7.5625 L 2.40625 -7.5625 L 2.40625 -4.921875 L 6.40625 -4.921875 L 6.40625 -3.796875 L 2.40625 -3.796875 L 2.40625 -1.125 L 7.0625 -1.125 L 7.0625 0 L 1.25 0 L 1.25 -8.671875 Z M 6.890625 -8.671875 "/></g></g></g><g fill="rgb(100%, 100%, 100%)" fill-opacity="1"><g transform="translate(149.234875, 314.242422)"><g><path d="M 8.140625 -8.671875 L 4.3125 0.40625 L 0.484375 -8.671875 L 1.875 -8.671875 L 4.375 -2.421875 L 6.78125 -8.671875 Z M 8.140625 -8.671875 "/></g></g></g><g fill="rgb(100%, 100%, 100%)" fill-opacity="1"><g transform="translate(160.538895, 314.242422)"><g><path d="M 6.890625 -8.671875 L 6.890625 -7.5625 L 2.40625 -7.5625 L 2.40625 -4.921875 L 6.40625 -4.921875 L 6.40625 -3.796875 L 2.40625 -3.796875 L 2.40625 -1.125 L 7.0625 -1.125 L 7.0625 0 L 1.25 0 L 1.25 -8.671875 Z M 6.890625 -8.671875 "/></g></g></g><g fill="rgb(100%, 100%, 100%)" fill-opacity="1"><g transform="translate(171.050916, 314.242422)"><g><path d="M 2.40625 -8.671875 L 2.40625 -1.125 L 6.828125 -1.125 L 6.828125 0 L 1.25 0 L 1.25 -8.671875 Z M 2.40625 -8.671875 "/></g></g></g><g fill="rgb(100%, 100%, 100%)" fill-opacity="1"><g transform="translate(181.190933, 314.242422)"><g><path d="M 0.703125 -4.328125 C 0.703125 -5.117188 0.898438 -5.851562 1.296875 -6.53125 C 1.703125 -7.21875 2.242188 -7.757812 2.921875 -8.15625 C 3.597656 -8.5625 4.335938 -8.765625 5.140625 -8.765625 C 5.929688 -8.765625 6.664062 -8.5625 7.34375 -8.15625 C 8.019531 -7.757812 8.5625 -7.21875 8.96875 -6.53125 C 9.375 -5.851562 9.578125 -5.117188 9.578125 -4.328125 C 9.578125 -3.523438 9.375 -2.785156 8.96875 -2.109375 C 8.570312 -1.429688 8.03125 -0.894531 7.34375 -0.5 C 6.664062 -0.101562 5.929688 0.09375 5.140625 0.09375 C 4.335938 0.09375 3.59375 -0.0976562 2.90625 -0.484375 C 2.226562 -0.878906 1.691406 -1.414062 1.296875 -2.09375 C 0.898438 -2.769531 0.703125 -3.515625 0.703125 -4.328125 Z M 1.90625 -4.3125 C 1.90625 -3.726562 2.046875 -3.179688 2.328125 -2.671875 C 2.617188 -2.171875 3.015625 -1.769531 3.515625 -1.46875 C 4.015625 -1.175781 4.5625 -1.03125 5.15625 -1.03125 C 5.75 -1.03125 6.289062 -1.175781 6.78125 -1.46875 C 7.28125 -1.757812 7.671875 -2.160156 7.953125 -2.671875 C 8.234375 -3.179688 8.375 -3.734375 8.375 -4.328125 C 8.375 -4.929688 8.226562 -5.488281 7.9375 -6 C 7.65625 -6.507812 7.265625 -6.910156 6.765625 -7.203125 C 6.273438 -7.503906 5.734375 -7.65625 5.140625 -7.65625 C 4.546875 -7.65625 4 -7.503906 3.5 -7.203125 C 3.007812 -6.898438 2.617188 -6.492188 2.328125 -5.984375 C 2.046875 -5.472656 1.90625 -4.914062 1.90625 -4.3125 Z M 1.90625 -4.3125 "/></g></g></g><g fill="rgb(100%, 100%, 100%)" fill-opacity="1"><g transform="translate(194.150949, 314.242422)"><g><path d="M 3.578125 -8.671875 C 4.515625 -8.671875 5.25 -8.4375 5.78125 -7.96875 C 6.320312 -7.5 6.59375 -6.835938 6.59375 -5.984375 C 6.59375 -5.492188 6.492188 -5.035156 6.296875 -4.609375 C 6.097656 -4.191406 5.78125 -3.847656 5.34375 -3.578125 C 4.90625 -3.316406 4.359375 -3.1875 3.703125 -3.1875 L 2.40625 -3.1875 L 2.40625 0 L 1.25 0 L 1.25 -8.671875 Z M 3.703125 -4.3125 C 4.109375 -4.3125 4.441406 -4.398438 4.703125 -4.578125 C 4.960938 -4.753906 5.148438 -4.96875 5.265625 -5.21875 C 5.378906 -5.476562 5.4375 -5.726562 5.4375 -5.96875 C 5.4375 -6.382812 5.300781 -6.753906 5.03125 -7.078125 C 4.757812 -7.398438 4.332031 -7.5625 3.75 -7.5625 L 2.40625 -7.5625 L 2.40625 -4.3125 Z M 3.703125 -4.3125 "/></g></g></g><g fill="rgb(100%, 100%, 100%)" fill-opacity="1"><g transform="translate(203.966963, 314.242422)"><g><path d="M 9.875 -8.953125 L 9.875 0 L 8.71875 0 L 8.71875 -5.609375 L 5.53125 -1.09375 L 5.515625 -1.09375 L 2.375 -5.453125 L 2.375 0 L 1.25 0 L 1.25 -8.953125 L 1.265625 -8.953125 L 5.53125 -2.90625 L 9.859375 -8.953125 Z M 9.875 -8.953125 "/></g></g></g><g fill="rgb(100%, 100%, 100%)" fill-opacity="1"><g transform="translate(217.766987, 314.242422)"><g><path d="M 6.890625 -8.671875 L 6.890625 -7.5625 L 2.40625 -7.5625 L 2.40625 -4.921875 L 6.40625 -4.921875 L 6.40625 -3.796875 L 2.40625 -3.796875 L 2.40625 -1.125 L 7.0625 -1.125 L 7.0625 0 L 1.25 0 L 1.25 -8.671875 Z M 6.890625 -8.671875 "/></g></g></g><g fill="rgb(100%, 100%, 100%)" fill-opacity="1"><g transform="translate(228.279008, 314.242422)"><g><path d="M 8.8125 -8.671875 L 8.8125 0.28125 L 8.765625 0.28125 L 2.40625 -6.1875 L 2.421875 0 L 1.25 0 L 1.25 -8.9375 L 1.3125 -8.9375 L 7.671875 -2.40625 L 7.640625 -8.671875 Z M 8.8125 -8.671875 "/></g></g></g><g fill="rgb(100%, 100%, 100%)" fill-opacity="1"><g transform="translate(241.011028, 314.242422)"><g><path d="M 6.375 -8.671875 L 6.375 -7.5625 L 4.046875 -7.5625 L 4.046875 0 L 2.875 0 L 2.875 -7.5625 L 0.609375 -7.5625 L 0.609375 -8.671875 Z M 6.375 -8.671875 "/></g></g></g></svg>