<svg xmlns="http://www.w3.org/2000/svg" xmlns:xlink="http://www.w3.org/1999/xlink" width="500" zoomAndPan="magnify" viewBox="0 0 375 149.999998" height="200" preserveAspectRatio="xMidYMid meet" version="1.0"><defs><g><g id="id1"/><g id="id2"/></g></defs><g fill="rgb(100%, 100%, 100%)" fill-opacity="1"><g transform="translate(28.139899, 103.330314)"><g><path d="M 2.625 -26.359375 C 1.8125 -25.890625 1.207031 -26.09375 0.8125 -26.96875 C 0.601562 -27.300781 0.5 -27.632812 0.5 -27.96875 C 0.5 -29.582031 0.769531 -31.03125 1.3125 -32.3125 L 1.609375 -32.625 C 1.816406 -32.820312 2.125 -32.882812 2.53125 -32.8125 C 2.726562 -32.75 2.828125 -32.515625 2.828125 -32.109375 C 2.828125 -31.640625 2.757812 -31.066406 2.625 -30.390625 C 2.625 -30.191406 2.609375 -29.941406 2.578125 -29.640625 C 2.546875 -29.335938 2.53125 -29.117188 2.53125 -28.984375 C 2.53125 -28.773438 2.597656 -28.671875 2.734375 -28.671875 L 3.125 -28.671875 C 3.601562 -29.148438 4.3125 -30.0625 5.25 -31.40625 C 6.394531 -33.289062 7.570312 -34.90625 8.78125 -36.25 C 9.050781 -36.59375 9.457031 -37.03125 10 -37.5625 C 10.132812 -37.769531 10.40625 -38.003906 10.8125 -38.265625 C 11.882812 -39.015625 12.519531 -38.78125 12.71875 -37.5625 C 12.789062 -37.289062 12.84375 -36.882812 12.875 -36.34375 C 12.90625 -35.8125 12.921875 -35.476562 12.921875 -35.34375 L 12.3125 -29.890625 C 12.25 -29.617188 12.21875 -29.179688 12.21875 -28.578125 C 12.21875 -28.242188 12.285156 -28.039062 12.421875 -27.96875 C 12.554688 -27.90625 12.757812 -28.007812 13.03125 -28.28125 C 13.164062 -28.476562 13.398438 -28.796875 13.734375 -29.234375 C 14.066406 -29.671875 14.300781 -29.988281 14.4375 -30.1875 C 15.25 -31.132812 16.023438 -31.8125 16.765625 -32.21875 C 17.703125 -32.6875 18.539062 -32.550781 19.28125 -31.8125 L 20.09375 -30.90625 C 20.632812 -30.300781 21.273438 -29.828125 22.015625 -29.484375 C 22.816406 -29.148438 23.660156 -29.1875 24.546875 -29.59375 C 25.148438 -29.863281 25.957031 -30.4375 26.96875 -31.3125 C 27.226562 -31.507812 27.476562 -31.675781 27.71875 -31.8125 C 27.957031 -31.945312 28.125 -32.015625 28.21875 -32.015625 C 28.320312 -32.015625 28.410156 -31.976562 28.484375 -31.90625 C 28.546875 -31.570312 28.273438 -31.171875 27.671875 -30.703125 C 26.992188 -30.023438 26.488281 -29.550781 26.15625 -29.28125 C 23.863281 -27.394531 21.539062 -27.632812 19.1875 -30 C 18.914062 -30.257812 18.578125 -30.660156 18.171875 -31.203125 C 17.972656 -31.472656 17.671875 -31.539062 17.265625 -31.40625 C 16.460938 -31.070312 15.820312 -30.566406 15.34375 -29.890625 C 15.144531 -29.691406 14.894531 -29.375 14.59375 -28.9375 C 14.289062 -28.5 14.070312 -28.175781 13.9375 -27.96875 C 13.53125 -27.4375 13.191406 -27.035156 12.921875 -26.765625 C 12.046875 -26.023438 11.472656 -26.191406 11.203125 -27.265625 C 11.140625 -27.535156 11.109375 -28.003906 11.109375 -28.671875 L 11.40625 -32.015625 C 11.539062 -32.816406 11.675781 -34.09375 11.8125 -35.84375 C 11.945312 -36.382812 11.914062 -36.859375 11.71875 -37.265625 C 11.582031 -37.535156 11.410156 -37.566406 11.203125 -37.359375 C 10.671875 -36.960938 10.203125 -36.492188 9.796875 -35.953125 C 8.722656 -34.804688 7.507812 -33.125 6.15625 -30.90625 C 5.21875 -29.414062 4.476562 -28.300781 3.9375 -27.5625 C 3.53125 -26.894531 3.09375 -26.492188 2.625 -26.359375 Z M 2.625 -26.359375 "/></g></g></g><g fill="rgb(100%, 100%, 100%)" fill-opacity="1"><g transform="translate(54.598232, 103.330314)"><g><path d="M 3.234375 -24.140625 C 1.546875 -24.273438 0.5 -25.21875 0.09375 -26.96875 C 0.03125 -27.363281 0 -27.929688 0 -28.671875 C 0 -30.765625 0.4375 -32.582031 1.3125 -34.125 C 1.851562 -34.9375 2.289062 -35.476562 2.625 -35.75 C 3.164062 -36.15625 3.769531 -36.359375 4.4375 -36.359375 C 5.175781 -36.359375 5.679688 -36.085938 5.953125 -35.546875 C 6.359375 -34.941406 6.289062 -34.300781 5.75 -33.625 C 4.539062 -32.34375 3.398438 -31.570312 2.328125 -31.3125 C 1.585938 -31.175781 1.148438 -30.632812 1.015625 -29.6875 C 0.878906 -28.539062 0.976562 -27.597656 1.3125 -26.859375 C 1.71875 -25.847656 2.359375 -25.273438 3.234375 -25.140625 C 5.722656 -24.867188 9.085938 -26.859375 13.328125 -31.109375 L 14.234375 -32.015625 C 14.441406 -32.015625 14.578125 -31.976562 14.640625 -31.90625 C 14.710938 -31.769531 14.75 -31.671875 14.75 -31.609375 C 14.75 -31.410156 14.679688 -31.242188 14.546875 -31.109375 C 13.054688 -29.359375 11.148438 -27.738281 8.828125 -26.25 C 6.515625 -24.769531 4.648438 -24.066406 3.234375 -24.140625 Z M 1.8125 -32.625 C 3.226562 -33.289062 4.171875 -33.960938 4.640625 -34.640625 C 4.773438 -34.703125 4.773438 -34.800781 4.640625 -34.9375 C 4.640625 -35.070312 4.539062 -35.140625 4.34375 -35.140625 C 3.9375 -35.273438 3.566406 -35.175781 3.234375 -34.84375 C 2.492188 -34.238281 2.019531 -33.5 1.8125 -32.625 Z M 1.8125 -32.625 "/></g></g></g><g fill="rgb(100%, 100%, 100%)" fill-opacity="1"><g transform="translate(67.322474, 103.330314)"><g><path d="M 10.09375 -21 C 6.863281 -21 4.410156 -22.484375 2.734375 -25.453125 C 2.660156 -25.722656 2.539062 -26.09375 2.375 -26.5625 C 2.207031 -27.03125 2.054688 -27.363281 1.921875 -27.5625 C 0.640625 -30.125 0.570312 -35.242188 1.71875 -42.921875 C 2.789062 -50.523438 4.910156 -57.929688 8.078125 -65.140625 C 9.359375 -68.035156 10.738281 -70.488281 12.21875 -72.5 C 12.894531 -73.445312 13.867188 -74.523438 15.140625 -75.734375 C 15.953125 -76.410156 16.863281 -77.019531 17.875 -77.5625 C 19.15625 -78.09375 20.398438 -78.085938 21.609375 -77.546875 C 22.816406 -77.015625 23.660156 -76.109375 24.140625 -74.828125 C 24.535156 -73.753906 24.734375 -72.375 24.734375 -70.6875 C 24.671875 -68.195312 24.132812 -65.570312 23.125 -62.8125 C 22.050781 -59.914062 20.203125 -56.179688 17.578125 -51.609375 C 14.273438 -45.878906 10.132812 -39.785156 5.15625 -33.328125 C 4.945312 -33.191406 4.707031 -32.921875 4.4375 -32.515625 C 4.175781 -32.109375 3.976562 -31.835938 3.84375 -31.703125 C 3.300781 -31.097656 3.128906 -30.425781 3.328125 -29.6875 C 4.003906 -27.53125 4.476562 -26.21875 4.75 -25.75 C 6.226562 -23.1875 8.445312 -22.007812 11.40625 -22.21875 C 14.238281 -22.550781 17.335938 -25.3125 20.703125 -30.5 C 20.835938 -30.832031 21.109375 -31.269531 21.515625 -31.8125 C 21.578125 -31.875 21.675781 -31.90625 21.8125 -31.90625 C 22.007812 -31.84375 22.109375 -31.675781 22.109375 -31.40625 C 21.910156 -31 21.8125 -30.796875 21.8125 -30.796875 C 18.238281 -24.472656 14.332031 -21.207031 10.09375 -21 Z M 3.234375 -32.71875 C 3.503906 -32.851562 3.972656 -33.359375 4.640625 -34.234375 C 5.179688 -35.046875 6.207031 -36.492188 7.71875 -38.578125 C 9.238281 -40.660156 10.398438 -42.273438 11.203125 -43.421875 C 15.046875 -49.140625 18.078125 -54.289062 20.296875 -58.875 C 22.046875 -62.3125 23.15625 -65.675781 23.625 -68.96875 C 23.894531 -71.257812 23.796875 -73.046875 23.328125 -74.328125 C 22.921875 -75.472656 22.210938 -76.226562 21.203125 -76.59375 C 20.191406 -76.96875 19.148438 -76.816406 18.078125 -76.140625 C 17.609375 -75.804688 16.96875 -75.234375 16.15625 -74.421875 C 14.34375 -72.535156 12.726562 -70.210938 11.3125 -67.453125 C 9.09375 -63.078125 7.238281 -58.195312 5.75 -52.8125 C 4.070312 -46.882812 3.128906 -40.722656 2.921875 -34.328125 C 2.921875 -33.523438 3.023438 -32.988281 3.234375 -32.71875 Z M 3.234375 -32.71875 "/></g></g></g><g fill="rgb(100%, 100%, 100%)" fill-opacity="1"><g transform="translate(87.014746, 103.330314)"><g><path d="M 3.125 -36.5625 C 2.925781 -36.5625 2.773438 -36.59375 2.671875 -36.65625 C 2.578125 -36.726562 2.5625 -36.828125 2.625 -36.953125 C 2.757812 -38.171875 3.097656 -39.179688 3.640625 -39.984375 C 3.640625 -40.054688 3.804688 -40.09375 4.140625 -40.09375 C 4.203125 -40.09375 4.335938 -39.988281 4.546875 -39.78125 C 4.609375 -39.644531 4.640625 -39.445312 4.640625 -39.1875 C 4.304688 -37.96875 4.070312 -37.257812 3.9375 -37.0625 C 3.738281 -36.726562 3.46875 -36.5625 3.125 -36.5625 Z M 2.828125 -25.953125 C 1.273438 -26.421875 0.5 -27.460938 0.5 -29.078125 C 0.5 -30.160156 0.738281 -31.140625 1.21875 -32.015625 C 1.414062 -32.421875 1.75 -32.585938 2.21875 -32.515625 C 2.6875 -32.378906 2.921875 -32.078125 2.921875 -31.609375 L 2.921875 -30.5 C 2.921875 -30.226562 2.890625 -29.992188 2.828125 -29.796875 L 2.828125 -29.484375 C 2.765625 -28.742188 2.953125 -28.15625 3.390625 -27.71875 C 3.828125 -27.28125 4.414062 -27.0625 5.15625 -27.0625 C 5.6875 -27.0625 6.359375 -27.226562 7.171875 -27.5625 C 8.378906 -28.039062 9.757812 -28.882812 11.3125 -30.09375 L 13.734375 -31.90625 C 14.066406 -32.113281 14.300781 -32.179688 14.4375 -32.109375 C 14.570312 -32.109375 14.640625 -32.003906 14.640625 -31.796875 C 14.640625 -31.597656 14.570312 -31.5 14.4375 -31.5 C 11.40625 -29.007812 8.914062 -27.296875 6.96875 -26.359375 C 5.550781 -25.679688 4.171875 -25.546875 2.828125 -25.953125 Z M 2.828125 -25.953125 "/></g></g></g><g fill="rgb(100%, 100%, 100%)" fill-opacity="1"><g transform="translate(99.638004, 103.330314)"><g><path d="M 7.578125 -13.734375 C 6.359375 -13.867188 5.921875 -14.539062 6.265625 -15.75 C 6.398438 -16.289062 6.597656 -16.695312 6.859375 -16.96875 C 7.535156 -17.90625 8.109375 -18.578125 8.578125 -18.984375 C 10.597656 -21.066406 12.851562 -22.953125 15.34375 -24.640625 L 17.375 -26.046875 C 15.550781 -26.660156 13.597656 -26.96875 11.515625 -26.96875 L 4.046875 -26.359375 C 3.234375 -26.359375 2.625 -26.425781 2.21875 -26.5625 C 0.875 -26.96875 0.300781 -27.738281 0.5 -28.875 C 0.707031 -31.03125 1.753906 -32.75 3.640625 -34.03125 C 3.972656 -34.300781 4.441406 -34.367188 5.046875 -34.234375 C 5.378906 -34.097656 5.628906 -33.84375 5.796875 -33.46875 C 5.972656 -33.101562 5.925781 -32.753906 5.65625 -32.421875 C 5.582031 -32.347656 5.515625 -32.257812 5.453125 -32.15625 C 5.390625 -32.0625 5.304688 -31.976562 5.203125 -31.90625 C 5.097656 -31.84375 5.015625 -31.773438 4.953125 -31.703125 C 4.609375 -31.304688 4.171875 -30.632812 3.640625 -29.6875 C 3.234375 -28.75 3.5 -28.242188 4.4375 -28.171875 C 5.050781 -28.035156 5.960938 -27.898438 7.171875 -27.765625 C 7.710938 -27.765625 8.46875 -27.78125 9.4375 -27.8125 C 10.414062 -27.851562 11.140625 -27.875 11.609375 -27.875 C 14.097656 -27.875 16.148438 -27.535156 17.765625 -26.859375 C 18.109375 -26.722656 18.550781 -26.789062 19.09375 -27.0625 L 27.171875 -31.8125 C 27.296875 -31.875 27.664062 -32.007812 28.28125 -32.21875 C 28.539062 -32.21875 28.707031 -32.113281 28.78125 -31.90625 C 28.976562 -31.707031 28.941406 -31.539062 28.671875 -31.40625 L 23.421875 -28.28125 L 19.796875 -26.15625 C 19.390625 -25.882812 19.285156 -25.546875 19.484375 -25.140625 C 19.960938 -23.859375 19.863281 -22.546875 19.1875 -21.203125 C 17.101562 -17.296875 13.90625 -14.804688 9.59375 -13.734375 C 8.988281 -13.597656 8.316406 -13.597656 7.578125 -13.734375 Z M 7.875 -14.84375 C 8.957031 -14.84375 9.800781 -14.976562 10.40625 -15.25 C 13.09375 -16.125 15.347656 -17.738281 17.171875 -20.09375 C 17.703125 -20.632812 18.140625 -21.375 18.484375 -22.3125 L 18.78125 -23.328125 C 18.78125 -23.734375 18.75 -24.035156 18.6875 -24.234375 C 18.6875 -24.972656 18.347656 -25.140625 17.671875 -24.734375 C 14.304688 -22.722656 11.242188 -20.269531 8.484375 -17.375 C 8.210938 -17.101562 8.046875 -16.863281 7.984375 -16.65625 C 7.847656 -16.519531 7.710938 -16.320312 7.578125 -16.0625 C 7.367188 -15.71875 7.316406 -15.425781 7.421875 -15.1875 C 7.523438 -14.957031 7.675781 -14.84375 7.875 -14.84375 Z M 7.875 -14.84375 "/></g></g></g><g fill="rgb(100%, 100%, 100%)" fill-opacity="1"><g transform="translate(126.500291, 103.330314)"><g><path d="M 7.578125 -13.734375 C 6.359375 -13.867188 5.921875 -14.539062 6.265625 -15.75 C 6.398438 -16.289062 6.597656 -16.695312 6.859375 -16.96875 C 7.535156 -17.90625 8.109375 -18.578125 8.578125 -18.984375 C 10.597656 -21.066406 12.851562 -22.953125 15.34375 -24.640625 L 17.375 -26.046875 C 15.550781 -26.660156 13.597656 -26.96875 11.515625 -26.96875 L 4.046875 -26.359375 C 3.234375 -26.359375 2.625 -26.425781 2.21875 -26.5625 C 0.875 -26.96875 0.300781 -27.738281 0.5 -28.875 C 0.707031 -31.03125 1.753906 -32.75 3.640625 -34.03125 C 3.972656 -34.300781 4.441406 -34.367188 5.046875 -34.234375 C 5.378906 -34.097656 5.628906 -33.84375 5.796875 -33.46875 C 5.972656 -33.101562 5.925781 -32.753906 5.65625 -32.421875 C 5.582031 -32.347656 5.515625 -32.257812 5.453125 -32.15625 C 5.390625 -32.0625 5.304688 -31.976562 5.203125 -31.90625 C 5.097656 -31.84375 5.015625 -31.773438 4.953125 -31.703125 C 4.609375 -31.304688 4.171875 -30.632812 3.640625 -29.6875 C 3.234375 -28.75 3.5 -28.242188 4.4375 -28.171875 C 5.050781 -28.035156 5.960938 -27.898438 7.171875 -27.765625 C 7.710938 -27.765625 8.46875 -27.78125 9.4375 -27.8125 C 10.414062 -27.851562 11.140625 -27.875 11.609375 -27.875 C 14.097656 -27.875 16.148438 -27.535156 17.765625 -26.859375 C 18.109375 -26.722656 18.550781 -26.789062 19.09375 -27.0625 L 27.171875 -31.8125 C 27.296875 -31.875 27.664062 -32.007812 28.28125 -32.21875 C 28.539062 -32.21875 28.707031 -32.113281 28.78125 -31.90625 C 28.976562 -31.707031 28.941406 -31.539062 28.671875 -31.40625 L 23.421875 -28.28125 L 19.796875 -26.15625 C 19.390625 -25.882812 19.285156 -25.546875 19.484375 -25.140625 C 19.960938 -23.859375 19.863281 -22.546875 19.1875 -21.203125 C 17.101562 -17.296875 13.90625 -14.804688 9.59375 -13.734375 C 8.988281 -13.597656 8.316406 -13.597656 7.578125 -13.734375 Z M 7.875 -14.84375 C 8.957031 -14.84375 9.800781 -14.976562 10.40625 -15.25 C 13.09375 -16.125 15.347656 -17.738281 17.171875 -20.09375 C 17.703125 -20.632812 18.140625 -21.375 18.484375 -22.3125 L 18.78125 -23.328125 C 18.78125 -23.734375 18.75 -24.035156 18.6875 -24.234375 C 18.6875 -24.972656 18.347656 -25.140625 17.671875 -24.734375 C 14.304688 -22.722656 11.242188 -20.269531 8.484375 -17.375 C 8.210938 -17.101562 8.046875 -16.863281 7.984375 -16.65625 C 7.847656 -16.519531 7.710938 -16.320312 7.578125 -16.0625 C 7.367188 -15.71875 7.316406 -15.425781 7.421875 -15.1875 C 7.523438 -14.957031 7.675781 -14.84375 7.875 -14.84375 Z M 7.875 -14.84375 "/></g></g></g><g fill="rgb(100%, 100%, 100%)" fill-opacity="1"><g transform="translate(153.362578, 103.330314)"><g><path d="M 12.015625 -27.765625 C 10.535156 -27.367188 9.695312 -27.941406 9.5 -29.484375 C 9.425781 -30.296875 9.488281 -31.207031 9.6875 -32.21875 C 9.820312 -32.957031 9.859375 -33.425781 9.796875 -33.625 C 9.660156 -33.625 9.523438 -33.585938 9.390625 -33.515625 C 9.253906 -33.453125 9.148438 -33.382812 9.078125 -33.3125 C 9.015625 -33.25 8.929688 -33.164062 8.828125 -33.0625 C 8.734375 -32.96875 8.648438 -32.882812 8.578125 -32.8125 C 7.035156 -31.46875 5.625 -30.492188 4.34375 -29.890625 C 3.875 -29.617188 3.398438 -29.382812 2.921875 -29.1875 C 2.253906 -28.976562 1.734375 -29.039062 1.359375 -29.375 C 0.992188 -29.71875 0.878906 -30.226562 1.015625 -30.90625 C 1.015625 -31.039062 1.082031 -31.304688 1.21875 -31.703125 C 1.613281 -32.648438 2.21875 -33.425781 3.03125 -34.03125 C 4.445312 -35.039062 5.859375 -35.039062 7.265625 -34.03125 L 7.375 -33.9375 L 7.46875 -33.9375 C 7.945312 -33.59375 8.351562 -33.59375 8.6875 -33.9375 L 10.609375 -35.84375 C 10.941406 -36.113281 11.207031 -36.144531 11.40625 -35.9375 C 11.613281 -35.738281 11.648438 -35.578125 11.515625 -35.453125 C 11.441406 -34.910156 11.269531 -34.097656 11 -33.015625 C 10.664062 -31.742188 10.535156 -30.566406 10.609375 -29.484375 C 10.671875 -28.941406 11.003906 -28.707031 11.609375 -28.78125 C 12.617188 -28.914062 15.3125 -30.023438 19.6875 -32.109375 C 19.957031 -32.109375 20.128906 -32.039062 20.203125 -31.90625 C 20.335938 -31.570312 20.164062 -31.269531 19.6875 -31 C 16.1875 -29.25 13.628906 -28.171875 12.015625 -27.765625 Z M 3.4375 -30.5 C 4.175781 -30.769531 4.945312 -31.140625 5.75 -31.609375 C 6.226562 -31.941406 6.5 -32.210938 6.5625 -32.421875 C 6.632812 -32.554688 6.550781 -32.671875 6.3125 -32.765625 C 6.070312 -32.867188 5.785156 -32.921875 5.453125 -32.921875 C 4.910156 -32.785156 4.503906 -32.648438 4.234375 -32.515625 C 3.429688 -31.910156 2.894531 -31.269531 2.625 -30.59375 C 2.957031 -30.320312 3.226562 -30.289062 3.4375 -30.5 Z M 3.4375 -30.5 "/></g></g></g><g fill="rgb(100%, 100%, 100%)" fill-opacity="1"><g transform="translate(171.540063, 103.330314)"><g/></g></g><g fill="rgb(100%, 100%, 100%)" fill-opacity="1"><g transform="translate(199.816154, 103.330314)"><g><path d="M 3.234375 -26.15625 C 2.898438 -26.21875 2.425781 -26.25 1.8125 -26.25 C 0.0625 -26.519531 -0.707031 -27.53125 -0.5 -29.28125 C -0.5 -29.757812 -0.332031 -30.332031 0 -31 C 1.070312 -32.957031 2.753906 -34.304688 5.046875 -35.046875 C 5.378906 -35.109375 5.882812 -35.140625 6.5625 -35.140625 C 6.632812 -35.140625 6.867188 -35.039062 7.265625 -34.84375 C 7.535156 -34.632812 7.640625 -34.394531 7.578125 -34.125 C 7.441406 -33.863281 7.304688 -33.734375 7.171875 -33.734375 L 6.265625 -33.421875 C 4.710938 -33.085938 3.332031 -32.179688 2.125 -30.703125 C 1.988281 -30.566406 1.785156 -30.296875 1.515625 -29.890625 C 0.640625 -28.273438 1.078125 -27.367188 2.828125 -27.171875 C 3.503906 -27.097656 4.515625 -27.128906 5.859375 -27.265625 C 8.285156 -27.734375 11.210938 -28.707031 14.640625 -30.1875 C 15.378906 -30.457031 16.488281 -30.929688 17.96875 -31.609375 L 18.984375 -31.90625 C 19.179688 -31.90625 19.316406 -31.769531 19.390625 -31.5 C 19.390625 -31.300781 19.351562 -31.203125 19.28125 -31.203125 C 19.019531 -30.929688 18.785156 -30.765625 18.578125 -30.703125 C 17.503906 -30.296875 15.941406 -29.722656 13.890625 -28.984375 C 11.835938 -28.242188 10.269531 -27.671875 9.1875 -27.265625 C 8.988281 -27.203125 7.8125 -26.898438 5.65625 -26.359375 C 5.382812 -26.285156 4.976562 -26.25 4.4375 -26.25 C 3.90625 -26.25 3.503906 -26.21875 3.234375 -26.15625 Z M 3.234375 -26.15625 "/></g></g></g><g fill="rgb(100%, 100%, 100%)" fill-opacity="1"><g transform="translate(217.185743, 103.330314)"><g><path d="M 6.0625 -20.09375 C 4.644531 -20.226562 3.734375 -20.9375 3.328125 -22.21875 C 3.191406 -22.6875 3.125 -23.492188 3.125 -24.640625 C 3.195312 -25.242188 3.300781 -25.929688 3.4375 -26.703125 C 3.570312 -27.484375 3.65625 -28.003906 3.6875 -28.265625 C 3.71875 -28.535156 3.71875 -28.835938 3.6875 -29.171875 C 3.65625 -29.515625 3.570312 -29.769531 3.4375 -29.9375 C 3.300781 -30.101562 3.097656 -30.289062 2.828125 -30.5 C 2.148438 -30.90625 1.546875 -31.410156 1.015625 -32.015625 C -0.265625 -33.628906 -0.0976562 -35.039062 1.515625 -36.25 C 2.054688 -36.59375 2.578125 -36.644531 3.078125 -36.40625 C 3.585938 -36.164062 3.875 -35.742188 3.9375 -35.140625 C 4.007812 -34.867188 3.976562 -34.398438 3.84375 -33.734375 C 3.84375 -33.660156 3.671875 -33.222656 3.328125 -32.421875 C 3.128906 -32.148438 3.164062 -31.878906 3.4375 -31.609375 C 3.632812 -31.410156 3.800781 -31.273438 3.9375 -31.203125 C 5.082031 -30.328125 5.617188 -29.046875 5.546875 -27.359375 C 5.546875 -27.023438 5.53125 -26.519531 5.5 -25.84375 C 5.46875 -25.175781 5.453125 -24.675781 5.453125 -24.34375 C 5.453125 -23.9375 5.519531 -23.394531 5.65625 -22.71875 C 5.851562 -21.976562 6.359375 -21.609375 7.171875 -21.609375 C 7.710938 -21.679688 8.351562 -21.882812 9.09375 -22.21875 C 10.363281 -22.757812 11.640625 -23.566406 12.921875 -24.640625 C 13.523438 -25.109375 14.835938 -26.164062 16.859375 -27.8125 C 18.878906 -29.46875 20.191406 -30.53125 20.796875 -31 C 21.335938 -31.40625 21.773438 -31.707031 22.109375 -31.90625 C 22.179688 -31.976562 22.25 -31.992188 22.3125 -31.953125 C 22.382812 -31.921875 22.421875 -31.875 22.421875 -31.8125 C 22.554688 -31.675781 22.585938 -31.570312 22.515625 -31.5 C 22.316406 -31.164062 22.179688 -30.96875 22.109375 -30.90625 C 21.234375 -30.164062 19.601562 -28.832031 17.21875 -26.90625 C 14.832031 -24.988281 13.398438 -23.863281 12.921875 -23.53125 C 11.773438 -22.519531 10.296875 -21.578125 8.484375 -20.703125 C 7.804688 -20.296875 7 -20.09375 6.0625 -20.09375 Z M 2.015625 -32.921875 L 2.21875 -33.015625 L 2.421875 -33.125 C 2.753906 -33.664062 2.921875 -34.203125 2.921875 -34.734375 C 2.921875 -34.867188 2.820312 -35.039062 2.625 -35.25 C 2.488281 -35.382812 2.285156 -35.382812 2.015625 -35.25 C 1.273438 -34.707031 1.175781 -34.03125 1.71875 -33.21875 Z M 2.015625 -32.921875 "/></g></g></g><g fill="rgb(100%, 100%, 100%)" fill-opacity="1"><g transform="translate(237.68591, 103.330314)"><g><path d="M 14.953125 -32.21875 C 15.148438 -32.21875 15.179688 -32.097656 15.046875 -31.859375 C 14.910156 -31.617188 14.609375 -31.5 14.140625 -31.5 L 8.484375 -31.203125 L 7.578125 -31.203125 C 7.578125 -31.140625 7.554688 -31.003906 7.515625 -30.796875 C 7.484375 -30.597656 7.46875 -30.429688 7.46875 -30.296875 C 7.195312 -29.210938 6.929688 -28.40625 6.671875 -27.875 C 6.265625 -27.0625 5.757812 -26.351562 5.15625 -25.75 C 3.738281 -24.675781 2.488281 -24.84375 1.40625 -26.25 C 0.800781 -26.925781 0.5 -27.972656 0.5 -29.390625 C 0.632812 -30.796875 1.207031 -32.175781 2.21875 -33.53125 C 2.957031 -34.269531 3.566406 -34.503906 4.046875 -34.234375 C 4.171875 -34.160156 4.203125 -34.023438 4.140625 -33.828125 C 4.546875 -33.960938 4.882812 -34.03125 5.15625 -34.03125 C 6.289062 -34.03125 7.03125 -33.425781 7.375 -32.21875 L 8.484375 -32.21875 C 9.492188 -32.28125 11.3125 -32.3125 13.9375 -32.3125 C 14 -32.3125 14.148438 -32.296875 14.390625 -32.265625 C 14.628906 -32.234375 14.816406 -32.21875 14.953125 -32.21875 Z M 6.359375 -32.21875 C 5.953125 -33.363281 5.378906 -33.734375 4.640625 -33.328125 C 4.441406 -33.191406 4.34375 -33.019531 4.34375 -32.8125 C 4.34375 -32.414062 5.015625 -32.21875 6.359375 -32.21875 Z M 4.953125 -26.96875 C 5.890625 -27.84375 6.425781 -29.085938 6.5625 -30.703125 L 6.5625 -31.203125 C 4.613281 -31.335938 3.640625 -31.875 3.640625 -32.8125 L 3.640625 -33.125 C 2.492188 -31.570312 2.15625 -29.753906 2.625 -27.671875 C 2.757812 -26.992188 3.0625 -26.585938 3.53125 -26.453125 C 4 -26.316406 4.472656 -26.488281 4.953125 -26.96875 Z M 4.953125 -26.96875 "/></g></g></g><g fill="rgb(100%, 100%, 100%)" fill-opacity="1"><g transform="translate(250.814091, 103.330314)"><g><path d="M 3.234375 -26.15625 C 2.898438 -26.21875 2.425781 -26.25 1.8125 -26.25 C 0.0625 -26.519531 -0.707031 -27.53125 -0.5 -29.28125 C -0.5 -29.757812 -0.332031 -30.332031 0 -31 C 1.070312 -32.957031 2.753906 -34.304688 5.046875 -35.046875 C 5.378906 -35.109375 5.882812 -35.140625 6.5625 -35.140625 C 6.632812 -35.140625 6.867188 -35.039062 7.265625 -34.84375 C 7.535156 -34.632812 7.640625 -34.394531 7.578125 -34.125 C 7.441406 -33.863281 7.304688 -33.734375 7.171875 -33.734375 L 6.265625 -33.421875 C 4.710938 -33.085938 3.332031 -32.179688 2.125 -30.703125 C 1.988281 -30.566406 1.785156 -30.296875 1.515625 -29.890625 C 0.640625 -28.273438 1.078125 -27.367188 2.828125 -27.171875 C 3.503906 -27.097656 4.515625 -27.128906 5.859375 -27.265625 C 8.285156 -27.734375 11.210938 -28.707031 14.640625 -30.1875 C 15.378906 -30.457031 16.488281 -30.929688 17.96875 -31.609375 L 18.984375 -31.90625 C 19.179688 -31.90625 19.316406 -31.769531 19.390625 -31.5 C 19.390625 -31.300781 19.351562 -31.203125 19.28125 -31.203125 C 19.019531 -30.929688 18.785156 -30.765625 18.578125 -30.703125 C 17.503906 -30.296875 15.941406 -29.722656 13.890625 -28.984375 C 11.835938 -28.242188 10.269531 -27.671875 9.1875 -27.265625 C 8.988281 -27.203125 7.8125 -26.898438 5.65625 -26.359375 C 5.382812 -26.285156 4.976562 -26.25 4.4375 -26.25 C 3.90625 -26.25 3.503906 -26.21875 3.234375 -26.15625 Z M 3.234375 -26.15625 "/></g></g></g><g fill="rgb(100%, 100%, 100%)" fill-opacity="1"><g transform="translate(268.183681, 103.330314)"><g><path d="M 1.609375 -16.765625 C 1.273438 -16.765625 1.109375 -16.929688 1.109375 -17.265625 C 1.046875 -17.535156 1.015625 -17.941406 1.015625 -18.484375 C 1.078125 -24.398438 1.445312 -30.625 2.125 -37.15625 C 2.789062 -43.289062 3.800781 -49.554688 5.15625 -55.953125 C 6.5 -62.546875 8.382812 -68.195312 10.8125 -72.90625 C 11.882812 -74.925781 12.925781 -76.578125 13.9375 -77.859375 C 14.613281 -78.796875 15.453125 -79.671875 16.453125 -80.484375 L 17.96875 -81.390625 C 19.25 -81.929688 20.441406 -81.945312 21.546875 -81.4375 C 22.660156 -80.9375 23.390625 -80.015625 23.734375 -78.671875 C 24.066406 -77.253906 24.164062 -75.769531 24.03125 -74.21875 C 23.363281 -67.082031 21.242188 -60.050781 17.671875 -53.125 C 16.390625 -50.695312 15.410156 -48.894531 14.734375 -47.71875 C 14.066406 -46.539062 13.460938 -45.425781 12.921875 -44.375 C 12.390625 -43.332031 11.816406 -42.390625 11.203125 -41.546875 C 10.597656 -40.710938 10.09375 -40.007812 9.6875 -39.4375 C 9.289062 -38.863281 8.484375 -37.785156 7.265625 -36.203125 C 6.054688 -34.617188 4.984375 -33.222656 4.046875 -32.015625 C 3.429688 -31.335938 3.363281 -30.460938 3.84375 -29.390625 C 6.9375 -35.304688 9.863281 -38.90625 12.625 -40.1875 C 13.96875 -40.726562 14.972656 -40.726562 15.640625 -40.1875 C 16.316406 -39.65625 16.585938 -38.644531 16.453125 -37.15625 C 16.390625 -36.414062 15.953125 -35.441406 15.140625 -34.234375 C 12.992188 -31.203125 10.367188 -29.082031 7.265625 -27.875 L 5.65625 -27.265625 C 5.71875 -26.929688 5.988281 -26.695312 6.46875 -26.5625 C 8.488281 -25.820312 10.742188 -25.453125 13.234375 -25.453125 C 18.015625 -25.453125 22.222656 -26.863281 25.859375 -29.6875 C 25.921875 -29.757812 26.269531 -30.03125 26.90625 -30.5 C 27.550781 -30.96875 28.039062 -31.335938 28.375 -31.609375 C 28.507812 -31.804688 28.742188 -31.941406 29.078125 -32.015625 L 29.1875 -31.90625 C 29.320312 -31.769531 29.390625 -31.671875 29.390625 -31.609375 C 29.253906 -31.335938 29.148438 -31.171875 29.078125 -31.109375 C 22.617188 -25.046875 15.25 -23.054688 6.96875 -25.140625 C 6.695312 -25.210938 6.410156 -25.296875 6.109375 -25.390625 C 5.804688 -25.492188 5.46875 -25.613281 5.09375 -25.75 C 4.726562 -25.882812 4.441406 -25.984375 4.234375 -26.046875 C 3.972656 -26.179688 3.773438 -26.117188 3.640625 -25.859375 C 3.296875 -25.046875 3.09375 -24.269531 3.03125 -23.53125 L 2.734375 -18.484375 C 2.597656 -17.671875 2.460938 -17.195312 2.328125 -17.0625 C 2.253906 -16.863281 2.015625 -16.765625 1.609375 -16.765625 Z M 4.046875 -34.03125 C 4.242188 -34.09375 4.425781 -34.207031 4.59375 -34.375 C 4.757812 -34.550781 4.910156 -34.738281 5.046875 -34.9375 C 5.179688 -35.144531 5.285156 -35.28125 5.359375 -35.34375 C 9.117188 -40.1875 13.222656 -46.988281 17.671875 -55.75 C 20.367188 -61.0625 22.085938 -66.75 22.828125 -72.8125 C 23.085938 -74.832031 23.085938 -76.515625 22.828125 -77.859375 C 22.484375 -79.335938 21.789062 -80.191406 20.75 -80.421875 C 19.707031 -80.660156 18.78125 -80.378906 17.96875 -79.578125 L 17.265625 -78.875 C 16.460938 -78.132812 15.625 -77.085938 14.75 -75.734375 C 13.257812 -73.378906 11.8125 -70.351562 10.40625 -66.65625 C 9.050781 -62.945312 7.835938 -58.535156 6.765625 -53.421875 C 5.554688 -47.828125 4.648438 -42.171875 4.046875 -36.453125 C 3.910156 -35.441406 3.910156 -34.632812 4.046875 -34.03125 Z M 4.953125 -28.578125 L 5.546875 -28.578125 C 9.253906 -29.585938 12.285156 -31.941406 14.640625 -35.640625 C 14.972656 -36.179688 15.207031 -36.820312 15.34375 -37.5625 C 15.476562 -38.375 15.3125 -38.984375 14.84375 -39.390625 C 14.4375 -39.648438 13.863281 -39.582031 13.125 -39.1875 C 11.78125 -38.707031 10.46875 -37.695312 9.1875 -36.15625 C 7.84375 -34.539062 6.394531 -32.148438 4.84375 -28.984375 L 4.84375 -28.875 C 4.914062 -28.738281 4.953125 -28.640625 4.953125 -28.578125 Z M 4.953125 -28.578125 "/></g></g></g><g fill="rgb(100%, 100%, 100%)" fill-opacity="1"><g transform="translate(295.550893, 103.330314)"><g><path d="M 3.234375 -24.140625 C 1.546875 -24.273438 0.5 -25.21875 0.09375 -26.96875 C 0.03125 -27.363281 0 -27.929688 0 -28.671875 C 0 -30.765625 0.4375 -32.582031 1.3125 -34.125 C 1.851562 -34.9375 2.289062 -35.476562 2.625 -35.75 C 3.164062 -36.15625 3.769531 -36.359375 4.4375 -36.359375 C 5.175781 -36.359375 5.679688 -36.085938 5.953125 -35.546875 C 6.359375 -34.941406 6.289062 -34.300781 5.75 -33.625 C 4.539062 -32.34375 3.398438 -31.570312 2.328125 -31.3125 C 1.585938 -31.175781 1.148438 -30.632812 1.015625 -29.6875 C 0.878906 -28.539062 0.976562 -27.597656 1.3125 -26.859375 C 1.71875 -25.847656 2.359375 -25.273438 3.234375 -25.140625 C 5.722656 -24.867188 9.085938 -26.859375 13.328125 -31.109375 L 14.234375 -32.015625 C 14.441406 -32.015625 14.578125 -31.976562 14.640625 -31.90625 C 14.710938 -31.769531 14.75 -31.671875 14.75 -31.609375 C 14.75 -31.410156 14.679688 -31.242188 14.546875 -31.109375 C 13.054688 -29.359375 11.148438 -27.738281 8.828125 -26.25 C 6.515625 -24.769531 4.648438 -24.066406 3.234375 -24.140625 Z M 1.8125 -32.625 C 3.226562 -33.289062 4.171875 -33.960938 4.640625 -34.640625 C 4.773438 -34.703125 4.773438 -34.800781 4.640625 -34.9375 C 4.640625 -35.070312 4.539062 -35.140625 4.34375 -35.140625 C 3.9375 -35.273438 3.566406 -35.175781 3.234375 -34.84375 C 2.492188 -34.238281 2.019531 -33.5 1.8125 -32.625 Z M 1.8125 -32.625 "/></g></g></g><g fill="rgb(100%, 100%, 100%)" fill-opacity="1"><g transform="translate(308.275135, 103.330314)"><g><path d="M 44.9375 -56.546875 C 45 -56.546875 45.03125 -56.507812 45.03125 -56.4375 C 45.03125 -56.375 45 -56.34375 44.9375 -56.34375 L 44.53125 -55.953125 C 43.050781 -55.140625 41.707031 -54.566406 40.5 -54.234375 C 37.800781 -53.617188 34.632812 -53.3125 31 -53.3125 C 30.125 -53.3125 26.640625 -53.34375 20.546875 -53.40625 C 14.453125 -53.476562 10.664062 -53.515625 9.1875 -53.515625 L 7.375 -53.515625 C 6.289062 -49.347656 5.71875 -47.09375 5.65625 -46.75 C 4.039062 -40.019531 3.03125 -32.648438 2.625 -24.640625 C 2.488281 -22.617188 2.625 -20.734375 3.03125 -18.984375 C 3.300781 -17.773438 3.570312 -16.929688 3.84375 -16.453125 C 4.445312 -14.972656 5.519531 -14.570312 7.0625 -15.25 C 7.332031 -15.382812 7.738281 -15.65625 8.28125 -16.0625 C 9.96875 -17.195312 11.484375 -18.675781 12.828125 -20.5 C 14.441406 -22.65625 16.796875 -25.953125 19.890625 -30.390625 C 20.703125 -31.398438 21.242188 -31.941406 21.515625 -32.015625 C 21.578125 -31.742188 21.59375 -31.570312 21.5625 -31.5 C 21.53125 -31.4375 21.359375 -31.1875 21.046875 -30.75 C 20.742188 -30.3125 20.5625 -30.0625 20.5 -30 C 18.007812 -26.425781 15.453125 -22.957031 12.828125 -19.59375 C 11.484375 -17.90625 10.132812 -16.523438 8.78125 -15.453125 C 8.25 -14.984375 7.675781 -14.613281 7.0625 -14.34375 C 5.65625 -13.46875 4.34375 -13.769531 3.125 -15.25 C 2.726562 -15.71875 2.359375 -16.425781 2.015625 -17.375 C 1.347656 -19.394531 1.015625 -21.582031 1.015625 -23.9375 C 0.878906 -29.25 1.210938 -34.398438 2.015625 -39.390625 C 2.617188 -43.628906 3.5625 -48.335938 4.84375 -53.515625 C -0.46875 -53.515625 -6.054688 -53.210938 -11.921875 -52.609375 C -14.941406 -52.335938 -17.195312 -51.96875 -18.6875 -51.5 C -20.300781 -50.894531 -21.273438 -50.253906 -21.609375 -49.578125 C -21.609375 -49.515625 -21.707031 -49.484375 -21.90625 -49.484375 C -22.113281 -49.679688 -22.21875 -49.847656 -22.21875 -49.984375 C -22.28125 -50.390625 -22.113281 -50.796875 -21.71875 -51.203125 C -21.238281 -51.609375 -20.597656 -51.941406 -19.796875 -52.203125 C -18.441406 -52.742188 -16.65625 -53.148438 -14.4375 -53.421875 C -8.175781 -54.160156 -2.21875 -54.53125 3.4375 -54.53125 L 5.046875 -54.53125 C 5.046875 -54.726562 5.097656 -55.03125 5.203125 -55.4375 C 5.304688 -55.84375 5.390625 -56.179688 5.453125 -56.453125 C 6.660156 -60.960938 8.546875 -66.144531 11.109375 -72 C 11.242188 -72.207031 11.410156 -72.546875 11.609375 -73.015625 C 11.816406 -73.484375 11.988281 -73.851562 12.125 -74.125 L 12.625 -75.03125 C 13.03125 -75.707031 13.46875 -75.941406 13.9375 -75.734375 C 14.40625 -75.535156 14.539062 -75.066406 14.34375 -74.328125 C 14.269531 -73.859375 14.097656 -73.21875 13.828125 -72.40625 C 13.566406 -71.664062 13.179688 -70.617188 12.671875 -69.265625 C 12.171875 -67.921875 11.816406 -67.015625 11.609375 -66.546875 C 10.128906 -62.710938 8.953125 -59.28125 8.078125 -56.25 L 7.578125 -54.4375 C 14.847656 -54.300781 20.164062 -54.234375 23.53125 -54.234375 C 24.40625 -54.234375 25.765625 -54.195312 27.609375 -54.125 C 29.460938 -54.0625 30.863281 -54.03125 31.8125 -54.03125 C 33.757812 -54.03125 36.148438 -54.265625 38.984375 -54.734375 C 40.390625 -55.066406 41.96875 -55.640625 43.71875 -56.453125 L 44.640625 -56.75 C 44.703125 -56.75 44.800781 -56.679688 44.9375 -56.546875 Z M 44.9375 -56.546875 "/></g></g></g><g fill="rgb(100%, 100%, 100%)" fill-opacity="1"><g transform="translate(327.563452, 103.330314)"><g><path d="M 44.9375 -56.546875 C 45 -56.546875 45.03125 -56.507812 45.03125 -56.4375 C 45.03125 -56.375 45 -56.34375 44.9375 -56.34375 L 44.53125 -55.953125 C 43.050781 -55.140625 41.707031 -54.566406 40.5 -54.234375 C 37.800781 -53.617188 34.632812 -53.3125 31 -53.3125 C 30.125 -53.3125 26.640625 -53.34375 20.546875 -53.40625 C 14.453125 -53.476562 10.664062 -53.515625 9.1875 -53.515625 L 7.375 -53.515625 C 6.289062 -49.347656 5.71875 -47.09375 5.65625 -46.75 C 4.039062 -40.019531 3.03125 -32.648438 2.625 -24.640625 C 2.488281 -22.617188 2.625 -20.734375 3.03125 -18.984375 C 3.300781 -17.773438 3.570312 -16.929688 3.84375 -16.453125 C 4.445312 -14.972656 5.519531 -14.570312 7.0625 -15.25 C 7.332031 -15.382812 7.738281 -15.65625 8.28125 -16.0625 C 9.96875 -17.195312 11.484375 -18.675781 12.828125 -20.5 C 14.441406 -22.65625 16.796875 -25.953125 19.890625 -30.390625 C 20.703125 -31.398438 21.242188 -31.941406 21.515625 -32.015625 C 21.578125 -31.742188 21.59375 -31.570312 21.5625 -31.5 C 21.53125 -31.4375 21.359375 -31.1875 21.046875 -30.75 C 20.742188 -30.3125 20.5625 -30.0625 20.5 -30 C 18.007812 -26.425781 15.453125 -22.957031 12.828125 -19.59375 C 11.484375 -17.90625 10.132812 -16.523438 8.78125 -15.453125 C 8.25 -14.984375 7.675781 -14.613281 7.0625 -14.34375 C 5.65625 -13.46875 4.34375 -13.769531 3.125 -15.25 C 2.726562 -15.71875 2.359375 -16.425781 2.015625 -17.375 C 1.347656 -19.394531 1.015625 -21.582031 1.015625 -23.9375 C 0.878906 -29.25 1.210938 -34.398438 2.015625 -39.390625 C 2.617188 -43.628906 3.5625 -48.335938 4.84375 -53.515625 C -0.46875 -53.515625 -6.054688 -53.210938 -11.921875 -52.609375 C -14.941406 -52.335938 -17.195312 -51.96875 -18.6875 -51.5 C -20.300781 -50.894531 -21.273438 -50.253906 -21.609375 -49.578125 C -21.609375 -49.515625 -21.707031 -49.484375 -21.90625 -49.484375 C -22.113281 -49.679688 -22.21875 -49.847656 -22.21875 -49.984375 C -22.28125 -50.390625 -22.113281 -50.796875 -21.71875 -51.203125 C -21.238281 -51.609375 -20.597656 -51.941406 -19.796875 -52.203125 C -18.441406 -52.742188 -16.65625 -53.148438 -14.4375 -53.421875 C -8.175781 -54.160156 -2.21875 -54.53125 3.4375 -54.53125 L 5.046875 -54.53125 C 5.046875 -54.726562 5.097656 -55.03125 5.203125 -55.4375 C 5.304688 -55.84375 5.390625 -56.179688 5.453125 -56.453125 C 6.660156 -60.960938 8.546875 -66.144531 11.109375 -72 C 11.242188 -72.207031 11.410156 -72.546875 11.609375 -73.015625 C 11.816406 -73.484375 11.988281 -73.851562 12.125 -74.125 L 12.625 -75.03125 C 13.03125 -75.707031 13.46875 -75.941406 13.9375 -75.734375 C 14.40625 -75.535156 14.539062 -75.066406 14.34375 -74.328125 C 14.269531 -73.859375 14.097656 -73.21875 13.828125 -72.40625 C 13.566406 -71.664062 13.179688 -70.617188 12.671875 -69.265625 C 12.171875 -67.921875 11.816406 -67.015625 11.609375 -66.546875 C 10.128906 -62.710938 8.953125 -59.28125 8.078125 -56.25 L 7.578125 -54.4375 C 14.847656 -54.300781 20.164062 -54.234375 23.53125 -54.234375 C 24.40625 -54.234375 25.765625 -54.195312 27.609375 -54.125 C 29.460938 -54.0625 30.863281 -54.03125 31.8125 -54.03125 C 33.757812 -54.03125 36.148438 -54.265625 38.984375 -54.734375 C 40.390625 -55.066406 41.96875 -55.640625 43.71875 -56.453125 L 44.640625 -56.75 C 44.703125 -56.75 44.800781 -56.679688 44.9375 -56.546875 Z M 44.9375 -56.546875 "/></g></g></g><g fill="rgb(100%, 100%, 100%)" fill-opacity="1"><g transform="translate(119.862327, 125.343405)"><g><path d="M 3.828125 -4.75 C 3.617188 -4.863281 3.394531 -4.953125 3.15625 -5.015625 C 2.925781 -5.085938 2.707031 -5.125 2.5 -5.125 C 2.1875 -5.125 1.9375 -5.050781 1.75 -4.90625 C 1.5625 -4.769531 1.46875 -4.582031 1.46875 -4.34375 C 1.46875 -4.09375 1.578125 -3.890625 1.796875 -3.734375 C 2.015625 -3.585938 2.320312 -3.441406 2.71875 -3.296875 C 3.019531 -3.191406 3.269531 -3.078125 3.46875 -2.953125 C 3.675781 -2.828125 3.847656 -2.648438 3.984375 -2.421875 C 4.117188 -2.203125 4.1875 -1.921875 4.1875 -1.578125 C 4.1875 -1.273438 4.109375 -1 3.953125 -0.75 C 3.804688 -0.5 3.585938 -0.300781 3.296875 -0.15625 C 3.015625 -0.0078125 2.679688 0.0625 2.296875 0.0625 C 1.941406 0.0625 1.597656 0.00390625 1.265625 -0.109375 C 0.929688 -0.222656 0.640625 -0.367188 0.390625 -0.546875 L 0.734375 -1.15625 C 0.929688 -1.007812 1.164062 -0.882812 1.4375 -0.78125 C 1.71875 -0.675781 1.976562 -0.625 2.21875 -0.625 C 2.53125 -0.625 2.800781 -0.703125 3.03125 -0.859375 C 3.269531 -1.023438 3.390625 -1.265625 3.390625 -1.578125 C 3.390625 -1.835938 3.289062 -2.046875 3.09375 -2.203125 C 2.894531 -2.367188 2.617188 -2.519531 2.265625 -2.65625 C 1.941406 -2.78125 1.671875 -2.898438 1.453125 -3.015625 C 1.242188 -3.128906 1.0625 -3.289062 0.90625 -3.5 C 0.75 -3.707031 0.671875 -3.960938 0.671875 -4.265625 C 0.671875 -4.722656 0.828125 -5.09375 1.140625 -5.375 C 1.460938 -5.65625 1.878906 -5.800781 2.390625 -5.8125 C 3.003906 -5.8125 3.582031 -5.660156 4.125 -5.359375 Z M 3.828125 -4.75 "/></g></g></g><g fill="rgb(100%, 100%, 100%)" fill-opacity="1"><g transform="translate(126.775303, 125.343405)"><g><path d="M 0.46875 -2.890625 C 0.46875 -3.421875 0.597656 -3.910156 0.859375 -4.359375 C 1.128906 -4.816406 1.488281 -5.175781 1.9375 -5.4375 C 2.394531 -5.707031 2.890625 -5.84375 3.421875 -5.84375 C 3.953125 -5.84375 4.441406 -5.707031 4.890625 -5.4375 C 5.347656 -5.175781 5.710938 -4.816406 5.984375 -4.359375 C 6.253906 -3.910156 6.390625 -3.421875 6.390625 -2.890625 C 6.390625 -2.359375 6.253906 -1.863281 5.984375 -1.40625 C 5.710938 -0.957031 5.347656 -0.597656 4.890625 -0.328125 C 4.441406 -0.0664062 3.953125 0.0625 3.421875 0.0625 C 2.890625 0.0625 2.394531 -0.0664062 1.9375 -0.328125 C 1.488281 -0.585938 1.128906 -0.941406 0.859375 -1.390625 C 0.597656 -1.847656 0.46875 -2.347656 0.46875 -2.890625 Z M 1.265625 -2.875 C 1.265625 -2.476562 1.359375 -2.113281 1.546875 -1.78125 C 1.742188 -1.445312 2.007812 -1.179688 2.34375 -0.984375 C 2.675781 -0.785156 3.039062 -0.6875 3.4375 -0.6875 C 3.832031 -0.6875 4.191406 -0.78125 4.515625 -0.96875 C 4.847656 -1.164062 5.109375 -1.429688 5.296875 -1.765625 C 5.484375 -2.109375 5.578125 -2.484375 5.578125 -2.890625 C 5.578125 -3.285156 5.484375 -3.65625 5.296875 -4 C 5.109375 -4.34375 4.847656 -4.613281 4.515625 -4.8125 C 4.179688 -5.007812 3.816406 -5.109375 3.421875 -5.109375 C 3.023438 -5.109375 2.660156 -5.003906 2.328125 -4.796875 C 2.003906 -4.597656 1.742188 -4.328125 1.546875 -3.984375 C 1.359375 -3.648438 1.265625 -3.28125 1.265625 -2.875 Z M 1.265625 -2.875 "/></g></g></g><g fill="rgb(100%, 100%, 100%)" fill-opacity="1"><g transform="translate(135.888591, 125.343405)"><g><path d="M 4.265625 -5.78125 L 4.265625 -5.046875 L 1.609375 -5.046875 L 1.609375 -3.203125 L 3.9375 -3.203125 L 3.9375 -2.453125 L 1.609375 -2.453125 L 1.609375 0 L 0.828125 0 L 0.828125 -5.78125 Z M 4.265625 -5.78125 "/></g></g></g><g fill="rgb(100%, 100%, 100%)" fill-opacity="1"><g transform="translate(142.857575, 125.343405)"><g><path d="M 4.25 -5.78125 L 4.25 -5.046875 L 2.703125 -5.046875 L 2.703125 0 L 1.921875 0 L 1.921875 -5.046875 L 0.40625 -5.046875 L 0.40625 -5.78125 Z M 4.25 -5.78125 "/></g></g></g><g fill="rgb(100%, 100%, 100%)" fill-opacity="1"><g transform="translate(149.77055, 125.343405)"><g><path d="M 5.46875 0.25 L 4.109375 -3.203125 L 2.625 0.265625 L 0.328125 -5.765625 L 1.234375 -5.765625 L 2.734375 -1.546875 L 3.734375 -4.171875 L 3.109375 -5.765625 L 3.875 -5.765625 L 5.484375 -1.640625 L 6.90625 -5.765625 L 7.75 -5.765625 Z M 5.46875 0.25 "/></g></g></g><g fill="rgb(100%, 100%, 100%)" fill-opacity="1"><g transform="translate(160.092009, 125.343405)"><g><path d="M 3.859375 -1.515625 L 1.640625 -1.515625 L 1.03125 0 L 0.25 0 L 2.78125 -6.03125 L 2.828125 -6.03125 L 5.359375 0 L 4.46875 0 Z M 3.59375 -2.1875 L 2.78125 -4.296875 L 1.921875 -2.1875 Z M 3.59375 -2.1875 "/></g></g></g><g fill="rgb(100%, 100%, 100%)" fill-opacity="1"><g transform="translate(167.957122, 125.343405)"><g><path d="M 4.015625 0 L 2.65625 -2.140625 C 2.613281 -2.128906 2.550781 -2.125 2.46875 -2.125 L 1.609375 -2.125 L 1.609375 0 L 0.828125 0 L 0.828125 -5.78125 L 2.375 -5.78125 C 2.769531 -5.78125 3.117188 -5.710938 3.421875 -5.578125 C 3.734375 -5.441406 3.976562 -5.238281 4.15625 -4.96875 C 4.332031 -4.695312 4.421875 -4.367188 4.421875 -3.984375 C 4.421875 -3.628906 4.34375 -3.300781 4.1875 -3 C 4.03125 -2.707031 3.789062 -2.484375 3.46875 -2.328125 L 4.921875 0 Z M 2.453125 -2.875 C 2.867188 -2.875 3.164062 -2.984375 3.34375 -3.203125 C 3.53125 -3.421875 3.625 -3.671875 3.625 -3.953125 C 3.625 -4.128906 3.582031 -4.300781 3.5 -4.46875 C 3.425781 -4.632812 3.304688 -4.769531 3.140625 -4.875 C 2.972656 -4.988281 2.757812 -5.046875 2.5 -5.046875 L 1.609375 -5.046875 L 1.609375 -2.875 Z M 2.453125 -2.875 "/></g></g></g><g fill="rgb(100%, 100%, 100%)" fill-opacity="1"><g transform="translate(175.494188, 125.343405)"><g><path d="M 4.59375 -5.78125 L 4.59375 -5.046875 L 1.609375 -5.046875 L 1.609375 -3.28125 L 4.265625 -3.28125 L 4.265625 -2.53125 L 1.609375 -2.53125 L 1.609375 -0.75 L 4.703125 -0.75 L 4.703125 0 L 0.828125 0 L 0.828125 -5.78125 Z M 4.59375 -5.78125 "/></g></g></g><g fill="rgb(100%, 100%, 100%)" fill-opacity="1"><g transform="translate(182.975247, 125.343405)"><g/></g></g><g fill="rgb(100%, 100%, 100%)" fill-opacity="1"><g transform="translate(187.759914, 125.343405)"><g><path d="M 0.828125 -5.78125 L 2.421875 -5.78125 C 3.140625 -5.78125 3.734375 -5.632812 4.203125 -5.34375 C 4.671875 -5.0625 5.015625 -4.695312 5.234375 -4.25 C 5.453125 -3.800781 5.5625 -3.328125 5.5625 -2.828125 C 5.5625 -2.265625 5.429688 -1.769531 5.171875 -1.34375 C 4.910156 -0.914062 4.5625 -0.582031 4.125 -0.34375 C 3.6875 -0.113281 3.210938 0 2.703125 0 L 0.828125 0 Z M 2.546875 -0.75 C 2.972656 -0.75 3.351562 -0.832031 3.6875 -1 C 4.019531 -1.164062 4.28125 -1.410156 4.46875 -1.734375 C 4.664062 -2.054688 4.765625 -2.4375 4.765625 -2.875 C 4.765625 -3.332031 4.664062 -3.722656 4.46875 -4.046875 C 4.269531 -4.367188 4.003906 -4.613281 3.671875 -4.78125 C 3.347656 -4.957031 2.992188 -5.046875 2.609375 -5.046875 L 1.609375 -5.046875 L 1.609375 -0.75 Z M 2.546875 -0.75 "/></g></g></g><g fill="rgb(100%, 100%, 100%)" fill-opacity="1"><g transform="translate(196.049086, 125.343405)"><g><path d="M 4.59375 -5.78125 L 4.59375 -5.046875 L 1.609375 -5.046875 L 1.609375 -3.28125 L 4.265625 -3.28125 L 4.265625 -2.53125 L 1.609375 -2.53125 L 1.609375 -0.75 L 4.703125 -0.75 L 4.703125 0 L 0.828125 0 L 0.828125 -5.78125 Z M 4.59375 -5.78125 "/></g></g></g><g fill="rgb(100%, 100%, 100%)" fill-opacity="1"><g transform="translate(203.530145, 125.343405)"><g><path d="M 5.4375 -5.78125 L 2.875 0.265625 L 0.328125 -5.78125 L 1.25 -5.78125 L 2.90625 -1.609375 L 4.515625 -5.78125 Z M 5.4375 -5.78125 "/></g></g></g><g fill="rgb(100%, 100%, 100%)" fill-opacity="1"><g transform="translate(211.53928, 125.343405)"><g><path d="M 4.59375 -5.78125 L 4.59375 -5.046875 L 1.609375 -5.046875 L 1.609375 -3.28125 L 4.265625 -3.28125 L 4.265625 -2.53125 L 1.609375 -2.53125 L 1.609375 -0.75 L 4.703125 -0.75 L 4.703125 0 L 0.828125 0 L 0.828125 -5.78125 Z M 4.59375 -5.78125 "/></g></g></g><g fill="rgb(100%, 100%, 100%)" fill-opacity="1"><g transform="translate(219.020338, 125.343405)"><g><path d="M 1.609375 -5.78125 L 1.609375 -0.75 L 4.546875 -0.75 L 4.546875 0 L 0.828125 0 L 0.828125 -5.78125 Z M 1.609375 -5.78125 "/></g></g></g><g fill="rgb(100%, 100%, 100%)" fill-opacity="1"><g transform="translate(226.253357, 125.343405)"><g><path d="M 0.46875 -2.890625 C 0.46875 -3.421875 0.597656 -3.910156 0.859375 -4.359375 C 1.128906 -4.816406 1.488281 -5.175781 1.9375 -5.4375 C 2.394531 -5.707031 2.890625 -5.84375 3.421875 -5.84375 C 3.953125 -5.84375 4.441406 -5.707031 4.890625 -5.4375 C 5.347656 -5.175781 5.710938 -4.816406 5.984375 -4.359375 C 6.253906 -3.910156 6.390625 -3.421875 6.390625 -2.890625 C 6.390625 -2.359375 6.253906 -1.863281 5.984375 -1.40625 C 5.710938 -0.957031 5.347656 -0.597656 4.890625 -0.328125 C 4.441406 -0.0664062 3.953125 0.0625 3.421875 0.0625 C 2.890625 0.0625 2.394531 -0.0664062 1.9375 -0.328125 C 1.488281 -0.585938 1.128906 -0.941406 0.859375 -1.390625 C 0.597656 -1.847656 0.46875 -2.347656 0.46875 -2.890625 Z M 1.265625 -2.875 C 1.265625 -2.476562 1.359375 -2.113281 1.546875 -1.78125 C 1.742188 -1.445312 2.007812 -1.179688 2.34375 -0.984375 C 2.675781 -0.785156 3.039062 -0.6875 3.4375 -0.6875 C 3.832031 -0.6875 4.191406 -0.78125 4.515625 -0.96875 C 4.847656 -1.164062 5.109375 -1.429688 5.296875 -1.765625 C 5.484375 -2.109375 5.578125 -2.484375 5.578125 -2.890625 C 5.578125 -3.285156 5.484375 -3.65625 5.296875 -4 C 5.109375 -4.34375 4.847656 -4.613281 4.515625 -4.8125 C 4.179688 -5.007812 3.816406 -5.109375 3.421875 -5.109375 C 3.023438 -5.109375 2.660156 -5.003906 2.328125 -4.796875 C 2.003906 -4.597656 1.742188 -4.328125 1.546875 -3.984375 C 1.359375 -3.648438 1.265625 -3.28125 1.265625 -2.875 Z M 1.265625 -2.875 "/></g></g></g><g fill="rgb(100%, 100%, 100%)" fill-opacity="1"><g transform="translate(235.366646, 125.343405)"><g><path d="M 2.390625 -5.78125 C 3.015625 -5.78125 3.503906 -5.625 3.859375 -5.3125 C 4.210938 -5 4.390625 -4.554688 4.390625 -3.984375 C 4.390625 -3.660156 4.320312 -3.359375 4.1875 -3.078125 C 4.0625 -2.796875 3.851562 -2.566406 3.5625 -2.390625 C 3.269531 -2.210938 2.90625 -2.125 2.46875 -2.125 L 1.609375 -2.125 L 1.609375 0 L 0.828125 0 L 0.828125 -5.78125 Z M 2.46875 -2.875 C 2.738281 -2.875 2.960938 -2.929688 3.140625 -3.046875 C 3.316406 -3.171875 3.441406 -3.316406 3.515625 -3.484375 C 3.585938 -3.648438 3.625 -3.8125 3.625 -3.96875 C 3.625 -4.25 3.53125 -4.5 3.34375 -4.71875 C 3.164062 -4.9375 2.882812 -5.046875 2.5 -5.046875 L 1.609375 -5.046875 L 1.609375 -2.875 Z M 2.46875 -2.875 "/></g></g></g><g fill="rgb(100%, 100%, 100%)" fill-opacity="1"><g transform="translate(242.383632, 125.343405)"><g><path d="M 4.59375 -5.78125 L 4.59375 -5.046875 L 1.609375 -5.046875 L 1.609375 -3.28125 L 4.265625 -3.28125 L 4.265625 -2.53125 L 1.609375 -2.53125 L 1.609375 -0.75 L 4.703125 -0.75 L 4.703125 0 L 0.828125 0 L 0.828125 -5.78125 Z M 4.59375 -5.78125 "/></g></g></g><g fill="rgb(100%, 100%, 100%)" fill-opacity="1"><g transform="translate(249.86469, 125.343405)"><g><path d="M 4.015625 0 L 2.65625 -2.140625 C 2.613281 -2.128906 2.550781 -2.125 2.46875 -2.125 L 1.609375 -2.125 L 1.609375 0 L 0.828125 0 L 0.828125 -5.78125 L 2.375 -5.78125 C 2.769531 -5.78125 3.117188 -5.710938 3.421875 -5.578125 C 3.734375 -5.441406 3.976562 -5.238281 4.15625 -4.96875 C 4.332031 -4.695312 4.421875 -4.367188 4.421875 -3.984375 C 4.421875 -3.628906 4.34375 -3.300781 4.1875 -3 C 4.03125 -2.707031 3.789062 -2.484375 3.46875 -2.328125 L 4.921875 0 Z M 2.453125 -2.875 C 2.867188 -2.875 3.164062 -2.984375 3.34375 -3.203125 C 3.53125 -3.421875 3.625 -3.671875 3.625 -3.953125 C 3.625 -4.128906 3.582031 -4.300781 3.5 -4.46875 C 3.425781 -4.632812 3.304688 -4.769531 3.140625 -4.875 C 2.972656 -4.988281 2.757812 -5.046875 2.5 -5.046875 L 1.609375 -5.046875 L 1.609375 -2.875 Z M 2.453125 -2.875 "/></g></g></g><path stroke-linecap="butt" transform="matrix(0.750517, 0, 0, 0.64, 162.144778, 96.910177)" fill="none" stroke-linejoin="miter" d="M -0.000329395 -0.0000326514 L 67.968411 -0.0000326514 " stroke="rgb(100%, 100%, 100%)" stroke-width="1" stroke-opacity="1" stroke-miterlimit="4"/></svg>