<svg xmlns="http://www.w3.org/2000/svg" xmlns:xlink="http://www.w3.org/1999/xlink" width="500" zoomAndPan="magnify" viewBox="0 0 375 187.499995" height="250" preserveAspectRatio="xMidYMid meet" version="1.0"><defs><g><g id="id1"/><g id="id2"/></g></defs><g fill="rgb(100%, 100%, 100%)" fill-opacity="1"><g transform="translate(52.81406, 117.484094)"><g><path d="M 2.21875 -22.265625 C 1.53125 -21.859375 1.019531 -22.023438 0.6875 -22.765625 C 0.507812 -23.054688 0.421875 -23.34375 0.421875 -23.625 C 0.421875 -24.988281 0.648438 -26.210938 1.109375 -27.296875 L 1.359375 -27.546875 C 1.535156 -27.710938 1.789062 -27.769531 2.125 -27.71875 C 2.300781 -27.65625 2.390625 -27.457031 2.390625 -27.125 C 2.390625 -26.71875 2.332031 -26.234375 2.21875 -25.671875 C 2.21875 -25.492188 2.203125 -25.273438 2.171875 -25.015625 C 2.140625 -24.765625 2.125 -24.582031 2.125 -24.46875 C 2.125 -24.300781 2.179688 -24.21875 2.296875 -24.21875 L 2.640625 -24.21875 C 3.035156 -24.613281 3.632812 -25.378906 4.4375 -26.515625 C 5.40625 -28.109375 6.398438 -29.472656 7.421875 -30.609375 C 7.648438 -30.898438 7.988281 -31.269531 8.4375 -31.71875 C 8.550781 -31.894531 8.78125 -32.097656 9.125 -32.328125 C 10.03125 -32.953125 10.570312 -32.75 10.75 -31.71875 C 10.800781 -31.5 10.84375 -31.160156 10.875 -30.703125 C 10.90625 -30.242188 10.921875 -29.957031 10.921875 -29.84375 L 10.40625 -25.25 C 10.34375 -25.019531 10.3125 -24.648438 10.3125 -24.140625 C 10.3125 -23.847656 10.367188 -23.671875 10.484375 -23.609375 C 10.597656 -23.554688 10.769531 -23.644531 11 -23.875 C 11.113281 -24.050781 11.3125 -24.320312 11.59375 -24.6875 C 11.882812 -25.0625 12.082031 -25.332031 12.1875 -25.5 C 12.875 -26.289062 13.53125 -26.859375 14.15625 -27.203125 C 14.945312 -27.597656 15.65625 -27.484375 16.28125 -26.859375 L 16.96875 -26.09375 C 17.425781 -25.582031 17.96875 -25.1875 18.59375 -24.90625 C 19.269531 -24.613281 19.976562 -24.640625 20.71875 -24.984375 C 21.226562 -25.210938 21.910156 -25.695312 22.765625 -26.4375 C 22.992188 -26.601562 23.207031 -26.742188 23.40625 -26.859375 C 23.601562 -26.972656 23.742188 -27.03125 23.828125 -27.03125 C 23.921875 -27.03125 23.992188 -27.003906 24.046875 -26.953125 C 24.109375 -26.660156 23.878906 -26.316406 23.359375 -25.921875 C 22.796875 -25.359375 22.375 -24.960938 22.09375 -24.734375 C 20.15625 -23.140625 18.191406 -23.335938 16.203125 -25.328125 C 15.972656 -25.554688 15.6875 -25.898438 15.34375 -26.359375 C 15.175781 -26.578125 14.921875 -26.628906 14.578125 -26.515625 C 13.898438 -26.234375 13.363281 -25.8125 12.96875 -25.25 C 12.789062 -25.070312 12.570312 -24.796875 12.3125 -24.421875 C 12.0625 -24.054688 11.878906 -23.789062 11.765625 -23.625 C 11.421875 -23.164062 11.140625 -22.820312 10.921875 -22.59375 C 10.179688 -21.96875 9.695312 -22.113281 9.46875 -23.03125 C 9.40625 -23.25 9.375 -23.644531 9.375 -24.21875 L 9.640625 -27.03125 C 9.753906 -27.71875 9.867188 -28.800781 9.984375 -30.28125 C 10.097656 -30.726562 10.066406 -31.125 9.890625 -31.46875 C 9.773438 -31.695312 9.632812 -31.722656 9.46875 -31.546875 C 9.007812 -31.210938 8.609375 -30.816406 8.265625 -30.359375 C 7.359375 -29.390625 6.335938 -27.96875 5.203125 -26.09375 C 4.410156 -24.84375 3.785156 -23.90625 3.328125 -23.28125 C 2.984375 -22.707031 2.613281 -22.367188 2.21875 -22.265625 Z M 2.21875 -22.265625 "/></g></g></g><g fill="rgb(100%, 100%, 100%)" fill-opacity="1"><g transform="translate(75.157204, 117.484094)"><g><path d="M 2.734375 -20.375 C 1.304688 -20.488281 0.421875 -21.285156 0.078125 -22.765625 C 0.0234375 -23.109375 0 -23.59375 0 -24.21875 C 0 -25.976562 0.367188 -27.515625 1.109375 -28.828125 C 1.566406 -29.503906 1.9375 -29.957031 2.21875 -30.1875 C 2.675781 -30.53125 3.1875 -30.703125 3.75 -30.703125 C 4.375 -30.703125 4.800781 -30.472656 5.03125 -30.015625 C 5.375 -29.503906 5.316406 -28.96875 4.859375 -28.40625 C 3.835938 -27.320312 2.875 -26.664062 1.96875 -26.4375 C 1.332031 -26.320312 0.960938 -25.867188 0.859375 -25.078125 C 0.742188 -24.109375 0.828125 -23.3125 1.109375 -22.6875 C 1.453125 -21.832031 1.992188 -21.347656 2.734375 -21.234375 C 4.835938 -21.003906 7.675781 -22.679688 11.25 -26.265625 L 12.03125 -27.03125 C 12.195312 -27.03125 12.304688 -27.003906 12.359375 -26.953125 C 12.421875 -26.835938 12.453125 -26.75 12.453125 -26.6875 C 12.453125 -26.519531 12.394531 -26.378906 12.28125 -26.265625 C 11.03125 -24.785156 9.421875 -23.421875 7.453125 -22.171875 C 5.492188 -20.921875 3.921875 -20.320312 2.734375 -20.375 Z M 1.53125 -27.546875 C 2.726562 -28.117188 3.523438 -28.6875 3.921875 -29.25 C 4.035156 -29.3125 4.035156 -29.394531 3.921875 -29.5 C 3.921875 -29.613281 3.835938 -29.671875 3.671875 -29.671875 C 3.328125 -29.785156 3.015625 -29.703125 2.734375 -29.421875 C 2.109375 -28.910156 1.707031 -28.285156 1.53125 -27.546875 Z M 1.53125 -27.546875 "/></g></g></g><g fill="rgb(100%, 100%, 100%)" fill-opacity="1"><g transform="translate(85.902386, 117.484094)"><g><path d="M 8.53125 -17.734375 C 5.800781 -17.734375 3.722656 -18.984375 2.296875 -21.484375 C 2.242188 -21.710938 2.144531 -22.023438 2 -22.421875 C 1.863281 -22.828125 1.738281 -23.113281 1.625 -23.28125 C 0.539062 -25.4375 0.484375 -29.757812 1.453125 -36.25 C 2.359375 -42.664062 4.148438 -48.914062 6.828125 -55 C 7.898438 -57.445312 9.0625 -59.523438 10.3125 -61.234375 C 10.882812 -62.023438 11.710938 -62.929688 12.796875 -63.953125 C 13.472656 -64.523438 14.238281 -65.039062 15.09375 -65.5 C 16.175781 -65.945312 17.226562 -65.941406 18.25 -65.484375 C 19.269531 -65.035156 19.976562 -64.269531 20.375 -63.1875 C 20.71875 -62.28125 20.890625 -61.117188 20.890625 -59.703125 C 20.835938 -57.597656 20.382812 -55.378906 19.53125 -53.046875 C 18.625 -50.597656 17.0625 -47.441406 14.84375 -43.578125 C 12.050781 -38.742188 8.550781 -33.597656 4.34375 -28.140625 C 4.175781 -28.023438 3.976562 -27.796875 3.75 -27.453125 C 3.519531 -27.117188 3.347656 -26.894531 3.234375 -26.78125 C 2.785156 -26.269531 2.644531 -25.703125 2.8125 -25.078125 C 3.382812 -23.253906 3.785156 -22.144531 4.015625 -21.75 C 5.265625 -19.582031 7.140625 -18.585938 9.640625 -18.765625 C 12.023438 -19.046875 14.640625 -21.375 17.484375 -25.75 C 17.597656 -26.039062 17.828125 -26.410156 18.171875 -26.859375 C 18.222656 -26.921875 18.304688 -26.953125 18.421875 -26.953125 C 18.585938 -26.890625 18.671875 -26.742188 18.671875 -26.515625 C 18.503906 -26.179688 18.421875 -26.015625 18.421875 -26.015625 C 15.410156 -20.671875 12.113281 -17.910156 8.53125 -17.734375 Z M 2.734375 -27.625 C 2.953125 -27.738281 3.347656 -28.164062 3.921875 -28.90625 C 4.378906 -29.59375 5.242188 -30.816406 6.515625 -32.578125 C 7.796875 -34.335938 8.78125 -35.703125 9.46875 -36.671875 C 12.707031 -41.503906 15.265625 -45.851562 17.140625 -49.71875 C 18.617188 -52.613281 19.554688 -55.457031 19.953125 -58.25 C 20.179688 -60.175781 20.097656 -61.679688 19.703125 -62.765625 C 19.359375 -63.734375 18.757812 -64.375 17.90625 -64.6875 C 17.050781 -65 16.171875 -64.867188 15.265625 -64.296875 C 14.867188 -64.015625 14.328125 -63.535156 13.640625 -62.859375 C 12.109375 -61.265625 10.742188 -59.300781 9.546875 -56.96875 C 7.671875 -53.269531 6.109375 -49.148438 4.859375 -44.609375 C 3.441406 -39.597656 2.644531 -34.394531 2.46875 -29 C 2.46875 -28.3125 2.554688 -27.851562 2.734375 -27.625 Z M 2.734375 -27.625 "/></g></g></g><g fill="rgb(100%, 100%, 100%)" fill-opacity="1"><g transform="translate(102.531826, 117.484094)"><g><path d="M 2.640625 -30.875 C 2.472656 -30.875 2.34375 -30.898438 2.25 -30.953125 C 2.164062 -31.015625 2.15625 -31.101562 2.21875 -31.21875 C 2.332031 -32.238281 2.613281 -33.085938 3.0625 -33.765625 C 3.0625 -33.828125 3.207031 -33.859375 3.5 -33.859375 C 3.550781 -33.859375 3.664062 -33.769531 3.84375 -33.59375 C 3.894531 -33.488281 3.921875 -33.320312 3.921875 -33.09375 C 3.640625 -32.0625 3.441406 -31.460938 3.328125 -31.296875 C 3.148438 -31.015625 2.921875 -30.875 2.640625 -30.875 Z M 2.390625 -21.921875 C 1.078125 -22.316406 0.421875 -23.195312 0.421875 -24.5625 C 0.421875 -25.46875 0.617188 -26.289062 1.015625 -27.03125 C 1.191406 -27.375 1.476562 -27.515625 1.875 -27.453125 C 2.269531 -27.347656 2.46875 -27.09375 2.46875 -26.6875 L 2.46875 -25.75 C 2.46875 -25.519531 2.441406 -25.320312 2.390625 -25.15625 L 2.390625 -24.90625 C 2.328125 -24.28125 2.476562 -23.78125 2.84375 -23.40625 C 3.21875 -23.039062 3.71875 -22.859375 4.34375 -22.859375 C 4.800781 -22.859375 5.375 -23 6.0625 -23.28125 C 7.082031 -23.675781 8.242188 -24.382812 9.546875 -25.40625 L 11.59375 -26.953125 C 11.882812 -27.117188 12.082031 -27.175781 12.1875 -27.125 C 12.300781 -27.125 12.359375 -27.035156 12.359375 -26.859375 C 12.359375 -26.691406 12.300781 -26.609375 12.1875 -26.609375 C 9.632812 -24.503906 7.535156 -23.054688 5.890625 -22.265625 C 4.691406 -21.691406 3.523438 -21.578125 2.390625 -21.921875 Z M 2.390625 -21.921875 "/></g></g></g><g fill="rgb(100%, 100%, 100%)" fill-opacity="1"><g transform="translate(113.19173, 117.484094)"><g><path d="M 6.390625 -11.59375 C 5.367188 -11.707031 5 -12.273438 5.28125 -13.296875 C 5.394531 -13.753906 5.566406 -14.097656 5.796875 -14.328125 C 6.367188 -15.117188 6.851562 -15.6875 7.25 -16.03125 C 8.957031 -17.789062 10.863281 -19.382812 12.96875 -20.8125 L 14.671875 -22 C 13.128906 -22.507812 11.476562 -22.765625 9.71875 -22.765625 L 3.40625 -22.265625 C 2.726562 -22.265625 2.21875 -22.316406 1.875 -22.421875 C 0.738281 -22.765625 0.253906 -23.421875 0.421875 -24.390625 C 0.597656 -26.210938 1.476562 -27.660156 3.0625 -28.734375 C 3.351562 -28.960938 3.753906 -29.019531 4.265625 -28.90625 C 4.546875 -28.789062 4.753906 -28.578125 4.890625 -28.265625 C 5.035156 -27.953125 5 -27.65625 4.78125 -27.375 C 4.71875 -27.320312 4.65625 -27.25 4.59375 -27.15625 C 4.539062 -27.070312 4.472656 -27 4.390625 -26.9375 C 4.304688 -26.882812 4.234375 -26.832031 4.171875 -26.78125 C 3.890625 -26.4375 3.519531 -25.867188 3.0625 -25.078125 C 2.726562 -24.273438 2.957031 -23.847656 3.75 -23.796875 C 4.257812 -23.679688 5.03125 -23.566406 6.0625 -23.453125 C 6.507812 -23.453125 7.144531 -23.460938 7.96875 -23.484375 C 8.789062 -23.515625 9.40625 -23.53125 9.8125 -23.53125 C 11.914062 -23.53125 13.648438 -23.25 15.015625 -22.6875 C 15.296875 -22.570312 15.664062 -22.628906 16.125 -22.859375 L 22.9375 -26.859375 C 23.050781 -26.921875 23.363281 -27.035156 23.875 -27.203125 C 24.101562 -27.203125 24.25 -27.117188 24.3125 -26.953125 C 24.476562 -26.773438 24.445312 -26.628906 24.21875 -26.515625 L 19.78125 -23.875 L 16.71875 -22.09375 C 16.375 -21.863281 16.285156 -21.578125 16.453125 -21.234375 C 16.859375 -20.148438 16.773438 -19.039062 16.203125 -17.90625 C 14.441406 -14.613281 11.742188 -12.507812 8.109375 -11.59375 C 7.585938 -11.476562 7.015625 -11.476562 6.390625 -11.59375 Z M 6.65625 -12.53125 C 7.5625 -12.53125 8.269531 -12.644531 8.78125 -12.875 C 11.050781 -13.613281 12.957031 -14.976562 14.5 -16.96875 C 14.957031 -17.425781 15.328125 -18.050781 15.609375 -18.84375 L 15.859375 -19.703125 C 15.859375 -20.046875 15.832031 -20.300781 15.78125 -20.46875 C 15.78125 -21.09375 15.492188 -21.234375 14.921875 -20.890625 C 12.078125 -19.179688 9.488281 -17.109375 7.15625 -14.671875 C 6.9375 -14.441406 6.796875 -14.242188 6.734375 -14.078125 C 6.617188 -13.960938 6.503906 -13.789062 6.390625 -13.5625 C 6.222656 -13.28125 6.179688 -13.035156 6.265625 -12.828125 C 6.347656 -12.628906 6.476562 -12.53125 6.65625 -12.53125 Z M 6.65625 -12.53125 "/></g></g></g><g fill="rgb(100%, 100%, 100%)" fill-opacity="1"><g transform="translate(135.876, 117.484094)"><g><path d="M 6.390625 -11.59375 C 5.367188 -11.707031 5 -12.273438 5.28125 -13.296875 C 5.394531 -13.753906 5.566406 -14.097656 5.796875 -14.328125 C 6.367188 -15.117188 6.851562 -15.6875 7.25 -16.03125 C 8.957031 -17.789062 10.863281 -19.382812 12.96875 -20.8125 L 14.671875 -22 C 13.128906 -22.507812 11.476562 -22.765625 9.71875 -22.765625 L 3.40625 -22.265625 C 2.726562 -22.265625 2.21875 -22.316406 1.875 -22.421875 C 0.738281 -22.765625 0.253906 -23.421875 0.421875 -24.390625 C 0.597656 -26.210938 1.476562 -27.660156 3.0625 -28.734375 C 3.351562 -28.960938 3.753906 -29.019531 4.265625 -28.90625 C 4.546875 -28.789062 4.753906 -28.578125 4.890625 -28.265625 C 5.035156 -27.953125 5 -27.65625 4.78125 -27.375 C 4.71875 -27.320312 4.65625 -27.25 4.59375 -27.15625 C 4.539062 -27.070312 4.472656 -27 4.390625 -26.9375 C 4.304688 -26.882812 4.234375 -26.832031 4.171875 -26.78125 C 3.890625 -26.4375 3.519531 -25.867188 3.0625 -25.078125 C 2.726562 -24.273438 2.957031 -23.847656 3.75 -23.796875 C 4.257812 -23.679688 5.03125 -23.566406 6.0625 -23.453125 C 6.507812 -23.453125 7.144531 -23.460938 7.96875 -23.484375 C 8.789062 -23.515625 9.40625 -23.53125 9.8125 -23.53125 C 11.914062 -23.53125 13.648438 -23.25 15.015625 -22.6875 C 15.296875 -22.570312 15.664062 -22.628906 16.125 -22.859375 L 22.9375 -26.859375 C 23.050781 -26.921875 23.363281 -27.035156 23.875 -27.203125 C 24.101562 -27.203125 24.25 -27.117188 24.3125 -26.953125 C 24.476562 -26.773438 24.445312 -26.628906 24.21875 -26.515625 L 19.78125 -23.875 L 16.71875 -22.09375 C 16.375 -21.863281 16.285156 -21.578125 16.453125 -21.234375 C 16.859375 -20.148438 16.773438 -19.039062 16.203125 -17.90625 C 14.441406 -14.613281 11.742188 -12.507812 8.109375 -11.59375 C 7.585938 -11.476562 7.015625 -11.476562 6.390625 -11.59375 Z M 6.65625 -12.53125 C 7.5625 -12.53125 8.269531 -12.644531 8.78125 -12.875 C 11.050781 -13.613281 12.957031 -14.976562 14.5 -16.96875 C 14.957031 -17.425781 15.328125 -18.050781 15.609375 -18.84375 L 15.859375 -19.703125 C 15.859375 -20.046875 15.832031 -20.300781 15.78125 -20.46875 C 15.78125 -21.09375 15.492188 -21.234375 14.921875 -20.890625 C 12.078125 -19.179688 9.488281 -17.109375 7.15625 -14.671875 C 6.9375 -14.441406 6.796875 -14.242188 6.734375 -14.078125 C 6.617188 -13.960938 6.503906 -13.789062 6.390625 -13.5625 C 6.222656 -13.28125 6.179688 -13.035156 6.265625 -12.828125 C 6.347656 -12.628906 6.476562 -12.53125 6.65625 -12.53125 Z M 6.65625 -12.53125 "/></g></g></g><g fill="rgb(100%, 100%, 100%)" fill-opacity="1"><g transform="translate(158.56027, 117.484094)"><g><path d="M 10.15625 -23.453125 C 8.894531 -23.109375 8.179688 -23.59375 8.015625 -24.90625 C 7.960938 -25.582031 8.019531 -26.347656 8.1875 -27.203125 C 8.300781 -27.828125 8.328125 -28.226562 8.265625 -28.40625 C 8.160156 -28.40625 8.050781 -28.375 7.9375 -28.3125 C 7.820312 -28.257812 7.734375 -28.203125 7.671875 -28.140625 C 7.617188 -28.085938 7.546875 -28.015625 7.453125 -27.921875 C 7.367188 -27.835938 7.300781 -27.769531 7.25 -27.71875 C 5.9375 -26.582031 4.742188 -25.757812 3.671875 -25.25 C 3.265625 -25.019531 2.863281 -24.816406 2.46875 -24.640625 C 1.90625 -24.472656 1.46875 -24.53125 1.15625 -24.8125 C 0.84375 -25.101562 0.742188 -25.53125 0.859375 -26.09375 C 0.859375 -26.207031 0.910156 -26.4375 1.015625 -26.78125 C 1.359375 -27.570312 1.875 -28.222656 2.5625 -28.734375 C 3.75 -29.585938 4.941406 -29.585938 6.140625 -28.734375 L 6.21875 -28.65625 L 6.3125 -28.65625 C 6.707031 -28.375 7.046875 -28.375 7.328125 -28.65625 L 8.953125 -30.28125 C 9.234375 -30.5 9.457031 -30.523438 9.625 -30.359375 C 9.800781 -30.191406 9.832031 -30.050781 9.71875 -29.9375 C 9.664062 -29.476562 9.523438 -28.796875 9.296875 -27.890625 C 9.015625 -26.804688 8.898438 -25.8125 8.953125 -24.90625 C 9.015625 -24.445312 9.300781 -24.25 9.8125 -24.3125 C 10.664062 -24.414062 12.9375 -25.351562 16.625 -27.125 C 16.851562 -27.125 17 -27.066406 17.0625 -26.953125 C 17.175781 -26.660156 17.03125 -26.40625 16.625 -26.1875 C 13.664062 -24.707031 11.507812 -23.796875 10.15625 -23.453125 Z M 2.90625 -25.75 C 3.53125 -25.976562 4.179688 -26.289062 4.859375 -26.6875 C 5.253906 -26.976562 5.484375 -27.207031 5.546875 -27.375 C 5.597656 -27.488281 5.523438 -27.585938 5.328125 -27.671875 C 5.128906 -27.753906 4.890625 -27.796875 4.609375 -27.796875 C 4.148438 -27.679688 3.804688 -27.566406 3.578125 -27.453125 C 2.898438 -26.941406 2.445312 -26.40625 2.21875 -25.84375 C 2.5 -25.613281 2.726562 -25.582031 2.90625 -25.75 Z M 2.90625 -25.75 "/></g></g></g><g fill="rgb(100%, 100%, 100%)" fill-opacity="1"><g transform="translate(173.910525, 117.484094)"><g/></g></g><g fill="rgb(100%, 100%, 100%)" fill-opacity="1"><g transform="translate(197.788703, 117.484094)"><g><path d="M 2.734375 -22.09375 C 2.441406 -22.144531 2.039062 -22.171875 1.53125 -22.171875 C 0.0507812 -22.398438 -0.597656 -23.253906 -0.421875 -24.734375 C -0.421875 -25.128906 -0.28125 -25.613281 0 -26.1875 C 0.90625 -27.832031 2.328125 -28.96875 4.265625 -29.59375 C 4.546875 -29.644531 4.972656 -29.671875 5.546875 -29.671875 C 5.597656 -29.671875 5.796875 -29.585938 6.140625 -29.421875 C 6.367188 -29.253906 6.453125 -29.054688 6.390625 -28.828125 C 6.273438 -28.597656 6.164062 -28.484375 6.0625 -28.484375 L 5.28125 -28.234375 C 3.976562 -27.941406 2.816406 -27.171875 1.796875 -25.921875 C 1.679688 -25.804688 1.507812 -25.582031 1.28125 -25.25 C 0.539062 -23.882812 0.910156 -23.113281 2.390625 -22.9375 C 2.953125 -22.882812 3.804688 -22.914062 4.953125 -23.03125 C 6.992188 -23.425781 9.460938 -24.25 12.359375 -25.5 C 12.984375 -25.726562 13.925781 -26.125 15.1875 -26.6875 L 16.03125 -26.953125 C 16.195312 -26.953125 16.3125 -26.835938 16.375 -26.609375 C 16.375 -26.441406 16.34375 -26.359375 16.28125 -26.359375 C 16.0625 -26.128906 15.863281 -25.984375 15.6875 -25.921875 C 14.78125 -25.578125 13.457031 -25.09375 11.71875 -24.46875 C 9.988281 -23.84375 8.671875 -23.363281 7.765625 -23.03125 C 7.585938 -22.96875 6.59375 -22.710938 4.78125 -22.265625 C 4.550781 -22.203125 4.207031 -22.171875 3.75 -22.171875 C 3.289062 -22.171875 2.953125 -22.144531 2.734375 -22.09375 Z M 2.734375 -22.09375 "/></g></g></g><g fill="rgb(100%, 100%, 100%)" fill-opacity="1"><g transform="translate(212.456719, 117.484094)"><g><path d="M 5.109375 -16.96875 C 3.921875 -17.082031 3.15625 -17.679688 2.8125 -18.765625 C 2.695312 -19.160156 2.640625 -19.84375 2.640625 -20.8125 C 2.703125 -21.320312 2.785156 -21.898438 2.890625 -22.546875 C 3.003906 -23.203125 3.078125 -23.644531 3.109375 -23.875 C 3.140625 -24.101562 3.140625 -24.359375 3.109375 -24.640625 C 3.078125 -24.929688 3.003906 -25.144531 2.890625 -25.28125 C 2.785156 -25.425781 2.617188 -25.582031 2.390625 -25.75 C 1.816406 -26.09375 1.304688 -26.519531 0.859375 -27.03125 C -0.222656 -28.394531 -0.0820312 -29.585938 1.28125 -30.609375 C 1.738281 -30.898438 2.175781 -30.945312 2.59375 -30.75 C 3.019531 -30.550781 3.265625 -30.191406 3.328125 -29.671875 C 3.378906 -29.453125 3.347656 -29.054688 3.234375 -28.484375 C 3.234375 -28.429688 3.09375 -28.0625 2.8125 -27.375 C 2.644531 -27.144531 2.675781 -26.914062 2.90625 -26.6875 C 3.070312 -26.519531 3.210938 -26.410156 3.328125 -26.359375 C 4.296875 -25.617188 4.75 -24.535156 4.6875 -23.109375 C 4.6875 -22.828125 4.671875 -22.398438 4.640625 -21.828125 C 4.617188 -21.265625 4.609375 -20.835938 4.609375 -20.546875 C 4.609375 -20.210938 4.664062 -19.757812 4.78125 -19.1875 C 4.945312 -18.5625 5.375 -18.25 6.0625 -18.25 C 6.507812 -18.300781 7.046875 -18.472656 7.671875 -18.765625 C 8.753906 -19.210938 9.835938 -19.894531 10.921875 -20.8125 C 11.429688 -21.207031 12.535156 -22.097656 14.234375 -23.484375 C 15.941406 -24.878906 17.050781 -25.78125 17.5625 -26.1875 C 18.019531 -26.519531 18.390625 -26.773438 18.671875 -26.953125 C 18.734375 -27.003906 18.789062 -27.015625 18.84375 -26.984375 C 18.90625 -26.960938 18.9375 -26.921875 18.9375 -26.859375 C 19.050781 -26.742188 19.078125 -26.660156 19.015625 -26.609375 C 18.847656 -26.328125 18.734375 -26.15625 18.671875 -26.09375 C 17.929688 -25.46875 16.550781 -24.34375 14.53125 -22.71875 C 12.519531 -21.101562 11.316406 -20.15625 10.921875 -19.875 C 9.953125 -19.019531 8.695312 -18.222656 7.15625 -17.484375 C 6.59375 -17.140625 5.910156 -16.96875 5.109375 -16.96875 Z M 1.703125 -27.796875 L 1.875 -27.890625 L 2.046875 -27.96875 C 2.328125 -28.425781 2.46875 -28.882812 2.46875 -29.34375 C 2.46875 -29.445312 2.382812 -29.585938 2.21875 -29.765625 C 2.101562 -29.878906 1.929688 -29.878906 1.703125 -29.765625 C 1.078125 -29.304688 0.992188 -28.738281 1.453125 -28.0625 Z M 1.703125 -27.796875 "/></g></g></g><g fill="rgb(100%, 100%, 100%)" fill-opacity="1"><g transform="translate(229.768399, 117.484094)"><g><path d="M 12.625 -27.203125 C 12.789062 -27.203125 12.816406 -27.101562 12.703125 -26.90625 C 12.585938 -26.707031 12.332031 -26.609375 11.9375 -26.609375 L 7.15625 -26.359375 L 6.390625 -26.359375 C 6.390625 -26.296875 6.375 -26.175781 6.34375 -26 C 6.320312 -25.832031 6.3125 -25.691406 6.3125 -25.578125 C 6.082031 -24.671875 5.851562 -23.988281 5.625 -23.53125 C 5.28125 -22.851562 4.851562 -22.257812 4.34375 -21.75 C 3.15625 -20.832031 2.101562 -20.972656 1.1875 -22.171875 C 0.675781 -22.742188 0.421875 -23.625 0.421875 -24.8125 C 0.535156 -26.007812 1.019531 -27.175781 1.875 -28.3125 C 2.5 -28.9375 3.007812 -29.132812 3.40625 -28.90625 C 3.519531 -28.851562 3.550781 -28.738281 3.5 -28.5625 C 3.84375 -28.675781 4.125 -28.734375 4.34375 -28.734375 C 5.3125 -28.734375 5.9375 -28.222656 6.21875 -27.203125 L 7.15625 -27.203125 C 8.007812 -27.265625 9.546875 -27.296875 11.765625 -27.296875 C 11.828125 -27.296875 11.957031 -27.28125 12.15625 -27.25 C 12.351562 -27.21875 12.507812 -27.203125 12.625 -27.203125 Z M 5.375 -27.203125 C 5.03125 -28.171875 4.546875 -28.484375 3.921875 -28.140625 C 3.753906 -28.023438 3.671875 -27.882812 3.671875 -27.71875 C 3.671875 -27.375 4.238281 -27.203125 5.375 -27.203125 Z M 4.171875 -22.765625 C 4.972656 -23.503906 5.429688 -24.554688 5.546875 -25.921875 L 5.546875 -26.359375 C 3.890625 -26.460938 3.0625 -26.914062 3.0625 -27.71875 L 3.0625 -27.96875 C 2.101562 -26.664062 1.820312 -25.128906 2.21875 -23.359375 C 2.332031 -22.796875 2.585938 -22.457031 2.984375 -22.34375 C 3.378906 -22.226562 3.773438 -22.367188 4.171875 -22.765625 Z M 4.171875 -22.765625 "/></g></g></g><g fill="rgb(100%, 100%, 100%)" fill-opacity="1"><g transform="translate(240.854693, 117.484094)"><g><path d="M 2.734375 -22.09375 C 2.441406 -22.144531 2.039062 -22.171875 1.53125 -22.171875 C 0.0507812 -22.398438 -0.597656 -23.253906 -0.421875 -24.734375 C -0.421875 -25.128906 -0.28125 -25.613281 0 -26.1875 C 0.90625 -27.832031 2.328125 -28.96875 4.265625 -29.59375 C 4.546875 -29.644531 4.972656 -29.671875 5.546875 -29.671875 C 5.597656 -29.671875 5.796875 -29.585938 6.140625 -29.421875 C 6.367188 -29.253906 6.453125 -29.054688 6.390625 -28.828125 C 6.273438 -28.597656 6.164062 -28.484375 6.0625 -28.484375 L 5.28125 -28.234375 C 3.976562 -27.941406 2.816406 -27.171875 1.796875 -25.921875 C 1.679688 -25.804688 1.507812 -25.582031 1.28125 -25.25 C 0.539062 -23.882812 0.910156 -23.113281 2.390625 -22.9375 C 2.953125 -22.882812 3.804688 -22.914062 4.953125 -23.03125 C 6.992188 -23.425781 9.460938 -24.25 12.359375 -25.5 C 12.984375 -25.726562 13.925781 -26.125 15.1875 -26.6875 L 16.03125 -26.953125 C 16.195312 -26.953125 16.3125 -26.835938 16.375 -26.609375 C 16.375 -26.441406 16.34375 -26.359375 16.28125 -26.359375 C 16.0625 -26.128906 15.863281 -25.984375 15.6875 -25.921875 C 14.78125 -25.578125 13.457031 -25.09375 11.71875 -24.46875 C 9.988281 -23.84375 8.671875 -23.363281 7.765625 -23.03125 C 7.585938 -22.96875 6.59375 -22.710938 4.78125 -22.265625 C 4.550781 -22.203125 4.207031 -22.171875 3.75 -22.171875 C 3.289062 -22.171875 2.953125 -22.144531 2.734375 -22.09375 Z M 2.734375 -22.09375 "/></g></g></g><g fill="rgb(100%, 100%, 100%)" fill-opacity="1"><g transform="translate(255.522709, 117.484094)"><g><path d="M 1.359375 -14.15625 C 1.078125 -14.15625 0.9375 -14.296875 0.9375 -14.578125 C 0.882812 -14.804688 0.859375 -15.148438 0.859375 -15.609375 C 0.910156 -20.609375 1.222656 -25.867188 1.796875 -31.390625 C 2.359375 -36.554688 3.207031 -41.84375 4.34375 -47.25 C 5.488281 -52.820312 7.082031 -57.597656 9.125 -61.578125 C 10.03125 -63.273438 10.910156 -64.664062 11.765625 -65.75 C 12.335938 -66.550781 13.050781 -67.289062 13.90625 -67.96875 L 15.1875 -68.734375 C 16.257812 -69.191406 17.265625 -69.207031 18.203125 -68.78125 C 19.140625 -68.351562 19.753906 -67.570312 20.046875 -66.4375 C 20.328125 -65.238281 20.410156 -63.988281 20.296875 -62.6875 C 19.722656 -56.65625 17.929688 -50.710938 14.921875 -44.859375 C 13.835938 -42.804688 13.007812 -41.28125 12.4375 -40.28125 C 11.875 -39.289062 11.363281 -38.351562 10.90625 -37.46875 C 10.457031 -36.59375 9.976562 -35.800781 9.46875 -35.09375 C 8.957031 -34.382812 8.53125 -33.785156 8.1875 -33.296875 C 7.84375 -32.816406 7.160156 -31.90625 6.140625 -30.5625 C 5.117188 -29.226562 4.207031 -28.050781 3.40625 -27.03125 C 2.894531 -26.46875 2.835938 -25.726562 3.234375 -24.8125 C 5.847656 -29.820312 8.320312 -32.863281 10.65625 -33.9375 C 11.789062 -34.394531 12.644531 -34.394531 13.21875 -33.9375 C 13.789062 -33.488281 14.019531 -32.640625 13.90625 -31.390625 C 13.84375 -30.765625 13.472656 -29.9375 12.796875 -28.90625 C 10.972656 -26.351562 8.753906 -24.5625 6.140625 -23.53125 L 4.78125 -23.03125 C 4.832031 -22.738281 5.054688 -22.535156 5.453125 -22.421875 C 7.160156 -21.796875 9.066406 -21.484375 11.171875 -21.484375 C 15.210938 -21.484375 18.765625 -22.679688 21.828125 -25.078125 C 21.890625 -25.128906 22.1875 -25.351562 22.71875 -25.75 C 23.257812 -26.15625 23.675781 -26.46875 23.96875 -26.6875 C 24.082031 -26.863281 24.28125 -26.976562 24.5625 -27.03125 L 24.640625 -26.953125 C 24.753906 -26.835938 24.8125 -26.75 24.8125 -26.6875 C 24.695312 -26.46875 24.613281 -26.328125 24.5625 -26.265625 C 19.101562 -21.148438 12.878906 -19.472656 5.890625 -21.234375 C 5.660156 -21.285156 5.414062 -21.351562 5.15625 -21.4375 C 4.90625 -21.53125 4.625 -21.632812 4.3125 -21.75 C 4 -21.863281 3.753906 -21.945312 3.578125 -22 C 3.347656 -22.113281 3.175781 -22.054688 3.0625 -21.828125 C 2.78125 -21.148438 2.613281 -20.5 2.5625 -19.875 L 2.296875 -15.609375 C 2.179688 -14.921875 2.070312 -14.519531 1.96875 -14.40625 C 1.90625 -14.238281 1.703125 -14.15625 1.359375 -14.15625 Z M 3.40625 -28.734375 C 3.582031 -28.796875 3.738281 -28.894531 3.875 -29.03125 C 4.019531 -29.175781 4.148438 -29.332031 4.265625 -29.5 C 4.378906 -29.675781 4.460938 -29.789062 4.515625 -29.84375 C 7.703125 -33.9375 11.171875 -39.679688 14.921875 -47.078125 C 17.191406 -51.566406 18.644531 -56.367188 19.28125 -61.484375 C 19.5 -63.191406 19.5 -64.613281 19.28125 -65.75 C 18.988281 -67 18.398438 -67.722656 17.515625 -67.921875 C 16.640625 -68.117188 15.863281 -67.878906 15.1875 -67.203125 L 14.578125 -66.609375 C 13.898438 -65.984375 13.191406 -65.097656 12.453125 -63.953125 C 11.203125 -61.960938 9.976562 -59.40625 8.78125 -56.28125 C 7.644531 -53.15625 6.625 -49.429688 5.71875 -45.109375 C 4.6875 -40.390625 3.914062 -35.613281 3.40625 -30.78125 C 3.289062 -29.925781 3.289062 -29.242188 3.40625 -28.734375 Z M 4.171875 -24.140625 L 4.6875 -24.140625 C 7.8125 -24.984375 10.367188 -26.972656 12.359375 -30.109375 C 12.648438 -30.554688 12.851562 -31.09375 12.96875 -31.71875 C 13.082031 -32.40625 12.9375 -32.921875 12.53125 -33.265625 C 12.195312 -33.484375 11.71875 -33.425781 11.09375 -33.09375 C 9.945312 -32.6875 8.835938 -31.832031 7.765625 -30.53125 C 6.628906 -29.164062 5.40625 -27.144531 4.09375 -24.46875 L 4.09375 -24.390625 C 4.144531 -24.273438 4.171875 -24.191406 4.171875 -24.140625 Z M 4.171875 -24.140625 "/></g></g></g><g fill="rgb(100%, 100%, 100%)" fill-opacity="1"><g transform="translate(278.63337, 117.484094)"><g><path d="M 2.734375 -20.375 C 1.304688 -20.488281 0.421875 -21.285156 0.078125 -22.765625 C 0.0234375 -23.109375 0 -23.59375 0 -24.21875 C 0 -25.976562 0.367188 -27.515625 1.109375 -28.828125 C 1.566406 -29.503906 1.9375 -29.957031 2.21875 -30.1875 C 2.675781 -30.53125 3.1875 -30.703125 3.75 -30.703125 C 4.375 -30.703125 4.800781 -30.472656 5.03125 -30.015625 C 5.375 -29.503906 5.316406 -28.96875 4.859375 -28.40625 C 3.835938 -27.320312 2.875 -26.664062 1.96875 -26.4375 C 1.332031 -26.320312 0.960938 -25.867188 0.859375 -25.078125 C 0.742188 -24.109375 0.828125 -23.3125 1.109375 -22.6875 C 1.453125 -21.832031 1.992188 -21.347656 2.734375 -21.234375 C 4.835938 -21.003906 7.675781 -22.679688 11.25 -26.265625 L 12.03125 -27.03125 C 12.195312 -27.03125 12.304688 -27.003906 12.359375 -26.953125 C 12.421875 -26.835938 12.453125 -26.75 12.453125 -26.6875 C 12.453125 -26.519531 12.394531 -26.378906 12.28125 -26.265625 C 11.03125 -24.785156 9.421875 -23.421875 7.453125 -22.171875 C 5.492188 -20.921875 3.921875 -20.320312 2.734375 -20.375 Z M 1.53125 -27.546875 C 2.726562 -28.117188 3.523438 -28.6875 3.921875 -29.25 C 4.035156 -29.3125 4.035156 -29.394531 3.921875 -29.5 C 3.921875 -29.613281 3.835938 -29.671875 3.671875 -29.671875 C 3.328125 -29.785156 3.015625 -29.703125 2.734375 -29.421875 C 2.109375 -28.910156 1.707031 -28.285156 1.53125 -27.546875 Z M 1.53125 -27.546875 "/></g></g></g><g fill="rgb(100%, 100%, 100%)" fill-opacity="1"><g transform="translate(289.378552, 117.484094)"><g><path d="M 37.953125 -47.75 C 38.003906 -47.75 38.03125 -47.722656 38.03125 -47.671875 C 38.03125 -47.617188 38.003906 -47.59375 37.953125 -47.59375 L 37.609375 -47.25 C 36.359375 -46.5625 35.222656 -46.078125 34.203125 -45.796875 C 31.921875 -45.285156 29.25 -45.03125 26.1875 -45.03125 C 25.445312 -45.03125 22.503906 -45.054688 17.359375 -45.109375 C 12.210938 -45.171875 9.015625 -45.203125 7.765625 -45.203125 L 6.21875 -45.203125 C 5.3125 -41.671875 4.832031 -39.765625 4.78125 -39.484375 C 3.414062 -33.796875 2.5625 -27.570312 2.21875 -20.8125 C 2.101562 -19.101562 2.21875 -17.507812 2.5625 -16.03125 C 2.789062 -15.007812 3.015625 -14.300781 3.234375 -13.90625 C 3.753906 -12.65625 4.664062 -12.3125 5.96875 -12.875 C 6.195312 -12.988281 6.539062 -13.21875 7 -13.5625 C 8.414062 -14.53125 9.691406 -15.78125 10.828125 -17.3125 C 12.191406 -19.132812 14.179688 -21.921875 16.796875 -25.671875 C 17.484375 -26.523438 17.941406 -26.976562 18.171875 -27.03125 C 18.222656 -26.800781 18.234375 -26.65625 18.203125 -26.59375 C 18.179688 -26.539062 18.039062 -26.328125 17.78125 -25.953125 C 17.519531 -25.585938 17.363281 -25.378906 17.3125 -25.328125 C 15.207031 -22.316406 13.046875 -19.390625 10.828125 -16.546875 C 9.691406 -15.117188 8.554688 -13.953125 7.421875 -13.046875 C 6.960938 -12.648438 6.476562 -12.335938 5.96875 -12.109375 C 4.769531 -11.367188 3.660156 -11.625 2.640625 -12.875 C 2.296875 -13.269531 1.984375 -13.867188 1.703125 -14.671875 C 1.140625 -16.378906 0.859375 -18.226562 0.859375 -20.21875 C 0.742188 -24.707031 1.023438 -29.054688 1.703125 -33.265625 C 2.210938 -36.835938 3.007812 -40.816406 4.09375 -45.203125 C -0.394531 -45.203125 -5.113281 -44.945312 -10.0625 -44.4375 C -12.625 -44.207031 -14.53125 -43.894531 -15.78125 -43.5 C -17.144531 -42.976562 -17.96875 -42.4375 -18.25 -41.875 C -18.25 -41.8125 -18.332031 -41.78125 -18.5 -41.78125 C -18.675781 -41.957031 -18.765625 -42.101562 -18.765625 -42.21875 C -18.816406 -42.550781 -18.671875 -42.890625 -18.328125 -43.234375 C -17.929688 -43.578125 -17.394531 -43.863281 -16.71875 -44.09375 C -15.582031 -44.539062 -14.070312 -44.878906 -12.1875 -45.109375 C -6.90625 -45.734375 -1.875 -46.046875 2.90625 -46.046875 L 4.265625 -46.046875 C 4.265625 -46.222656 4.304688 -46.476562 4.390625 -46.8125 C 4.472656 -47.15625 4.546875 -47.441406 4.609375 -47.671875 C 5.628906 -51.484375 7.21875 -55.863281 9.375 -60.8125 C 9.488281 -60.976562 9.628906 -61.257812 9.796875 -61.65625 C 9.972656 -62.050781 10.117188 -62.363281 10.234375 -62.59375 L 10.65625 -63.359375 C 11 -63.929688 11.367188 -64.128906 11.765625 -63.953125 C 12.160156 -63.785156 12.273438 -63.390625 12.109375 -62.765625 C 12.054688 -62.367188 11.914062 -61.828125 11.6875 -61.140625 C 11.457031 -60.515625 11.128906 -59.632812 10.703125 -58.5 C 10.273438 -57.363281 9.976562 -56.597656 9.8125 -56.203125 C 8.5625 -52.960938 7.566406 -50.0625 6.828125 -47.5 L 6.390625 -45.96875 C 12.535156 -45.851562 17.03125 -45.796875 19.875 -45.796875 C 20.613281 -45.796875 21.765625 -45.765625 23.328125 -45.703125 C 24.890625 -45.648438 26.066406 -45.625 26.859375 -45.625 C 28.515625 -45.625 30.535156 -45.820312 32.921875 -46.21875 C 34.109375 -46.507812 35.441406 -46.992188 36.921875 -47.671875 L 37.6875 -47.921875 C 37.75 -47.921875 37.835938 -47.863281 37.953125 -47.75 Z M 37.953125 -47.75 "/></g></g></g><g fill="rgb(100%, 100%, 100%)" fill-opacity="1"><g transform="translate(305.666866, 117.484094)"><g><path d="M 37.953125 -47.75 C 38.003906 -47.75 38.03125 -47.722656 38.03125 -47.671875 C 38.03125 -47.617188 38.003906 -47.59375 37.953125 -47.59375 L 37.609375 -47.25 C 36.359375 -46.5625 35.222656 -46.078125 34.203125 -45.796875 C 31.921875 -45.285156 29.25 -45.03125 26.1875 -45.03125 C 25.445312 -45.03125 22.503906 -45.054688 17.359375 -45.109375 C 12.210938 -45.171875 9.015625 -45.203125 7.765625 -45.203125 L 6.21875 -45.203125 C 5.3125 -41.671875 4.832031 -39.765625 4.78125 -39.484375 C 3.414062 -33.796875 2.5625 -27.570312 2.21875 -20.8125 C 2.101562 -19.101562 2.21875 -17.507812 2.5625 -16.03125 C 2.789062 -15.007812 3.015625 -14.300781 3.234375 -13.90625 C 3.753906 -12.65625 4.664062 -12.3125 5.96875 -12.875 C 6.195312 -12.988281 6.539062 -13.21875 7 -13.5625 C 8.414062 -14.53125 9.691406 -15.78125 10.828125 -17.3125 C 12.191406 -19.132812 14.179688 -21.921875 16.796875 -25.671875 C 17.484375 -26.523438 17.941406 -26.976562 18.171875 -27.03125 C 18.222656 -26.800781 18.234375 -26.65625 18.203125 -26.59375 C 18.179688 -26.539062 18.039062 -26.328125 17.78125 -25.953125 C 17.519531 -25.585938 17.363281 -25.378906 17.3125 -25.328125 C 15.207031 -22.316406 13.046875 -19.390625 10.828125 -16.546875 C 9.691406 -15.117188 8.554688 -13.953125 7.421875 -13.046875 C 6.960938 -12.648438 6.476562 -12.335938 5.96875 -12.109375 C 4.769531 -11.367188 3.660156 -11.625 2.640625 -12.875 C 2.296875 -13.269531 1.984375 -13.867188 1.703125 -14.671875 C 1.140625 -16.378906 0.859375 -18.226562 0.859375 -20.21875 C 0.742188 -24.707031 1.023438 -29.054688 1.703125 -33.265625 C 2.210938 -36.835938 3.007812 -40.816406 4.09375 -45.203125 C -0.394531 -45.203125 -5.113281 -44.945312 -10.0625 -44.4375 C -12.625 -44.207031 -14.53125 -43.894531 -15.78125 -43.5 C -17.144531 -42.976562 -17.96875 -42.4375 -18.25 -41.875 C -18.25 -41.8125 -18.332031 -41.78125 -18.5 -41.78125 C -18.675781 -41.957031 -18.765625 -42.101562 -18.765625 -42.21875 C -18.816406 -42.550781 -18.671875 -42.890625 -18.328125 -43.234375 C -17.929688 -43.578125 -17.394531 -43.863281 -16.71875 -44.09375 C -15.582031 -44.539062 -14.070312 -44.878906 -12.1875 -45.109375 C -6.90625 -45.734375 -1.875 -46.046875 2.90625 -46.046875 L 4.265625 -46.046875 C 4.265625 -46.222656 4.304688 -46.476562 4.390625 -46.8125 C 4.472656 -47.15625 4.546875 -47.441406 4.609375 -47.671875 C 5.628906 -51.484375 7.21875 -55.863281 9.375 -60.8125 C 9.488281 -60.976562 9.628906 -61.257812 9.796875 -61.65625 C 9.972656 -62.050781 10.117188 -62.363281 10.234375 -62.59375 L 10.65625 -63.359375 C 11 -63.929688 11.367188 -64.128906 11.765625 -63.953125 C 12.160156 -63.785156 12.273438 -63.390625 12.109375 -62.765625 C 12.054688 -62.367188 11.914062 -61.828125 11.6875 -61.140625 C 11.457031 -60.515625 11.128906 -59.632812 10.703125 -58.5 C 10.273438 -57.363281 9.976562 -56.597656 9.8125 -56.203125 C 8.5625 -52.960938 7.566406 -50.0625 6.828125 -47.5 L 6.390625 -45.96875 C 12.535156 -45.851562 17.03125 -45.796875 19.875 -45.796875 C 20.613281 -45.796875 21.765625 -45.765625 23.328125 -45.703125 C 24.890625 -45.648438 26.066406 -45.625 26.859375 -45.625 C 28.515625 -45.625 30.535156 -45.820312 32.921875 -46.21875 C 34.109375 -46.507812 35.441406 -46.992188 36.921875 -47.671875 L 37.6875 -47.921875 C 37.75 -47.921875 37.835938 -47.863281 37.953125 -47.75 Z M 37.953125 -47.75 "/></g></g></g><g fill="rgb(100%, 100%, 100%)" fill-opacity="1"><g transform="translate(130.270458, 136.073395)"><g><path d="M 3.21875 -4.015625 C 3.050781 -4.109375 2.867188 -4.179688 2.671875 -4.234375 C 2.472656 -4.296875 2.285156 -4.328125 2.109375 -4.328125 C 1.835938 -4.328125 1.625 -4.265625 1.46875 -4.140625 C 1.3125 -4.023438 1.234375 -3.863281 1.234375 -3.65625 C 1.234375 -3.457031 1.320312 -3.289062 1.5 -3.15625 C 1.6875 -3.03125 1.953125 -2.90625 2.296875 -2.78125 C 2.546875 -2.6875 2.753906 -2.585938 2.921875 -2.484375 C 3.097656 -2.378906 3.242188 -2.234375 3.359375 -2.046875 C 3.472656 -1.859375 3.53125 -1.625 3.53125 -1.34375 C 3.53125 -1.070312 3.460938 -0.832031 3.328125 -0.625 C 3.203125 -0.414062 3.019531 -0.25 2.78125 -0.125 C 2.539062 -0.0078125 2.257812 0.046875 1.9375 0.046875 C 1.632812 0.046875 1.34375 0 1.0625 -0.09375 C 0.78125 -0.1875 0.535156 -0.304688 0.328125 -0.453125 L 0.625 -0.984375 C 0.789062 -0.859375 0.988281 -0.75 1.21875 -0.65625 C 1.457031 -0.570312 1.675781 -0.53125 1.875 -0.53125 C 2.132812 -0.53125 2.363281 -0.597656 2.5625 -0.734375 C 2.757812 -0.867188 2.859375 -1.066406 2.859375 -1.328125 C 2.859375 -1.554688 2.773438 -1.734375 2.609375 -1.859375 C 2.441406 -1.992188 2.210938 -2.117188 1.921875 -2.234375 C 1.640625 -2.335938 1.40625 -2.4375 1.21875 -2.53125 C 1.039062 -2.632812 0.882812 -2.773438 0.75 -2.953125 C 0.625 -3.128906 0.5625 -3.347656 0.5625 -3.609375 C 0.5625 -3.984375 0.695312 -4.289062 0.96875 -4.53125 C 1.238281 -4.769531 1.585938 -4.894531 2.015625 -4.90625 C 2.535156 -4.90625 3.019531 -4.773438 3.46875 -4.515625 Z M 3.21875 -4.015625 "/></g></g></g><g fill="rgb(100%, 100%, 100%)" fill-opacity="1"><g transform="translate(136.108227, 136.073395)"><g><path d="M 0.390625 -2.4375 C 0.390625 -2.882812 0.503906 -3.296875 0.734375 -3.671875 C 0.960938 -4.054688 1.265625 -4.363281 1.640625 -4.59375 C 2.023438 -4.820312 2.441406 -4.9375 2.890625 -4.9375 C 3.335938 -4.9375 3.75 -4.820312 4.125 -4.59375 C 4.507812 -4.363281 4.816406 -4.054688 5.046875 -3.671875 C 5.273438 -3.296875 5.390625 -2.882812 5.390625 -2.4375 C 5.390625 -1.988281 5.273438 -1.570312 5.046875 -1.1875 C 4.828125 -0.800781 4.523438 -0.5 4.140625 -0.28125 C 3.753906 -0.0625 3.335938 0.046875 2.890625 0.046875 C 2.441406 0.046875 2.023438 -0.0625 1.640625 -0.28125 C 1.253906 -0.5 0.945312 -0.796875 0.71875 -1.171875 C 0.5 -1.554688 0.390625 -1.976562 0.390625 -2.4375 Z M 1.078125 -2.4375 C 1.078125 -2.101562 1.15625 -1.789062 1.3125 -1.5 C 1.476562 -1.21875 1.703125 -0.992188 1.984375 -0.828125 C 2.265625 -0.660156 2.570312 -0.578125 2.90625 -0.578125 C 3.238281 -0.578125 3.539062 -0.660156 3.8125 -0.828125 C 4.09375 -0.992188 4.3125 -1.21875 4.46875 -1.5 C 4.632812 -1.789062 4.71875 -2.101562 4.71875 -2.4375 C 4.71875 -2.769531 4.632812 -3.082031 4.46875 -3.375 C 4.300781 -3.664062 4.078125 -3.894531 3.796875 -4.0625 C 3.523438 -4.226562 3.222656 -4.3125 2.890625 -4.3125 C 2.554688 -4.3125 2.25 -4.222656 1.96875 -4.046875 C 1.6875 -3.878906 1.46875 -3.648438 1.3125 -3.359375 C 1.15625 -3.078125 1.078125 -2.769531 1.078125 -2.4375 Z M 1.078125 -2.4375 "/></g></g></g><g fill="rgb(100%, 100%, 100%)" fill-opacity="1"><g transform="translate(143.804082, 136.073395)"><g><path d="M 3.59375 -4.875 L 3.59375 -4.25 L 1.359375 -4.25 L 1.359375 -2.703125 L 3.328125 -2.703125 L 3.328125 -2.078125 L 1.359375 -2.078125 L 1.359375 0 L 0.703125 0 L 0.703125 -4.875 Z M 3.59375 -4.875 "/></g></g></g><g fill="rgb(100%, 100%, 100%)" fill-opacity="1"><g transform="translate(149.689148, 136.073395)"><g><path d="M 3.578125 -4.875 L 3.578125 -4.25 L 2.28125 -4.25 L 2.28125 0 L 1.625 0 L 1.625 -4.25 L 0.34375 -4.25 L 0.34375 -4.875 Z M 3.578125 -4.875 "/></g></g></g><g fill="rgb(100%, 100%, 100%)" fill-opacity="1"><g transform="translate(155.526916, 136.073395)"><g><path d="M 4.609375 0.21875 L 3.46875 -2.703125 L 2.21875 0.234375 L 0.28125 -4.859375 L 1.046875 -4.859375 L 2.296875 -1.3125 L 3.140625 -3.53125 L 2.625 -4.859375 L 3.28125 -4.859375 L 4.625 -1.390625 L 5.828125 -4.859375 L 6.53125 -4.859375 Z M 4.609375 0.21875 "/></g></g></g><g fill="rgb(100%, 100%, 100%)" fill-opacity="1"><g transform="translate(164.24303, 136.073395)"><g><path d="M 3.265625 -1.28125 L 1.390625 -1.28125 L 0.859375 0 L 0.21875 0 L 2.34375 -5.078125 L 2.390625 -5.078125 L 4.515625 0 L 3.765625 0 Z M 3.03125 -1.84375 L 2.34375 -3.625 L 1.625 -1.84375 Z M 3.03125 -1.84375 "/></g></g></g><g fill="rgb(100%, 100%, 100%)" fill-opacity="1"><g transform="translate(170.884846, 136.073395)"><g><path d="M 3.390625 0 L 2.234375 -1.796875 C 2.203125 -1.796875 2.148438 -1.796875 2.078125 -1.796875 L 1.359375 -1.796875 L 1.359375 0 L 0.703125 0 L 0.703125 -4.875 L 2 -4.875 C 2.332031 -4.875 2.628906 -4.816406 2.890625 -4.703125 C 3.148438 -4.585938 3.351562 -4.414062 3.5 -4.1875 C 3.65625 -3.957031 3.734375 -3.6875 3.734375 -3.375 C 3.734375 -3.070312 3.664062 -2.789062 3.53125 -2.53125 C 3.394531 -2.28125 3.191406 -2.09375 2.921875 -1.96875 L 4.15625 0 Z M 2.0625 -2.4375 C 2.414062 -2.4375 2.671875 -2.523438 2.828125 -2.703125 C 2.984375 -2.890625 3.0625 -3.101562 3.0625 -3.34375 C 3.0625 -3.488281 3.023438 -3.628906 2.953125 -3.765625 C 2.890625 -3.898438 2.785156 -4.015625 2.640625 -4.109375 C 2.503906 -4.203125 2.328125 -4.25 2.109375 -4.25 L 1.359375 -4.25 L 1.359375 -2.4375 Z M 2.0625 -2.4375 "/></g></g></g><g fill="rgb(100%, 100%, 100%)" fill-opacity="1"><g transform="translate(177.249637, 136.073395)"><g><path d="M 3.875 -4.875 L 3.875 -4.25 L 1.359375 -4.25 L 1.359375 -2.765625 L 3.609375 -2.765625 L 3.609375 -2.140625 L 1.359375 -2.140625 L 1.359375 -0.640625 L 3.96875 -0.640625 L 3.96875 0 L 0.703125 0 L 0.703125 -4.875 Z M 3.875 -4.875 "/></g></g></g><g fill="rgb(100%, 100%, 100%)" fill-opacity="1"><g transform="translate(183.567131, 136.073395)"><g/></g></g><g fill="rgb(100%, 100%, 100%)" fill-opacity="1"><g transform="translate(187.607617, 136.073395)"><g><path d="M 0.703125 -4.875 L 2.03125 -4.875 C 2.644531 -4.875 3.148438 -4.753906 3.546875 -4.515625 C 3.941406 -4.273438 4.226562 -3.960938 4.40625 -3.578125 C 4.59375 -3.203125 4.6875 -2.800781 4.6875 -2.375 C 4.6875 -1.90625 4.578125 -1.488281 4.359375 -1.125 C 4.140625 -0.769531 3.84375 -0.492188 3.46875 -0.296875 C 3.101562 -0.0976562 2.707031 0 2.28125 0 L 0.703125 0 Z M 2.140625 -0.640625 C 2.503906 -0.640625 2.828125 -0.707031 3.109375 -0.84375 C 3.390625 -0.988281 3.609375 -1.195312 3.765625 -1.46875 C 3.929688 -1.738281 4.015625 -2.0625 4.015625 -2.4375 C 4.015625 -2.8125 3.929688 -3.132812 3.765625 -3.40625 C 3.597656 -3.6875 3.375 -3.894531 3.09375 -4.03125 C 2.820312 -4.175781 2.523438 -4.25 2.203125 -4.25 L 1.359375 -4.25 L 1.359375 -0.640625 Z M 2.140625 -0.640625 "/></g></g></g><g fill="rgb(100%, 100%, 100%)" fill-opacity="1"><g transform="translate(194.607536, 136.073395)"><g><path d="M 3.875 -4.875 L 3.875 -4.25 L 1.359375 -4.25 L 1.359375 -2.765625 L 3.609375 -2.765625 L 3.609375 -2.140625 L 1.359375 -2.140625 L 1.359375 -0.640625 L 3.96875 -0.640625 L 3.96875 0 L 0.703125 0 L 0.703125 -4.875 Z M 3.875 -4.875 "/></g></g></g><g fill="rgb(100%, 100%, 100%)" fill-opacity="1"><g transform="translate(200.92503, 136.073395)"><g><path d="M 4.578125 -4.875 L 2.4375 0.234375 L 0.28125 -4.875 L 1.046875 -4.875 L 2.453125 -1.359375 L 3.8125 -4.875 Z M 4.578125 -4.875 "/></g></g></g><g fill="rgb(100%, 100%, 100%)" fill-opacity="1"><g transform="translate(207.688467, 136.073395)"><g><path d="M 3.875 -4.875 L 3.875 -4.25 L 1.359375 -4.25 L 1.359375 -2.765625 L 3.609375 -2.765625 L 3.609375 -2.140625 L 1.359375 -2.140625 L 1.359375 -0.640625 L 3.96875 -0.640625 L 3.96875 0 L 0.703125 0 L 0.703125 -4.875 Z M 3.875 -4.875 "/></g></g></g><g fill="rgb(100%, 100%, 100%)" fill-opacity="1"><g transform="translate(214.005962, 136.073395)"><g><path d="M 1.359375 -4.875 L 1.359375 -0.640625 L 3.84375 -0.640625 L 3.84375 0 L 0.703125 0 L 0.703125 -4.875 Z M 1.359375 -4.875 "/></g></g></g><g fill="rgb(100%, 100%, 100%)" fill-opacity="1"><g transform="translate(220.113995, 136.073395)"><g><path d="M 0.390625 -2.4375 C 0.390625 -2.882812 0.503906 -3.296875 0.734375 -3.671875 C 0.960938 -4.054688 1.265625 -4.363281 1.640625 -4.59375 C 2.023438 -4.820312 2.441406 -4.9375 2.890625 -4.9375 C 3.335938 -4.9375 3.75 -4.820312 4.125 -4.59375 C 4.507812 -4.363281 4.816406 -4.054688 5.046875 -3.671875 C 5.273438 -3.296875 5.390625 -2.882812 5.390625 -2.4375 C 5.390625 -1.988281 5.273438 -1.570312 5.046875 -1.1875 C 4.828125 -0.800781 4.523438 -0.5 4.140625 -0.28125 C 3.753906 -0.0625 3.335938 0.046875 2.890625 0.046875 C 2.441406 0.046875 2.023438 -0.0625 1.640625 -0.28125 C 1.253906 -0.5 0.945312 -0.796875 0.71875 -1.171875 C 0.5 -1.554688 0.390625 -1.976562 0.390625 -2.4375 Z M 1.078125 -2.4375 C 1.078125 -2.101562 1.15625 -1.789062 1.3125 -1.5 C 1.476562 -1.21875 1.703125 -0.992188 1.984375 -0.828125 C 2.265625 -0.660156 2.570312 -0.578125 2.90625 -0.578125 C 3.238281 -0.578125 3.539062 -0.660156 3.8125 -0.828125 C 4.09375 -0.992188 4.3125 -1.21875 4.46875 -1.5 C 4.632812 -1.789062 4.71875 -2.101562 4.71875 -2.4375 C 4.71875 -2.769531 4.632812 -3.082031 4.46875 -3.375 C 4.300781 -3.664062 4.078125 -3.894531 3.796875 -4.0625 C 3.523438 -4.226562 3.222656 -4.3125 2.890625 -4.3125 C 2.554688 -4.3125 2.25 -4.222656 1.96875 -4.046875 C 1.6875 -3.878906 1.46875 -3.648438 1.3125 -3.359375 C 1.15625 -3.078125 1.078125 -2.769531 1.078125 -2.4375 Z M 1.078125 -2.4375 "/></g></g></g><g fill="rgb(100%, 100%, 100%)" fill-opacity="1"><g transform="translate(227.809852, 136.073395)"><g><path d="M 2.015625 -4.875 C 2.546875 -4.875 2.957031 -4.738281 3.25 -4.46875 C 3.550781 -4.207031 3.703125 -3.84375 3.703125 -3.375 C 3.703125 -3.09375 3.644531 -2.832031 3.53125 -2.59375 C 3.425781 -2.351562 3.25 -2.160156 3 -2.015625 C 2.757812 -1.867188 2.453125 -1.796875 2.078125 -1.796875 L 1.359375 -1.796875 L 1.359375 0 L 0.703125 0 L 0.703125 -4.875 Z M 2.078125 -2.4375 C 2.316406 -2.4375 2.507812 -2.484375 2.65625 -2.578125 C 2.800781 -2.679688 2.90625 -2.800781 2.96875 -2.9375 C 3.03125 -3.082031 3.0625 -3.222656 3.0625 -3.359375 C 3.0625 -3.585938 2.984375 -3.789062 2.828125 -3.96875 C 2.671875 -4.15625 2.429688 -4.25 2.109375 -4.25 L 1.359375 -4.25 L 1.359375 -2.4375 Z M 2.078125 -2.4375 "/></g></g></g><g fill="rgb(100%, 100%, 100%)" fill-opacity="1"><g transform="translate(233.735454, 136.073395)"><g><path d="M 3.875 -4.875 L 3.875 -4.25 L 1.359375 -4.25 L 1.359375 -2.765625 L 3.609375 -2.765625 L 3.609375 -2.140625 L 1.359375 -2.140625 L 1.359375 -0.640625 L 3.96875 -0.640625 L 3.96875 0 L 0.703125 0 L 0.703125 -4.875 Z M 3.875 -4.875 "/></g></g></g><g fill="rgb(100%, 100%, 100%)" fill-opacity="1"><g transform="translate(240.052948, 136.073395)"><g><path d="M 3.390625 0 L 2.234375 -1.796875 C 2.203125 -1.796875 2.148438 -1.796875 2.078125 -1.796875 L 1.359375 -1.796875 L 1.359375 0 L 0.703125 0 L 0.703125 -4.875 L 2 -4.875 C 2.332031 -4.875 2.628906 -4.816406 2.890625 -4.703125 C 3.148438 -4.585938 3.351562 -4.414062 3.5 -4.1875 C 3.65625 -3.957031 3.734375 -3.6875 3.734375 -3.375 C 3.734375 -3.070312 3.664062 -2.789062 3.53125 -2.53125 C 3.394531 -2.28125 3.191406 -2.09375 2.921875 -1.96875 L 4.15625 0 Z M 2.0625 -2.4375 C 2.414062 -2.4375 2.671875 -2.523438 2.828125 -2.703125 C 2.984375 -2.890625 3.0625 -3.101562 3.0625 -3.34375 C 3.0625 -3.488281 3.023438 -3.628906 2.953125 -3.765625 C 2.890625 -3.898438 2.785156 -4.015625 2.640625 -4.109375 C 2.503906 -4.203125 2.328125 -4.25 2.109375 -4.25 L 1.359375 -4.25 L 1.359375 -2.4375 Z M 2.0625 -2.4375 "/></g></g></g><path stroke-linecap="butt" transform="matrix(0.753895, 0, 0, 0.748005, 165.976549, 112.166298)" fill="none" stroke-linejoin="miter" d="M 0.0000182165 0.0022336 L 57.550096 0.0022336 " stroke="rgb(100%, 100%, 100%)" stroke-width="1" stroke-opacity="1" stroke-miterlimit="4"/></svg>