<svg xmlns="http://www.w3.org/2000/svg" xmlns:xlink="http://www.w3.org/1999/xlink" width="100" zoomAndPan="magnify" viewBox="0 0 75 74.999997" height="100" preserveAspectRatio="xMidYMid meet" version="1.0"><defs><clipPath id="id1"><path d="M 17.855469 24.265625 L 56.855469 24.265625 L 56.855469 50.515625 L 17.855469 50.515625 Z M 17.855469 24.265625 " clip-rule="nonzero"/></clipPath></defs><path fill="rgb(100%, 100%, 100%)" d="M 37.46875 74.941406 C 27.464844 74.941406 18.046875 71.046875 10.976562 63.960938 C 3.894531 56.894531 0 47.472656 0 37.46875 C 0 27.464844 3.894531 18.046875 10.976562 10.976562 C 18.046875 3.894531 27.464844 0 37.46875 0 C 47.472656 0 56.894531 3.894531 63.960938 10.976562 C 71.046875 18.0625 74.941406 27.464844 74.941406 37.46875 C 74.941406 47.472656 71.046875 56.894531 63.960938 63.960938 C 56.894531 71.046875 47.472656 74.941406 37.46875 74.941406 Z M 37.46875 2.246094 C 28.066406 2.246094 19.214844 5.914062 12.566406 12.566406 C 5.914062 19.214844 2.246094 28.066406 2.246094 37.46875 C 2.246094 46.875 5.914062 55.726562 12.566406 62.375 C 19.214844 69.023438 28.066406 72.695312 37.46875 72.695312 C 46.875 72.695312 55.726562 69.023438 62.375 62.375 C 69.023438 55.726562 72.695312 46.875 72.695312 37.46875 C 72.695312 28.066406 69.023438 19.214844 62.375 12.566406 C 55.726562 5.914062 46.875 2.246094 37.46875 2.246094 Z M 37.46875 2.246094 " fill-opacity="1" fill-rule="nonzero"/><g clip-path="url(#id1)"><path fill="rgb(100%, 100%, 100%)" d="M 56.855469 26.09375 C 56.855469 25.085938 56.039062 24.269531 55.035156 24.269531 L 19.679688 24.269531 C 18.675781 24.269531 17.855469 25.085938 17.855469 26.09375 L 17.855469 48.679688 C 17.855469 49.683594 18.675781 50.503906 19.679688 50.503906 L 55.035156 50.503906 C 56.039062 50.503906 56.855469 49.683594 56.855469 48.679688 Z M 54.472656 25.65625 L 37.355469 39.871094 L 20.242188 25.65625 Z M 19.246094 48.140625 L 19.246094 26.632812 L 32.191406 37.386719 Z M 20.242188 49.113281 L 33.277344 38.289062 L 36.917969 41.308594 C 37.164062 41.515625 37.546875 41.515625 37.796875 41.308594 L 41.4375 38.289062 L 54.472656 49.113281 Z M 55.46875 48.140625 L 42.519531 37.386719 L 55.46875 26.632812 Z M 55.46875 48.140625 " fill-opacity="1" fill-rule="nonzero"/></g></svg>