<svg xmlns="http://www.w3.org/2000/svg" xmlns:xlink="http://www.w3.org/1999/xlink" width="100" zoomAndPan="magnify" viewBox="0 0 75 74.999997" height="100" preserveAspectRatio="xMidYMid meet" version="1.0"><defs><clipPath id="id1"><path d="M 0 16.464844 L 0.09375 16.464844 L 0.09375 44.964844 L 0 44.964844 Z M 0 16.464844 " clip-rule="nonzero"/></clipPath><clipPath id="id2"><path d="M 22.5 22.5 L 52.5 22.5 L 52.5 52.5 L 22.5 52.5 Z M 22.5 22.5 " clip-rule="nonzero"/></clipPath></defs><path fill="rgb(100%, 100%, 100%)" d="M 37.46875 74.941406 C 27.464844 74.941406 18.046875 71.046875 10.976562 63.960938 C 3.894531 56.894531 0 47.472656 0 37.46875 C 0 27.464844 3.894531 18.046875 10.976562 10.976562 C 18.046875 3.894531 27.464844 0 37.46875 0 C 47.472656 0 56.894531 3.894531 63.960938 10.976562 C 71.046875 18.0625 74.941406 27.464844 74.941406 37.46875 C 74.941406 47.472656 71.046875 56.894531 63.960938 63.960938 C 56.894531 71.046875 47.472656 74.941406 37.46875 74.941406 Z M 37.46875 2.246094 C 28.066406 2.246094 19.214844 5.914062 12.566406 12.566406 C 5.914062 19.214844 2.246094 28.066406 2.246094 37.46875 C 2.246094 46.875 5.914062 55.726562 12.566406 62.375 C 19.214844 69.023438 28.066406 72.695312 37.46875 72.695312 C 46.875 72.695312 55.726562 69.023438 62.375 62.375 C 69.023438 55.726562 72.695312 46.875 72.695312 37.46875 C 72.695312 28.066406 69.023438 19.214844 62.375 12.566406 C 55.726562 5.914062 46.875 2.246094 37.46875 2.246094 Z M 37.46875 2.246094 " fill-opacity="1" fill-rule="nonzero"/><g clip-path="url(#id1)"><path fill="rgb(100%, 100%, 100%)" d="M 0.09375 18.449219 C 0.09375 17.355469 -0.789062 16.46875 -1.871094 16.46875 L -39.941406 16.46875 C -41.027344 16.46875 -41.90625 17.355469 -41.90625 18.449219 L -41.90625 42.96875 C -41.90625 44.0625 -41.027344 44.949219 -39.941406 44.949219 L -1.871094 44.949219 C -0.789062 44.949219 0.09375 44.0625 0.09375 42.96875 Z M -2.476562 17.976562 L -20.90625 33.410156 L -39.339844 17.976562 Z M -40.410156 42.386719 L -40.410156 19.035156 L -26.46875 30.710938 Z M -39.339844 43.441406 L -25.300781 31.6875 L -21.378906 34.96875 C -21.113281 35.191406 -20.699219 35.191406 -20.433594 34.96875 L -16.515625 31.6875 L -2.476562 43.441406 Z M -1.402344 42.386719 L -15.34375 30.710938 L -1.402344 19.035156 Z M -1.402344 42.386719 " fill-opacity="1" fill-rule="nonzero"/></g><g clip-path="url(#id2)"><path fill="rgb(100%, 100%, 100%)" d="M 31.363281 22.5 C 26.476562 22.5 22.5 26.476562 22.5 31.363281 L 22.5 43.636719 C 22.5 48.523438 26.476562 52.5 31.363281 52.5 L 43.636719 52.5 C 48.523438 52.5 52.5 48.523438 52.5 43.636719 L 52.5 31.363281 C 52.5 26.476562 48.523438 22.5 43.636719 22.5 Z M 31.363281 23.863281 L 43.636719 23.863281 C 47.785156 23.863281 51.136719 27.214844 51.136719 31.363281 L 51.136719 43.636719 C 51.136719 47.785156 47.785156 51.136719 43.636719 51.136719 L 31.363281 51.136719 C 27.214844 51.136719 23.863281 47.785156 23.863281 43.636719 L 23.863281 31.363281 C 23.863281 27.214844 27.214844 23.863281 31.363281 23.863281 Z M 45.683594 27.953125 C 45.5 27.953125 45.328125 27.988281 45.160156 28.058594 C 44.992188 28.128906 44.84375 28.226562 44.71875 28.355469 C 44.589844 28.480469 44.492188 28.628906 44.421875 28.796875 C 44.351562 28.964844 44.316406 29.136719 44.316406 29.316406 C 44.316406 29.5 44.351562 29.671875 44.421875 29.839844 C 44.492188 30.007812 44.589844 30.15625 44.71875 30.28125 C 44.84375 30.410156 44.992188 30.507812 45.160156 30.578125 C 45.328125 30.648438 45.5 30.683594 45.683594 30.683594 C 45.863281 30.683594 46.035156 30.648438 46.203125 30.578125 C 46.371094 30.507812 46.519531 30.410156 46.644531 30.28125 C 46.773438 30.15625 46.871094 30.007812 46.941406 29.839844 C 47.011719 29.671875 47.046875 29.5 47.046875 29.316406 C 47.046875 29.136719 47.011719 28.964844 46.941406 28.796875 C 46.871094 28.628906 46.773438 28.480469 46.644531 28.355469 C 46.519531 28.226562 46.371094 28.128906 46.203125 28.058594 C 46.035156 27.988281 45.863281 27.953125 45.683594 27.953125 Z M 37.5 30 C 33.367188 30 30 33.367188 30 37.5 C 30 41.632812 33.367188 45 37.5 45 C 41.632812 45 45 41.632812 45 37.5 C 45 33.367188 41.632812 30 37.5 30 Z M 37.5 31.363281 C 40.898438 31.363281 43.636719 34.101562 43.636719 37.5 C 43.636719 40.898438 40.898438 43.636719 37.5 43.636719 C 34.101562 43.636719 31.363281 40.898438 31.363281 37.5 C 31.363281 34.101562 34.101562 31.363281 37.5 31.363281 Z M 37.5 31.363281 " fill-opacity="1" fill-rule="nonzero"/></g></svg>