<svg xmlns="http://www.w3.org/2000/svg" xmlns:xlink="http://www.w3.org/1999/xlink" width="100" zoomAndPan="magnify" viewBox="0 0 75 74.999997" height="100" preserveAspectRatio="xMidYMid meet" version="1.0"><defs><clipPath id="id1"><path d="M 0 16.464844 L 0.09375 16.464844 L 0.09375 44.964844 L 0 44.964844 Z M 0 16.464844 " clip-rule="nonzero"/></clipPath><clipPath id="id2"><path d="M 22.5 22.5 L 52.5 22.5 L 52.5 52.5 L 22.5 52.5 Z M 22.5 22.5 " clip-rule="nonzero"/></clipPath></defs><path fill="rgb(100%, 100%, 100%)" d="M 37.46875 74.941406 C 27.464844 74.941406 18.046875 71.046875 10.976562 63.960938 C 3.894531 56.894531 0 47.472656 0 37.46875 C 0 27.464844 3.894531 18.046875 10.976562 10.976562 C 18.046875 3.894531 27.464844 0 37.46875 0 C 47.472656 0 56.894531 3.894531 63.960938 10.976562 C 71.046875 18.0625 74.941406 27.464844 74.941406 37.46875 C 74.941406 47.472656 71.046875 56.894531 63.960938 63.960938 C 56.894531 71.046875 47.472656 74.941406 37.46875 74.941406 Z M 37.46875 2.246094 C 28.066406 2.246094 19.214844 5.914062 12.566406 12.566406 C 5.914062 19.214844 2.246094 28.066406 2.246094 37.46875 C 2.246094 46.875 5.914062 55.726562 12.566406 62.375 C 19.214844 69.023438 28.066406 72.695312 37.46875 72.695312 C 46.875 72.695312 55.726562 69.023438 62.375 62.375 C 69.023438 55.726562 72.695312 46.875 72.695312 37.46875 C 72.695312 28.066406 69.023438 19.214844 62.375 12.566406 C 55.726562 5.914062 46.875 2.246094 37.46875 2.246094 Z M 37.46875 2.246094 " fill-opacity="1" fill-rule="nonzero"/><g clip-path="url(#id1)"><path fill="rgb(100%, 100%, 100%)" d="M 0.09375 18.449219 C 0.09375 17.355469 -0.789062 16.46875 -1.871094 16.46875 L -39.941406 16.46875 C -41.027344 16.46875 -41.90625 17.355469 -41.90625 18.449219 L -41.90625 42.96875 C -41.90625 44.0625 -41.027344 44.949219 -39.941406 44.949219 L -1.871094 44.949219 C -0.789062 44.949219 0.09375 44.0625 0.09375 42.96875 Z M -2.476562 17.976562 L -20.90625 33.410156 L -39.339844 17.976562 Z M -40.410156 42.386719 L -40.410156 19.035156 L -26.46875 30.710938 Z M -39.339844 43.441406 L -25.300781 31.6875 L -21.378906 34.96875 C -21.113281 35.191406 -20.699219 35.191406 -20.433594 34.96875 L -16.515625 31.6875 L -2.476562 43.441406 Z M -1.402344 42.386719 L -15.34375 30.710938 L -1.402344 19.035156 Z M -1.402344 42.386719 " fill-opacity="1" fill-rule="nonzero"/></g><g clip-path="url(#id2)"><path fill="rgb(100%, 100%, 100%)" d="M 44.957031 22.511719 L 30.019531 22.511719 C 25.878906 22.511719 22.5 25.890625 22.5 30.03125 L 22.5 44.992188 C 22.5 49.109375 25.878906 52.488281 30.019531 52.488281 L 44.980469 52.488281 C 49.121094 52.488281 52.5 49.109375 52.5 44.96875 L 52.5 30.03125 C 52.476562 25.890625 49.097656 22.511719 44.957031 22.511719 Z M 32.492188 46.777344 L 28.210938 46.777344 L 28.210938 34.40625 L 32.492188 34.40625 Z M 30.328125 32.503906 C 29.113281 32.503906 28.136719 31.527344 28.136719 30.316406 C 28.136719 29.101562 29.113281 28.125 30.328125 28.125 C 31.539062 28.125 32.515625 29.101562 32.515625 30.316406 C 32.492188 31.527344 31.515625 32.503906 30.328125 32.503906 Z M 46.765625 46.777344 L 43.199219 46.777344 L 43.199219 40.78125 C 43.199219 39.332031 43.007812 37.476562 41.03125 37.476562 C 39.011719 37.476562 38.675781 39.046875 38.675781 40.6875 L 38.675781 46.777344 L 35.109375 46.777344 L 35.109375 34.40625 L 38.441406 34.40625 L 38.441406 36.074219 L 38.535156 36.074219 C 39.058594 35.121094 40.273438 34.382812 42.175781 34.382812 C 46.101562 34.382812 46.789062 36.644531 46.789062 39.996094 L 46.789062 46.777344 Z M 46.765625 46.777344 " fill-opacity="1" fill-rule="nonzero"/></g></svg>